<?xml version="1.0" standalone="no"?>
<!DOCTYPE svg PUBLIC "-//W3C//DTD SVG 1.1//EN" "http://www.w3.org/Graphics/SVG/1.1/DTD/svg11.dtd" >
<svg>
<metadata>
Created by FontForge 20090914 at Mon Apr 16 15:35:34 2018
 By www-data
Copyright 2011 The Montserrat Project Authors (https://github.com/JulietaUla/Montserrat)
</metadata>
<defs>
<font id="Montserrat-Regular" horiz-adv-x="0" >
  <font-face 
    font-family="Montserrat"
    font-weight="400"
    font-stretch="normal"
    units-per-em="1000"
    panose-1="0 0 5 0 0 0 0 0 0 0"
    ascent="800"
    descent="-200"
    x-height="526"
    cap-height="700"
    bbox="-823 -262.002 1586 1043"
    underline-thickness="50"
    underline-position="-50"
    unicode-range="U+000D-U+FB02"
  />
<missing-glyph horiz-adv-x="587" 
d="M40 700h507v-700h-507v700zM467 70v560h-347v-560h347z" />
    <glyph glyph-name="fi" unicode="fi" horiz-adv-x="688" 
d="M203.5 662c-15.667 -16.667 -23.501 -41.332 -23.501 -73.999v-62h162v-60h-160v-466h-71v466h-94v60h94v65c0 48 13.833 86 41.5 114s66.834 42 117.501 42c20 0 39.333 -2.83301 58 -8.5s34.334 -13.834 47.001 -24.501l-24 -53c-20.667 17.333 -46.667 26 -78 26
c-30.667 0 -53.834 -8.33301 -69.501 -25zM517.999 526.002h71v-526h-71v526zM516.999 656.002c-10 10 -15 22 -15 36c0 13.333 5 25 15 35s22.333 15 37 15s27 -4.83301 37 -14.5s15 -21.167 15 -34.5c0 -14.667 -5 -27 -15 -37s-22.333 -15 -37 -15s-27 5 -37 15z" />
    <glyph glyph-name="fl" unicode="fl" horiz-adv-x="608" 
d="M203.5 662c-15.667 -16.667 -23.501 -41.332 -23.501 -73.999v-62h162v-60h-160v-466h-71v466h-94v60h94v65c0 48 13.833 86 41.5 114s66.834 42 117.501 42c20 0 39.333 -2.83301 58 -8.5s34.334 -13.834 47.001 -24.501l-24 -53c-20.667 17.333 -46.667 26 -78 26
c-30.667 0 -53.834 -8.33301 -69.501 -25zM437.999 742.002h71v-742h-71v742z" />
    <glyph glyph-name=".notdef" horiz-adv-x="587" 
d="M40 700h507v-700h-507v700zM467 70v560h-347v-560h347z" />
    <glyph glyph-name="NULL" 
 />
    <glyph glyph-name="NULL" 
 />
    <glyph glyph-name="nonmarkingreturn" unicode="&#xd;" horiz-adv-x="262" 
 />
    <glyph glyph-name="space" unicode=" " horiz-adv-x="262" 
 />
    <glyph glyph-name="exclam" unicode="!" horiz-adv-x="260" 
d="M88 700h84l-15 -490h-55zM92.5 10.5c-10.333 10.333 -15.5 22.5 -15.5 36.5c0 14.667 5 26.834 15 36.501s22.667 14.5 38 14.5c14.667 0 27 -4.83301 37 -14.5s15 -21.834 15 -36.501c0 -14 -5 -26.167 -15 -36.5s-22.333 -15.5 -37 -15.5s-27.167 5.16699 -37.5 15.5z
" />
    <glyph glyph-name="quotedbl" unicode="&#x22;" horiz-adv-x="373" 
d="M69 700h63l-5 -264h-53zM240 700h63l-5 -264h-53z" />
    <glyph glyph-name="numbersign" unicode="#" horiz-adv-x="696" 
d="M518 455l-26 -210h142v-55h-149l-23 -190h-54l23 190h-205l-24 -190h-54l23 190h-142v55h149l26 210h-143v55h150l23 190h55l-24 -190h206l23 190h54l-23 -190h141v-55h-148zM464 455h-205l-27 -210h206z" />
    <glyph glyph-name="dollar" unicode="$" horiz-adv-x="615" 
d="M509 54.5c-39.333 -35.667 -96.9971 -55.501 -172.997 -59.501v-115h-50v114c-48.667 2.66699 -94.5 12.167 -137.5 28.5s-76.833 37.166 -101.5 62.499l29 57c23.333 -22.667 53.833 -41.667 91.5 -57s77.167 -24.333 118.5 -27v263c-46 11.333 -84.333 23.5 -115 36.5
s-56.167 32 -76.5 57s-30.5 58.167 -30.5 99.5c0 51.333 18.667 94.5 56 129.5s92.666 55.5 165.999 61.5v115h50v-114c38 -1.33301 74.833 -7.5 110.5 -18.5s66.5 -25.5 92.5 -43.5l-25 -59c-27.333 17.333 -56.333 31 -87 41s-61 15.667 -91 17v-265
c49.333 -12 89.666 -24.167 120.999 -36.5s57.666 -31.166 78.999 -56.499s32 -58.666 32 -99.999c0 -51.333 -19.667 -94.833 -59 -130.5zM175.503 436.999c25.667 -18 62.5 -33.333 110.5 -46v250c-49.333 -4 -86.5 -17.5 -111.5 -40.5s-37.5 -51.167 -37.5 -84.5
c0 -34.667 12.833 -61 38.5 -79zM455.003 96.999c26.667 22 39.998 50 39.998 84c0 36 -13.667 63 -41 81s-66.666 33.333 -117.999 46v-250c52.667 4 92.334 17 119.001 39z" />
    <glyph glyph-name="percent" unicode="%" horiz-adv-x="829" 
d="M85.5 377.5c-29 35 -43.5 80.833 -43.5 137.5s14.5 102.5 43.5 137.5s67.167 52.5 114.5 52.5c46.667 0 84.667 -17.333 114 -52s44 -80.667 44 -138s-14.667 -103.333 -44 -138s-67.333 -52 -114 -52c-47.333 0 -85.5 17.5 -114.5 52.5zM624 700h59l-478 -700h-59z
M278.5 408.5c19.667 25.667 29.5 61.167 29.5 106.5s-9.83301 80.833 -29.5 106.5s-45.834 38.5 -78.501 38.5c-33.333 0 -59.666 -13 -78.999 -39s-29 -61.333 -29 -106s9.66699 -80 29 -106s45.666 -39 78.999 -39c32.667 0 58.834 12.833 78.501 38.5zM515 47.5
c-29.333 35 -44 80.833 -44 137.5s14.667 102.5 44 137.5s67.333 52.5 114 52.5c47.333 0 85.5 -17.5 114.5 -52.5s43.5 -80.833 43.5 -137.5s-14.5 -102.5 -43.5 -137.5s-67.167 -52.5 -114.5 -52.5c-46.667 0 -84.667 17.5 -114 52.5zM708 79c19.333 26 29 61.333 29 106
s-9.66699 80 -29 106s-45.666 39 -78.999 39c-32.667 0 -58.834 -12.833 -78.501 -38.5s-29.5 -61.167 -29.5 -106.5s9.83301 -80.833 29.5 -106.5s45.834 -38.5 78.501 -38.5c33.333 0 59.666 13 78.999 39z" />
    <glyph glyph-name="ampersand" unicode="&#x26;" horiz-adv-x="669" 
d="M615 -11l-97 100.003c-59.333 -63.333 -137.333 -95 -234 -95c-45.333 0 -85.833 7.5 -121.5 22.5s-63.5 36 -83.5 63s-30 57.833 -30 92.5c0 42 13.333 79.667 40 113s72 68.333 136 105c-33.333 34.667 -56.333 64.167 -69 88.5s-19 50.166 -19 77.499
c0 44.667 16 80.667 48 108s75 41 129 41c50 0 89.667 -12.333 119 -37s44 -58.667 44 -102c0 -34.667 -11.667 -65.834 -35 -93.501s-63.666 -58.167 -120.999 -91.5l192 -198c21.333 38 37 83 47 135l58 -18c-12.667 -62.667 -33.334 -116.334 -62.001 -161.001l100 -103z
M232.5 626.003c-19.667 -17.333 -29.499 -40.334 -29.499 -69.001c0 -20.667 5.33301 -40.334 16 -59.001s31.667 -44 63 -76c50.667 29.333 85.667 54.333 105 75s29 43.334 29 68.001c0 26.667 -9 47.834 -27 63.501s-43 23.5 -75 23.5
c-34.667 0 -61.834 -8.66699 -81.501 -26zM476.001 132.002l-211 216.998c-55.333 -31.333 -93.5 -59.666 -114.5 -84.999s-31.5 -53.666 -31.5 -84.999c0 -38 15.5 -68.5 46.5 -91.5s71.833 -34.5 122.5 -34.5c77.333 0 140 26.333 188 79z" />
    <glyph glyph-name="quotesingle" unicode="'" horiz-adv-x="202" 
d="M69 700h63l-5 -264h-53z" />
    <glyph glyph-name="parenleft" unicode="(" horiz-adv-x="329" 
d="M134 17.5c-20 79.667 -30 165.166 -30 256.499s10 177.166 30 257.499s48.667 150.5 86 210.5h68c-39.333 -67.333 -68.166 -139.666 -86.499 -216.999s-27.5 -161 -27.5 -251s9.16699 -173.667 27.5 -251s47.166 -149.666 86.499 -216.999h-68
c-37.333 61.333 -66 131.833 -86 211.5z" />
    <glyph glyph-name="parenright" unicode=")" horiz-adv-x="329" 
d="M40 -194c39.333 67.333 68.334 139.499 87.001 216.499s28 160.833 28 251.5s-9.33301 174.5 -28 251.5s-47.667 149.167 -87 216.5h68c37.333 -60 66.166 -130.167 86.499 -210.5s30.5 -166.166 30.5 -257.499s-10 -177 -30 -257s-49 -150.333 -87 -211h-68z" />
    <glyph glyph-name="asterisk" unicode="*" horiz-adv-x="386" 
d="M240 561l124 -70l-23 -42l-125 73v-142h-46l1 142l-125 -73l-24 42l125 70l-125 70l24 43l125 -74l-1 142h46v-142l125 74l23 -43z" />
    <glyph glyph-name="plus" unicode="+" horiz-adv-x="575" 
d="M505 320h-186v-182h-63v182h-186v59h186v183h63v-183h186v-59z" />
    <glyph glyph-name="comma" unicode="," horiz-adv-x="212" 
d="M145 88.5c10 -10.333 15.001 -23.166 15.001 -38.499c0 -8 -1.16699 -16.667 -3.5 -26s-5.83301 -20 -10.5 -32l-42 -138h-48l34 145c-10.667 3.33301 -19.334 9.5 -26.001 18.5s-10 19.833 -10 32.5c0 15.333 5 28.166 15 38.499s22.667 15.5 38 15.5
s28 -5.16699 38 -15.5z" />
    <glyph glyph-name="hyphen" unicode="-" horiz-adv-x="382" 
d="M60 302h262v-62h-262v62z" />
    <glyph glyph-name="period" unicode="." horiz-adv-x="212" 
d="M68.5 11c-10.333 10.667 -15.5 23.667 -15.5 39s5.16699 28.166 15.5 38.499s22.833 15.5 37.5 15.5s27.334 -5.16699 38.001 -15.5s16 -23.166 16 -38.499s-5.33301 -28.333 -16 -39s-23.334 -16 -38.001 -16s-27.167 5.33301 -37.5 16z" />
    <glyph glyph-name="slash" unicode="/" horiz-adv-x="335" 
d="M305 842h65l-330 -942h-65z" />
    <glyph glyph-name="zero" unicode="0" horiz-adv-x="662" 
d="M186.5 37c-42.333 28.667 -75.333 69.834 -99 123.501s-35.5 116.834 -35.5 189.501s11.833 135.834 35.5 189.501s56.667 94.834 99 123.501s90.5 43 144.5 43s102.167 -14.333 144.5 -43s75.5 -69.834 99.5 -123.501s36 -116.834 36 -189.501
s-12 -135.834 -36 -189.501s-57.167 -94.834 -99.5 -123.501s-90.5 -43 -144.5 -43s-102.167 14.333 -144.5 43zM438.5 94c31 22.667 55.167 55.667 72.5 99s26 95.666 26 156.999s-8.66699 113.666 -26 156.999s-41.5 76.333 -72.5 99s-66.833 34 -107.5 34
s-76.5 -11.333 -107.5 -34s-55.167 -55.667 -72.5 -99s-26 -95.666 -26 -156.999s8.66699 -113.666 26 -156.999s41.5 -76.333 72.5 -99s66.833 -34 107.5 -34s76.5 11.333 107.5 34z" />
    <glyph glyph-name="one" unicode="1" horiz-adv-x="361" 
d="M246 700v-700h-72v636h-165v64h237z" />
    <glyph glyph-name="two" unicode="2" horiz-adv-x="568" 
d="M530 64l0.00195312 -64h-491v51l291 285c36.667 36 61.5 67.167 74.5 93.5s19.5 52.833 19.5 79.5c0 41.333 -14.167 73.5 -42.5 96.5s-68.833 34.5 -121.5 34.5c-82 0 -145.667 -26 -191 -78l-51 44c27.333 32 62.166 56.667 104.499 74s90.166 26 143.499 26
c71.333 0 127.833 -16.833 169.5 -50.5s62.5 -79.834 62.5 -138.501c0 -36 -8 -70.667 -24 -104s-46.333 -71.666 -91 -114.999l-238 -234h385z" />
    <glyph glyph-name="three" unicode="3" horiz-adv-x="564" 
d="M457.5 340.5c38.333 -35.667 57.501 -82.166 57.501 -139.499c0 -40 -9.66699 -75.5 -29 -106.5s-48 -55.5 -86 -73.5s-84.333 -27 -139 -27c-50.667 0 -98.5 8.16699 -143.5 24.5s-81.167 38.166 -108.5 65.499l35 57c23.333 -24 54.333 -43.5 93 -58.5
s80 -22.5 124 -22.5c57.333 0 101.666 12.5 132.999 37.5s47 59.5 47 103.5c0 43.333 -15.667 77.333 -47 102s-78.666 37 -141.999 37h-50v53l194 243h-358v64h450v-51l-198 -249c73.333 -4 129.166 -23.833 167.499 -59.5z" />
    <glyph glyph-name="four" unicode="4" horiz-adv-x="661" 
d="M647 184h-140v-184h-72v184h-395v52l371 464h80l-358 -452h304v162h70v-162h140v-64z" />
    <glyph glyph-name="five" unicode="5" horiz-adv-x="566" 
d="M457.5 358.5c46.333 -36.333 69.502 -87.166 69.502 -152.499c0 -40.667 -9.5 -77 -28.5 -109s-47.5 -57.167 -85.5 -75.5s-84.667 -27.5 -140 -27.5c-50 0 -97.5 8.16699 -142.5 24.5s-81.167 38.166 -108.5 65.499l35 57c23.333 -24 54 -43.5 92 -58.5
s79 -22.5 123 -22.5c58 0 102.833 13 134.5 39s47.5 60.667 47.5 104c0 48 -17.833 84.333 -53.5 109s-95.834 37 -180.501 37h-149l36 351h383v-64h-320l-24 -223h90c101.333 0 175.166 -18.167 221.499 -54.5z" />
    <glyph glyph-name="six" unicode="6" horiz-adv-x="609" 
d="M464.5 393c35.667 -17.333 63.499 -41.8311 83.499 -73.498s30 -68.5 30 -110.5c0 -42.667 -10.333 -80.334 -31 -113.001s-49.167 -57.834 -85.5 -75.501s-77.166 -26.5 -122.499 -26.5c-92.667 0 -163.667 30.5 -213 91.5s-74 147.167 -74 258.5
c0 78 13.333 144 40 198s64 94.833 112 122.5s104 41.5 168 41.5c69.333 0 124.666 -12.667 165.999 -38l-29 -58c-33.333 22 -78.666 33 -135.999 33c-77.333 0 -138 -24.5 -182 -73.5s-66 -120.167 -66 -213.5c0 -16.667 1 -35.667 3 -57c17.333 38 45 67.5 83 88.5
s81.667 31.5 131 31.5c46 0 86.833 -8.66699 122.5 -26zM459.499 96.502c31.667 27.667 47.499 64.5 47.499 110.5s-15.833 82.667 -47.5 110s-74.5 41 -128.5 41c-35.333 0 -66.5 -6.66699 -93.5 -20s-48.167 -31.666 -63.5 -54.999s-23 -49.333 -23 -78
c0 -26.667 7.16699 -51.334 21.5 -74.001s35.5 -41 63.5 -55s61.333 -21 100 -21c50.667 0 91.834 13.833 123.501 41.5z" />
    <glyph glyph-name="seven" unicode="7" horiz-adv-x="589" 
d="M546 700v-51l-293 -649h-78l288 636h-360v-131h-71v195h514z" />
    <glyph glyph-name="eight" unicode="8" horiz-adv-x="638" 
d="M554.5 301c23.667 -29.333 35.5 -64.668 35.5 -106.001c0 -40.667 -11 -76.167 -33 -106.5s-53.5 -53.666 -94.5 -69.999s-89.167 -24.5 -144.5 -24.5c-84 0 -150 18 -198 54s-72 85 -72 147c0 42 11.5 77.5 34.5 106.5s56.5 50.833 100.5 65.5
c-36 14 -63.333 34.167 -82 60.5s-28 57.5 -28 93.5c0 56.667 22.167 101.667 66.5 135s103.833 50 178.5 50c49.333 0 92.5 -7.5 129.5 -22.5s65.833 -36.5 86.5 -64.5s31 -60.667 31 -98c0 -36 -9.66699 -67.167 -29 -93.5s-47 -46.5 -83 -60.5
c44 -14.667 77.833 -36.667 101.5 -66zM191 426.998c30.667 -22.667 73.001 -33.998 127.001 -33.998s96.5 11.333 127.5 34s46.5 53 46.5 91c0 39.333 -15.833 70.333 -47.5 93s-73.834 34 -126.501 34c-53.333 0 -95.5 -11.333 -126.5 -34s-46.5 -53.334 -46.5 -92.001
s15.333 -69.334 46 -92.001zM463.501 93c35 25.333 52.5 59.667 52.5 103s-17.5 77.5 -52.5 102.5s-83.5 37.5 -145.5 37.5c-61.333 0 -109.5 -12.5 -144.5 -37.5s-52.5 -59.167 -52.5 -102.5c0 -44 17.333 -78.5 52 -103.5s83 -37.5 145 -37.5s110.5 12.667 145.5 38z" />
    <glyph glyph-name="nine" unicode="9" horiz-adv-x="609" 
d="M483 614.5c49.333 -61 74.001 -147.169 74.001 -258.502c0 -78 -13.333 -144 -40 -198s-64 -94.833 -112 -122.5s-104 -41.5 -168 -41.5c-69.333 0 -124.666 12.667 -165.999 38l29 58c33.333 -22 78.666 -33 135.999 -33c77.333 0 138 24.5 182 73.5
s66 120.167 66 213.5c0 17.333 -1 36.333 -3 57c-17.333 -38 -45 -67.5 -83 -88.5s-81.667 -31.5 -131 -31.5c-46 0 -86.833 8.66699 -122.5 26s-63.5 41.833 -83.5 73.5s-30 68.5 -30 110.5c0 42.667 10.333 80.334 31 113.001s49.167 57.834 85.5 75.501
s77.166 26.5 122.499 26.5c92.667 0 163.667 -30.5 213 -91.5zM371.501 361.998c27 13.333 48.168 31.666 63.501 54.999s23 49.333 23 78c0 26.667 -7.16699 51.334 -21.5 74.001s-35.5 41 -63.5 55s-61.333 21 -100 21c-50.667 0 -91.834 -13.833 -123.501 -41.5
s-47.5 -64.5 -47.5 -110.5s15.833 -82.667 47.5 -110s74.5 -41 128.5 -41c35.333 0 66.5 6.66699 93.5 20z" />
    <glyph glyph-name="colon" unicode=":" horiz-adv-x="212" 
d="M68.5 437c-10.333 10.667 -15.5 23.667 -15.5 39s5.16699 28.166 15.5 38.499s22.833 15.5 37.5 15.5s27.334 -5.16699 38.001 -15.5s16 -23.166 16 -38.499s-5.33301 -28.333 -16 -39s-23.334 -16 -38.001 -16s-27.167 5.33301 -37.5 16zM68.5 11
c-10.333 10.667 -15.5 23.667 -15.5 39s5.16699 28.166 15.5 38.499s22.833 15.5 37.5 15.5s27.334 -5.16699 38.001 -15.5s16 -23.166 16 -38.499s-5.33301 -28.333 -16 -39s-23.334 -16 -38.001 -16s-27.167 5.33301 -37.5 16z" />
    <glyph glyph-name="semicolon" unicode=";" horiz-adv-x="212" 
d="M68.5 437c-10.333 10.667 -15.5 23.667 -15.5 39s5.16699 28.166 15.5 38.499s22.833 15.5 37.5 15.5s27.334 -5.16699 38.001 -15.5s16 -23.166 16 -38.499s-5.33301 -28.333 -16 -39s-23.334 -16 -38.001 -16s-27.167 5.33301 -37.5 16zM145 88.5
c10 -10.333 15.001 -23.166 15.001 -38.499c0 -8 -1.16699 -16.667 -3.5 -26s-5.83301 -20 -10.5 -32l-42 -138h-48l34 145c-10.667 3.33301 -19.334 9.5 -26.001 18.5s-10 19.833 -10 32.5c0 15.333 5 28.166 15 38.499s22.667 15.5 38 15.5s28 -5.16699 38 -15.5z" />
    <glyph glyph-name="less" unicode="&#x3c;" horiz-adv-x="575" 
d="M505 495l-368 -145l368 -145v-62l-435 174v66l435 175v-63z" />
    <glyph glyph-name="equal" unicode="=" horiz-adv-x="575" 
d="M70 495h435v-59h-435v59zM70 264h435v-59h-435v59z" />
    <glyph glyph-name="greater" unicode="&#x3e;" horiz-adv-x="575" 
d="M505 383v-66l-435 -174v62l368 145l-368 145v63z" />
    <glyph glyph-name="question" unicode="?" horiz-adv-x="567" 
d="M248.5 282c9 20.667 20.168 38.3311 33.501 52.998s30.666 31.334 51.999 50.001c28.667 25.333 49.834 47.5 63.501 66.5s20.5 42.167 20.5 69.5c0 36.667 -14.333 66.167 -43 88.5s-68 33.5 -118 33.5c-82.667 0 -146.334 -27 -191.001 -81l-53 40
c56.667 69.333 139.667 104 249 104c70 0 125.833 -15.667 167.5 -47s62.5 -73.666 62.5 -126.999c0 -27.333 -4.5 -51.5 -13.5 -72.5s-20 -38.833 -33 -53.5s-30.167 -31.667 -51.5 -51c-28.667 -26 -50 -49.167 -64 -69.5s-21 -45.5 -21 -75.5h-74
c0 27.333 4.5 51.333 13.5 72zM235.001 10.4971c-10 10.333 -15 22.5 -15 36.5c0 14.667 5 26.834 15 36.501s22.333 14.5 37 14.5c15.333 0 28 -4.83301 38 -14.5s15 -21.834 15 -36.501c0 -14 -5.16699 -26.167 -15.5 -36.5s-22.833 -15.5 -37.5 -15.5
s-27 5.16699 -37 15.5z" />
    <glyph glyph-name="at" unicode="@" horiz-adv-x="1033" 
d="M758.5 650.5c70.333 -37 125.171 -88.9971 164.504 -155.997s59 -143.5 59 -229.5c0 -84.667 -14.667 -150.834 -44 -198.501s-70 -71.5 -122 -71.5c-32.667 0 -59.167 9.66699 -79.5 29s-31.5 46 -33.5 80c-20 -34.667 -47.333 -61.5 -82 -80.5s-74 -28.5 -118 -28.5
c-46.667 0 -88.834 11.167 -126.501 33.5s-67.334 53.166 -89.001 92.499s-32.5 83.666 -32.5 132.999s10.833 93.5 32.5 132.5s51.334 69.5 89.001 91.5s79.834 33 126.501 33c42.667 0 81.167 -9.16699 115.5 -27.5s61.833 -44.166 82.5 -77.499v101h65v-379
c0 -26.667 5.66699 -46 17 -58s26.333 -18 45 -18c31.333 0 56.166 18.667 74.499 56s27.5 89.333 27.5 156c0 77.333 -17.333 145.5 -52 204.5s-83.167 104.833 -145.5 137.5s-133.5 49 -213.5 49c-80.667 0 -152.167 -16.833 -214.5 -50.5s-110.833 -81 -145.5 -142
s-52 -130.5 -52 -208.5s17.167 -147.667 51.5 -209s82.333 -109 144 -143s132.5 -51 212.5 -51c31.333 0 64.166 3.66699 98.499 11s65.5 18.333 93.5 33l17 -49c-28.667 -14.667 -61.834 -26 -99.501 -34s-74.167 -12 -109.5 -12c-90.667 0 -171 19.333 -241 58
s-124.5 92.5 -163.5 161.5s-58.5 147.167 -58.5 234.5c0 88 19.667 166.167 59 234.5s94.5 121.666 165.5 159.999s151.833 57.5 242.5 57.5c89.333 0 169.166 -18.5 239.499 -55.5zM609.005 78.0029c28.667 16.667 51.334 40.168 68.001 70.501s25 65.5 25 105.5
c0 39.333 -8.33301 74.166 -25 104.499s-39.334 53.666 -68.001 69.999s-61 24.5 -97 24.5c-36.667 0 -69.5 -8.33301 -98.5 -25s-51.667 -40 -68 -70s-24.5 -64.667 -24.5 -104s8.16699 -74.166 24.5 -104.499s39 -54 68 -71s61.833 -25.5 98.5 -25.5
c36 0 68.333 8.33301 97 25z" />
    <glyph glyph-name="A" unicode="A" horiz-adv-x="717" 
d="M553 187h-390l-84 -187h-77l320 700h73l320 -700h-78zM526 247l-168 376l-168 -376h336z" />
    <glyph glyph-name="B" unicode="B" horiz-adv-x="754" 
d="M661.5 301.5c25 -29.667 37.5 -67.834 37.5 -114.501c0 -60 -22.167 -106.167 -66.5 -138.5s-109.833 -48.5 -196.5 -48.5h-322v700h302c78 0 138.5 -15.667 181.5 -47s64.5 -75.666 64.5 -132.999c0 -38.667 -9.5 -71.5 -28.5 -98.5s-45.167 -47.167 -78.5 -60.5
c46 -10 81.5 -29.833 106.5 -59.5zM188 639v-254h223c56.667 0 100.334 10.833 131.001 32.5s46 53.167 46 94.5s-15.333 72.833 -46 94.5s-74.334 32.5 -131.001 32.5h-223zM577 93c32 21.333 48 54.667 48 100c0 87.333 -63.333 131 -190 131h-247v-263h247
c62.667 0 110 10.667 142 32z" />
    <glyph glyph-name="C" unicode="C" horiz-adv-x="719" 
d="M230.5 40c-55.667 30.667 -99.333 73.168 -131 127.501s-47.5 115.166 -47.5 182.499s15.833 128.166 47.5 182.499s75.5 96.833 131.5 127.5s118.667 46 188 46c52 0 100 -8.66699 144 -26s81.333 -42.666 112 -75.999l-47 -47c-54.667 55.333 -123.667 83 -207 83
c-55.333 0 -105.666 -12.667 -150.999 -38s-80.833 -60 -106.5 -104s-38.5 -93.333 -38.5 -148s12.833 -104 38.5 -148s61.167 -78.667 106.5 -104s95.666 -38 150.999 -38c84 0 153 28 207 84l47 -47c-30.667 -33.333 -68.167 -58.833 -112.5 -76.5
s-92.5 -26.5 -144.5 -26.5c-69.333 0 -131.833 15.333 -187.5 46z" />
    <glyph glyph-name="D" unicode="D" horiz-adv-x="826" 
d="M114 700h285c74 0 139.333 -14.833 196 -44.5s100.667 -71 132 -124s47 -113.5 47 -181.5s-15.667 -128.5 -47 -181.5s-75.333 -94.333 -132 -124s-122 -44.5 -196 -44.5h-285v700zM395 64c61.333 0 115 12.167 161 36.5s81.667 58 107 101s38 92.5 38 148.5
s-12.667 105.5 -38 148.5s-61 76.667 -107 101s-99.667 36.5 -161 36.5h-207v-572h207z" />
    <glyph glyph-name="E" unicode="E" horiz-adv-x="669" 
d="M609 64v-64h-495v700h480v-64h-406v-249h362v-63h-362v-260h421z" />
    <glyph glyph-name="F" unicode="F" horiz-adv-x="633" 
d="M188 636v-275h362v-64h-362v-297h-74v700h480v-64h-406z" />
    <glyph glyph-name="G" unicode="G" horiz-adv-x="773" 
d="M607 350l71 0.00195312v-267c-32.667 -28.667 -71.334 -50.667 -116.001 -66s-91.667 -23 -141 -23c-70 0 -133 15.333 -189 46s-100 73.167 -132 127.5s-48 115.166 -48 182.499s16 128.166 48 182.499s76 96.833 132 127.5s119.333 46 190 46
c53.333 0 102.333 -8.5 147 -25.5s82.334 -42.167 113.001 -75.5l-46 -47c-55.333 54.667 -125.666 82 -210.999 82c-56.667 0 -107.834 -12.5 -153.501 -37.5s-81.5 -59.667 -107.5 -104s-39 -93.833 -39 -148.5s13 -104 39 -148s61.667 -78.667 107 -104
s96.333 -38 153 -38c72 0 133 18 183 54v236z" />
    <glyph glyph-name="H" unicode="H" horiz-adv-x="813" 
d="M699 700v-700h-73v323h-438v-323h-74v700h74v-312h438v312h73z" />
    <glyph glyph-name="I" unicode="I" horiz-adv-x="302" 
d="M114 700h74v-700h-74v700z" />
    <glyph glyph-name="J" unicode="J" horiz-adv-x="501" 
d="M78 20c-34 17.333 -61.668 42 -83.001 74l44 50c38.667 -57.333 89 -86 151 -86c86.667 0 130 51.333 130 154v424h-256v64h329v-485c0 -73.333 -17.167 -128.5 -51.5 -165.5s-85.166 -55.5 -152.499 -55.5c-40 0 -77 8.66699 -111 26z" />
    <glyph glyph-name="K" unicode="K" horiz-adv-x="711" 
d="M331 329l-143 -145v-184h-74v700h74v-423l411 423h85l-303 -317l324 -383h-88z" />
    <glyph glyph-name="L" unicode="L" horiz-adv-x="589" 
d="M114 700h74v-636h392v-64h-466v700z" />
    <glyph glyph-name="M" unicode="M" horiz-adv-x="955" 
d="M841 700v-700h-71v560l-275 -471h-35l-275 468v-557h-71v700h61l304 -519l301 519h61z" />
    <glyph glyph-name="N" unicode="N" horiz-adv-x="813" 
d="M699 700v-700h-61l-450 568v-568h-74v700h61l451 -568v568h73z" />
    <glyph glyph-name="O" unicode="O" horiz-adv-x="839" 
d="M231.5 40.5c-56.333 31 -100.333 73.498 -132 127.498s-47.5 114.667 -47.5 182s15.833 128 47.5 182s75.667 96.5 132 127.5s119.166 46.5 188.499 46.5s131.833 -15.333 187.5 -46s99.5 -73.167 131.5 -127.5s48 -115.166 48 -182.499s-16 -128.166 -48 -182.499
s-75.833 -96.833 -131.5 -127.5s-118.167 -46 -187.5 -46s-132.166 15.5 -188.499 46.5zM570 97.498c44.667 25 79.667 59.667 105 104s38 93.833 38 148.5s-12.667 104.167 -38 148.5s-60.333 79 -105 104s-94.667 37.5 -150 37.5s-105.5 -12.5 -150.5 -37.5
s-80.333 -59.667 -106 -104s-38.5 -93.833 -38.5 -148.5s12.833 -104.167 38.5 -148.5s61 -79 106 -104s95.167 -37.5 150.5 -37.5s105.333 12.5 150 37.5z" />
    <glyph glyph-name="P" unicode="P" horiz-adv-x="718" 
d="M586 636c50.667 -42.667 76 -101.333 76 -176s-25.333 -133.167 -76 -175.5s-120.667 -63.5 -210 -63.5h-188v-221h-74v700h262c89.333 0 159.333 -21.333 210 -64zM533 331.501c36.667 30.333 55 73.167 55 128.5c0 56.667 -18.333 100.167 -55 130.5
s-89.667 45.5 -159 45.5h-186v-350h186c69.333 0 122.333 15.167 159 45.5z" />
    <glyph glyph-name="Q" unicode="Q" horiz-adv-x="839" 
d="M819 -59c-21.333 -26 -46.498 -45.832 -75.498 -59.499s-60.5 -20.5 -94.5 -20.5c-41.333 0 -80.5 10.167 -117.5 30.5s-78.5 54.5 -124.5 102.5c-67.333 2 -128 18.667 -182 50s-96.333 73.666 -127 126.999s-46 113 -46 179c0 67.333 15.833 128 47.5 182
s75.667 96.5 132 127.5s119.166 46.5 188.499 46.5s131.833 -15.333 187.5 -46s99.5 -73.167 131.5 -127.5s48 -115.166 48 -182.499c0 -58.667 -12.167 -112.5 -36.5 -161.5s-58.333 -89.833 -102 -122.5s-93.834 -54.334 -150.501 -65.001c51.333 -54 102 -81 152 -81
c52 0 96.333 21.333 133 64zM163.502 202.001c25.667 -44 61 -78.667 106 -104s95.167 -38 150.5 -38s105.333 12.667 150 38s79.667 60 105 104s38 93.333 38 148s-12.667 104 -38 148s-60.333 78.667 -105 104s-94.667 38 -150 38s-105.5 -12.667 -150.5 -38
s-80.333 -60 -106 -104s-38.5 -93.333 -38.5 -148s12.833 -104 38.5 -148z" />
    <glyph glyph-name="R" unicode="R" horiz-adv-x="723" 
d="M592 0l-160 225.003c-18 -2 -36.667 -3 -56 -3h-188v-222h-74v700h262c89.333 0 159.333 -21.333 210 -64s76 -101.334 76 -176.001c0 -54.667 -13.833 -100.834 -41.5 -138.501s-67.167 -64.834 -118.5 -81.501l171 -240h-81zM533 331.003
c36.667 30.667 55 73.667 55 129c0 56.667 -18.333 100.167 -55 130.5s-89.667 45.5 -159 45.5h-186v-351h186c69.333 0 122.333 15.333 159 46z" />
    <glyph glyph-name="S" unicode="S" horiz-adv-x="615" 
d="M157.5 19c-47.667 16.667 -84.5039 38.6699 -110.504 66.0029l29 57c25.333 -25.333 59 -45.833 101 -61.5s85.333 -23.5 130 -23.5c62.667 0 109.667 11.5 141 34.5s47 52.833 47 89.5c0 28 -8.5 50.333 -25.5 67s-37.833 29.5 -62.5 38.5s-59 18.833 -103 29.5
c-52.667 13.333 -94.667 26.166 -126 38.499s-58.166 31.166 -80.499 56.499s-33.5 59.666 -33.5 102.999c0 35.333 9.33301 67.5 28 96.5s47.334 52.167 86.001 69.5s86.667 26 144 26c40 0 79.167 -5.5 117.5 -16.5s71.5 -26.167 99.5 -45.5l-25 -59
c-29.333 19.333 -60.666 33.833 -93.999 43.5s-66 14.5 -98 14.5c-61.333 0 -107.5 -11.833 -138.5 -35.5s-46.5 -54.167 -46.5 -91.5c0 -28 8.5 -50.5 25.5 -67.5s38.333 -30 64 -39s60.167 -18.833 103.5 -29.5c51.333 -12.667 92.833 -25.167 124.5 -37.5
s58.5 -31 80.5 -56s33 -58.833 33 -101.5c0 -35.333 -9.5 -67.5 -28.5 -96.5s-48.167 -52 -87.5 -69s-87.666 -25.5 -144.999 -25.5c-52 0 -101.833 8.33301 -149.5 25z" />
    <glyph glyph-name="T" unicode="T" horiz-adv-x="574" 
d="M250 636h-246v64h566v-64h-246v-636h-74v636z" />
    <glyph glyph-name="U" unicode="U" horiz-adv-x="792" 
d="M184 72c-50.667 52 -75.999 127.667 -75.999 227v401h74v-398c0 -81.333 18.333 -142 55 -182s89.667 -60 159 -60c70 0 123.333 20 160 60s55 100.667 55 182v398h72v-401c0 -99.333 -25.167 -175 -75.5 -227s-120.833 -78 -211.5 -78s-161.334 26 -212.001 78z" />
    <glyph glyph-name="V" unicode="V" horiz-adv-x="698" 
d="M696 700l-310 -700h-73l-310 700h80l268 -608l270 608h75z" />
    <glyph glyph-name="W" unicode="W" horiz-adv-x="1111" 
d="M1075 700l-236 -700h-78l-205 597l-206 -597h-77l-236 700h76l202 -602l209 602h69l206 -605l205 605h71z" />
    <glyph glyph-name="X" unicode="X" horiz-adv-x="656" 
d="M553 0l-226 308l-225 -308h-85l266 360l-249 340h85l211 -286l210 286h80l-248 -338l267 -362h-86z" />
    <glyph glyph-name="Y" unicode="Y" horiz-adv-x="635" 
d="M354 242v-242h-73v242l-280 458h79l240 -393l240 393h74z" />
    <glyph glyph-name="Z" unicode="Z" horiz-adv-x="651" 
d="M619 64v-64h-574v51l464 585h-457v64h555v-51l-463 -585h475z" />
    <glyph glyph-name="bracketleft" unicode="[" horiz-adv-x="318" 
d="M114 742h183v-59h-112v-818h112v-59h-183v936z" />
    <glyph glyph-name="backslash" unicode="\" horiz-adv-x="335" 
d="M295 -100l-330 942h65l330 -942h-65z" />
    <glyph glyph-name="bracketright" unicode="]" horiz-adv-x="318" 
d="M21 -194v59h112v818h-112v59h183v-936h-183z" />
    <glyph glyph-name="asciicircum" unicode="^" horiz-adv-x="576" 
d="M434 143l-146 353l-146 -353h-59l175 414h61l174 -414h-59z" />
    <glyph glyph-name="underscore" unicode="_" horiz-adv-x="500" 
d="M0 0h500v-48h-500v48z" />
    <glyph glyph-name="grave" unicode="`" horiz-adv-x="600" 
d="M133 731h95l137 -124h-70z" />
    <glyph glyph-name="a" unicode="a" horiz-adv-x="590" 
d="M441 478.5c36.667 -34.333 55.001 -85.168 55.001 -152.501v-326h-68v82c-16 -27.333 -39.5 -48.666 -70.5 -63.999s-67.833 -23 -110.5 -23c-58.667 0 -105.334 14 -140.001 42s-52 65 -52 111c0 44.667 16.167 80.667 48.5 108s83.833 41 154.5 41h167v32
c0 45.333 -12.667 79.833 -38 103.5s-62.333 35.5 -111 35.5c-33.333 0 -65.333 -5.5 -96 -16.5s-57 -26.167 -79 -45.5l-32 53c26.667 22.667 58.667 40.167 96 52.5s76.666 18.5 117.999 18.5c68.667 0 121.334 -17.167 158.001 -51.5zM361.001 78.498
c28.667 18.333 50 44.834 64 79.501v86h-165c-90 0 -135 -31.333 -135 -94c0 -30.667 11.667 -54.834 35 -72.501s56 -26.5 98 -26.5c40 0 74.333 9.16699 103 27.5z" />
    <glyph glyph-name="b" unicode="b" horiz-adv-x="678" 
d="M504 496.5c40 -22.333 71.333 -53.832 94 -94.499s34 -87 34 -139s-11.333 -98.333 -34 -139s-54 -72.334 -94 -95.001s-84.667 -34 -134 -34c-44 0 -83.5 9.33301 -118.5 28s-63.167 45.667 -84.5 81v-104h-68v742h71v-316c22 34 50.167 59.833 84.5 77.5
s72.833 26.5 115.5 26.5c49.333 0 94 -11.167 134 -33.5zM465 83.501c30 17 53.5 41.167 70.5 72.5s25.5 67 25.5 107s-8.5 75.667 -25.5 107s-40.5 55.5 -70.5 72.5s-63.333 25.5 -100 25.5c-37.333 0 -70.833 -8.5 -100.5 -25.5s-53 -41.167 -70 -72.5
s-25.5 -67 -25.5 -107s8.5 -75.667 25.5 -107s40.333 -55.5 70 -72.5s63.167 -25.5 100.5 -25.5c36.667 0 70 8.5 100 25.5z" />
    <glyph glyph-name="c" unicode="c" horiz-adv-x="563" 
d="M177.5 29c-41 22.667 -73.168 54.499 -96.501 95.499s-35 87.167 -35 138.5s11.667 97.333 35 138s55.5 72.334 96.5 95.001s87.5 34 139.5 34c45.333 0 85.833 -8.83301 121.5 -26.5s63.834 -43.5 84.501 -77.5l-53 -36c-17.333 26 -39.333 45.5 -66 58.5
s-55.667 19.5 -87 19.5c-38 0 -72.167 -8.5 -102.5 -25.5s-54 -41.167 -71 -72.5s-25.5 -67 -25.5 -107c0 -40.667 8.5 -76.5 25.5 -107.5s40.667 -55 71 -72s64.5 -25.5 102.5 -25.5c31.333 0 60.333 6.33301 87 19s48.667 32 66 58l53 -36
c-20.667 -34 -49 -59.833 -85 -77.5s-76.333 -26.5 -121 -26.5c-52 0 -98.5 11.333 -139.5 34z" />
    <glyph glyph-name="d" unicode="d" horiz-adv-x="678" 
d="M579 742v-742.001h-68v104c-21.333 -35.333 -49.5 -62.333 -84.5 -81s-74.5 -28 -118.5 -28c-49.333 0 -94 11.333 -134 34s-71.333 54.334 -94 95.001s-34 87 -34 139s11.333 98.333 34 139s54 72.167 94 94.5s84.667 33.5 134 33.5
c42.667 0 81.167 -8.83301 115.5 -26.5s62.5 -43.5 84.5 -77.5v316h71zM413.5 83.499c29.667 17 53 41.167 70 72.5s25.5 67 25.5 107s-8.5 75.667 -25.5 107s-40.333 55.5 -70 72.5s-62.834 25.5 -99.501 25.5c-37.333 0 -70.833 -8.5 -100.5 -25.5s-53 -41.167 -70 -72.5
s-25.5 -67 -25.5 -107s8.5 -75.667 25.5 -107s40.333 -55.5 70 -72.5s63.167 -25.5 100.5 -25.5c36.667 0 69.834 8.5 99.501 25.5z" />
    <glyph glyph-name="e" unicode="e" horiz-adv-x="604" 
d="M557 241l-440.001 -0.000976562c4 -54.667 25 -98.834 63 -132.501s86 -50.5 144 -50.5c32.667 0 62.667 5.83301 90 17.5s51 28.834 71 51.501l40 -46c-23.333 -28 -52.5 -49.333 -87.5 -64s-73.5 -22 -115.5 -22c-54 0 -101.833 11.5 -143.5 34.5
s-74.167 54.833 -97.5 95.5s-35 86.667 -35 138s11.167 97.333 33.5 138s53 72.334 92 95.001s82.833 34 131.5 34s92.334 -11.333 131.001 -34s69 -54.167 91 -94.5s33 -86.5 33 -138.5zM175.499 420.499c-34.333 -32.333 -53.834 -74.5 -58.501 -126.5h373
c-4.66699 52 -24.167 94.167 -58.5 126.5s-77.166 48.5 -128.499 48.5c-50.667 0 -93.167 -16.167 -127.5 -48.5z" />
    <glyph glyph-name="f" unicode="f" horiz-adv-x="339" 
d="M203.5 662c-15.667 -16.667 -23.501 -41.332 -23.501 -73.999v-62h162v-60h-160v-466h-71v466h-94v60h94v65c0 48 13.833 86 41.5 114s66.834 42 117.501 42c20 0 39.333 -2.83301 58 -8.5s34.334 -13.834 47.001 -24.501l-24 -53c-20.667 17.333 -46.667 26 -78 26
c-30.667 0 -53.834 -8.33301 -69.501 -25z" />
    <glyph glyph-name="g" unicode="g" horiz-adv-x="686" 
d="M586 526l0.000976562 -461.999c0 -89.333 -21.833 -155.5 -65.5 -198.5s-109.5 -64.5 -197.5 -64.5c-48.667 0 -94.834 7.16699 -138.501 21.5s-79.167 34.166 -106.5 59.499l36 54c25.333 -22.667 56.166 -40.334 92.499 -53.001s74.5 -19 114.5 -19
c66.667 0 115.667 15.5 147 46.5s47 79.167 47 144.5v67c-22 -33.333 -50.833 -58.666 -86.5 -75.999s-75.167 -26 -118.5 -26c-49.333 0 -94.166 10.833 -134.499 32.5s-72 52 -95 91s-34.5 83.167 -34.5 132.5s11.5 93.333 34.5 132s54.5 68.667 94.5 90s85 32 135 32
c44.667 0 85 -9 121 -27s65 -44 87 -78v101h68zM420.001 107.501c30.667 16.333 54.5 39.165 71.5 68.498s25.5 62.666 25.5 99.999s-8.5 70.5 -25.5 99.5s-40.667 51.667 -71 68s-64.833 24.5 -103.5 24.5c-38 0 -72.167 -8 -102.5 -24s-54 -38.667 -71 -68
s-25.5 -62.666 -25.5 -99.999s8.5 -70.666 25.5 -99.999s40.667 -52.166 71 -68.499s64.5 -24.5 102.5 -24.5s72.333 8.16699 103 24.5z" />
    <glyph glyph-name="h" unicode="h" horiz-adv-x="677" 
d="M524.5 472.5c39 -38.333 58.5 -94.1689 58.5 -167.502v-305h-71v298c0 54.667 -13.667 96.334 -41 125.001s-66.333 43 -117 43c-56.667 0 -101.5 -16.833 -134.5 -50.5s-49.5 -80.167 -49.5 -139.5v-276h-71v742h71v-308c19.333 30.667 46 54.334 80 71.001
s73 25 117 25c66 0 118.5 -19.167 157.5 -57.5z" />
    <glyph glyph-name="i" unicode="i" horiz-adv-x="269" 
d="M99 526h71v-526h-71v526zM98 656c-10 10 -15 22 -15 36c0 13.333 5 25 15 35s22.333 15 37 15s27 -4.83301 37 -14.5s15 -21.167 15 -34.5c0 -14.667 -5 -27 -15 -37s-22.333 -15 -37 -15s-27 5 -37 15z" />
    <glyph glyph-name="j" unicode="j" horiz-adv-x="274" 
d="M-41.5 -190.5c-19.667 5.66699 -35.833 14.166 -48.5 25.499l25 54c20.667 -18 48 -27 82 -27c28 0 49.5 8.33301 64.5 25s22.5 41.334 22.5 74.001v565h71v-565c0 -49.333 -13.333 -88.333 -40 -117s-64.667 -43 -114 -43c-22 0 -42.833 2.83301 -62.5 8.5z
M103.001 656.999c-10 10 -15 22 -15 36c0 13.333 5 25 15 35s22.333 15 37 15s27 -4.83301 37 -14.5s15 -21.167 15 -34.5c0 -14.667 -5 -27 -15 -37s-22.333 -15 -37 -15s-27 5 -37 15z" />
    <glyph glyph-name="k" unicode="k" horiz-adv-x="601" 
d="M294 264l-124 -114v-150h-71v742h71v-503l314 287h88l-225 -215l246 -311h-87z" />
    <glyph glyph-name="l" unicode="l" horiz-adv-x="269" 
d="M99 742h71v-742h-71v742z" />
    <glyph glyph-name="m" unicode="m" horiz-adv-x="1061" 
d="M910.5 473c37.667 -38 56.502 -94.002 56.502 -168.002v-305h-71v298c0 54.667 -13.167 96.334 -39.5 125.001s-63.5 43 -111.5 43c-54.667 0 -97.667 -16.833 -129 -50.5s-47 -80.167 -47 -139.5v-276h-71v298c0 54.667 -13.167 96.334 -39.5 125.001
s-63.833 43 -112.5 43c-54 0 -96.833 -16.833 -128.5 -50.5s-47.5 -80.167 -47.5 -139.5v-276h-71v526h68v-96c18.667 32 44.667 56.667 78 74s71.666 26 114.999 26c44 0 82.167 -9.33301 114.5 -28s56.5 -46.334 72.5 -83.001c19.333 34.667 47.166 61.834 83.499 81.501
s77.833 29.5 124.5 29.5c66 0 117.833 -19 155.5 -57z" />
    <glyph glyph-name="n" unicode="n" horiz-adv-x="677" 
d="M524.5 472.5c39 -38.333 58.502 -94.168 58.502 -167.501v-305h-71v298c0 54.667 -13.667 96.334 -41 125.001s-66.333 43 -117 43c-56.667 0 -101.5 -16.833 -134.5 -50.5s-49.5 -80.167 -49.5 -139.5v-276h-71v526h68v-97c19.333 32 46.166 56.833 80.499 74.5
s74.166 26.5 119.499 26.5c66 0 118.5 -19.167 157.5 -57.5z" />
    <glyph glyph-name="o" unicode="o" horiz-adv-x="627" 
d="M177 29.5c-40.667 23 -72.667 54.833 -96 95.5s-35 86.667 -35 138s11.667 97.333 35 138s55.333 72.334 96 95.001s86.334 34 137.001 34s96.334 -11.333 137.001 -34s72.5 -54.334 95.5 -95.001s34.5 -86.667 34.5 -138s-11.5 -97.333 -34.5 -138
s-54.833 -72.5 -95.5 -95.5s-86.334 -34.5 -137.001 -34.5s-96.334 11.5 -137.001 34.5zM414.5 83.5c29.667 17 52.834 41.167 69.501 72.5s25 67 25 107s-8.33301 75.667 -25 107s-39.834 55.5 -69.501 72.5s-63.167 25.5 -100.5 25.5s-70.833 -8.5 -100.5 -25.5
s-53 -41.167 -70 -72.5s-25.5 -67 -25.5 -107s8.5 -75.667 25.5 -107s40.333 -55.5 70 -72.5s63.167 -25.5 100.5 -25.5s70.833 8.5 100.5 25.5z" />
    <glyph glyph-name="p" unicode="p" horiz-adv-x="678" 
d="M504 496.5c40 -22.333 71.334 -53.833 94.001 -94.5s34 -87 34 -139c0 -52.667 -11.333 -99.334 -34 -140.001s-53.834 -72.167 -93.501 -94.5s-84.5 -33.5 -134.5 -33.5c-42.667 0 -81.167 8.83301 -115.5 26.5s-62.5 43.5 -84.5 77.5v-293h-71v720h68v-104
c21.333 34.667 49.5 61.334 84.5 80.001s74.5 28 118.5 28c49.333 0 94 -11.167 134 -33.5zM465.001 83.5c30 17 53.5 41.167 70.5 72.5s25.5 67 25.5 107s-8.5 75.5 -25.5 106.5s-40.5 55.167 -70.5 72.5s-63.333 26 -100 26c-37.333 0 -70.833 -8.66699 -100.5 -26
s-53 -41.5 -70 -72.5s-25.5 -66.5 -25.5 -106.5s8.5 -75.667 25.5 -107s40.333 -55.5 70 -72.5s63.167 -25.5 100.5 -25.5c36.667 0 70 8.5 100 25.5z" />
    <glyph glyph-name="q" unicode="q" horiz-adv-x="678" 
d="M579 526l0.000976562 -720h-71v293c-22 -34 -50.167 -59.833 -84.5 -77.5s-72.833 -26.5 -115.5 -26.5c-50 0 -94.833 11.167 -134.5 33.5s-70.834 53.833 -93.501 94.5s-34 87.334 -34 140.001c0 52 11.333 98.333 34 139s54 72.167 94 94.5s84.667 33.5 134 33.5
c44 0 83.5 -9.33301 118.5 -28s63.167 -45.334 84.5 -80.001v104h68zM413.501 83.5c29.667 17 53 41.167 70 72.5s25.5 67 25.5 107s-8.5 75.5 -25.5 106.5s-40.333 55.167 -70 72.5s-62.834 26 -99.501 26c-37.333 0 -70.833 -8.66699 -100.5 -26s-53 -41.5 -70 -72.5
s-25.5 -66.5 -25.5 -106.5s8.5 -75.667 25.5 -107s40.333 -55.5 70 -72.5s63.167 -25.5 100.5 -25.5c36.667 0 69.834 8.5 99.501 25.5z" />
    <glyph glyph-name="r" unicode="r" horiz-adv-x="401" 
d="M241.5 503c33 18 73.832 27 122.499 27v-69l-17 1c-55.333 0 -98.666 -17 -129.999 -51s-47 -81.667 -47 -143v-268h-71v526h68v-103c16.667 35.333 41.5 62 74.5 80z" />
    <glyph glyph-name="s" unicode="s" horiz-adv-x="489" 
d="M117.5 13.5c-39 12.333 -69.5 27.833 -91.5 46.5l32 56c22 -17.333 49.667 -31.5 83 -42.5s68 -16.5 104 -16.5c48 0 83.5 7.5 106.5 22.5s34.5 36.167 34.5 63.5c0 19.333 -6.33301 34.5 -19 45.5s-28.667 19.333 -48 25s-45 11.167 -77 16.5
c-42.667 8 -77 16.167 -103 24.5s-48.167 22.5 -66.5 42.5s-27.5 47.667 -27.5 83c0 44 18.333 80 55 108s87.667 42 153 42c34 0 68 -4.5 102 -13.5s62 -20.833 84 -35.5l-31 -57c-43.333 30 -95 45 -155 45c-45.333 0 -79.5 -8 -102.5 -24s-34.5 -37 -34.5 -63
c0 -20 6.5 -36 19.5 -48s29.167 -20.833 48.5 -26.5s46 -11.5 80 -17.5c42 -8 75.667 -16 101 -24s47 -21.667 65 -41s27 -46 27 -80c0 -46 -19.167 -82.5 -57.5 -109.5s-91.5 -40.5 -159.5 -40.5c-42.667 0 -83.5 6.16699 -122.5 18.5z" />
    <glyph glyph-name="t" unicode="t" horiz-adv-x="406" 
d="M376 32c-13.333 -12 -29.834 -21.1699 -49.501 -27.5029s-40.167 -9.5 -61.5 -9.5c-49.333 0 -87.333 13.333 -114 40s-40 64.334 -40 113.001v318h-94v60h94v115h71v-115h160v-60h-160v-314c0 -31.333 7.83301 -55.166 23.5 -71.499s38.167 -24.5 67.5 -24.5
c14.667 0 28.834 2.33301 42.501 7s25.5 11.334 35.5 20.001z" />
    <glyph glyph-name="u" unicode="u" horiz-adv-x="673" 
d="M573 526l0.00195312 -526h-68v96c-18.667 -32 -44.334 -56.833 -77.001 -74.5s-70 -26.5 -112 -26.5c-68.667 0 -122.834 19.167 -162.501 57.5s-59.5 94.5 -59.5 168.5v305h71v-298c0 -55.333 13.667 -97.333 41 -126s66.333 -43 117 -43c55.333 0 99 16.833 131 50.5
s48 80.5 48 140.5v276h71z" />
    <glyph glyph-name="v" unicode="v" horiz-adv-x="542" 
d="M541 526l-234 -526h-73l-233 526h74l197 -448l199 448h70z" />
    <glyph glyph-name="w" unicode="w" horiz-adv-x="879" 
d="M871 526l-199 -526h-67l-166 431l-166 -431h-67l-198 526h68l165 -447l169 447h61l168 -447l167 447h65z" />
    <glyph glyph-name="x" unicode="x" horiz-adv-x="534" 
d="M434 0l-167 220l-168 -220h-80l208 270l-198 256h80l158 -206l158 206h78l-198 -256l210 -270h-81z" />
    <glyph glyph-name="y" unicode="y" horiz-adv-x="542" 
d="M541 526l-263 -589c-21.333 -49.333 -46 -84.333 -74 -105s-61.667 -31 -101 -31c-25.333 0 -49 4 -71 12s-41 20 -57 36l33 53c26.667 -26.667 58.667 -40 96 -40c24 0 44.5 6.66699 61.5 20s32.833 36 47.5 68l23 51l-235 525h74l198 -447l198 447h70z" />
    <glyph glyph-name="z" unicode="z" horiz-adv-x="511" 
d="M470 59v-59h-428v47l331 419h-325v60h416v-47l-331 -420h337z" />
    <glyph glyph-name="braceleft" unicode="{" horiz-adv-x="334" 
d="M199 301c-7.33301 -12 -19.333 -21 -36 -27c16.667 -6 28.667 -15 36 -27s11 -30.333 11 -55v-247c0 -53.333 25.333 -80 76 -80h27v-59h-37c-91.333 0 -137 44.333 -137 133v254c0 34 -15 51 -45 51h-34v60h34c30 0 45 17 45 51v254c0 88.667 45.667 133 137 133h37v-59
h-27c-50.667 0 -76 -26.667 -76 -80v-247c0 -24.667 -3.66699 -43 -11 -55z" />
    <glyph glyph-name="bar" unicode="|" horiz-adv-x="295" 
d="M114 742h66v-936h-66v936z" />
    <glyph glyph-name="braceright" unicode="}" horiz-adv-x="334" 
d="M274 304v-60h-34c-30 0 -45 -17 -45 -51v-254c0 -88.667 -45.333 -133 -136 -133h-38v59h27c50.667 0 76 26.667 76 80v247c0 24.667 3.66699 43 11 55s19.333 21 36 27c-16.667 6 -28.667 15 -36 27s-11 30.333 -11 55v247c0 53.333 -25.333 80 -76 80h-27v59h38
c90.667 0 136 -44.333 136 -133v-254c0 -34 15 -51 45 -51h34z" />
    <glyph glyph-name="asciitilde" unicode="~" horiz-adv-x="575" 
d="M330 286.5c-16.667 9.66699 -36.334 23.834 -59.001 42.501c-18 15.333 -32.833 26.5 -44.5 33.5s-24.5 10.5 -38.5 10.5c-23.333 0 -41.833 -8.5 -55.5 -25.5s-21.167 -40.167 -22.5 -69.5h-48c1.33301 48.667 13.166 86 35.499 112s51.833 39 88.5 39
c22.667 0 42.334 -4.83301 59.001 -14.5s36.334 -23.834 59.001 -42.501c17.333 -15.333 32 -26.666 44 -33.999s25 -11 39 -11c23.333 0 41.833 8.66699 55.5 26s21.167 40.666 22.5 69.999h48c-1.33301 -48.667 -13.166 -86 -35.499 -112s-51.833 -39 -88.5 -39
c-22.667 0 -42.334 4.83301 -59.001 14.5z" />
    <glyph glyph-name="uni00A0" unicode="&#xa0;" horiz-adv-x="262" 
 />
    <glyph glyph-name="exclamdown" unicode="&#xa1;" horiz-adv-x="260" 
d="M167 515c10 -10 15 -22.333 15 -37c0 -14 -5 -26 -15 -36s-22.333 -15 -37 -15s-27.167 5 -37.5 15s-15.5 22 -15.5 36c0 14.667 5.16699 27 15.5 37s22.833 15 37.5 15s27 -5 37 -15zM172 -154h-84l14 469h55z" />
    <glyph glyph-name="cent" unicode="&#xa2;" horiz-adv-x="563" 
d="M412 81c23.333 12.667 42.6689 30.666 58.002 53.999l53 -36c-19.333 -31.333 -45.333 -55.833 -78 -73.5s-69.334 -27.5 -110.001 -29.5v-116h-49v116c-46.667 4.66699 -88.167 19 -124.5 43s-64.666 55.333 -84.999 94s-30.5 82 -30.5 130s10.167 91.333 30.5 130
s48.666 69.834 84.999 93.501s77.833 37.834 124.5 42.501v117h49v-116c41.333 -2.66699 78.166 -12.834 110.499 -30.501s58.166 -42.167 77.499 -73.5l-53 -36c-15.333 23.333 -34.666 41.5 -57.999 54.5s-49 20.5 -77 22.5v-408c28 2 53.667 9.33301 77 22z
M164.503 124.499c31 -36.333 71.5 -57.832 121.5 -64.499v406c-50 -6.66699 -90.5 -28.334 -121.5 -65.001s-46.5 -82.667 -46.5 -138c0 -56 15.5 -102.167 46.5 -138.5z" />
    <glyph glyph-name="sterling" unicode="&#xa3;" horiz-adv-x="637" 
d="M216 64h392v-64h-578v64h113v261h-113v50h113v84c0 76 24 136.167 72 180.5s116.667 66.5 206 66.5c82 0 148.667 -17.667 200 -53l-27 -61c-44 32 -103.667 48 -179 48c-66 0 -115.667 -15.5 -149 -46.5s-50 -75.833 -50 -134.5v-84h277v-50h-277v-261z" />
    <glyph glyph-name="currency" unicode="&#xa4;" horiz-adv-x="700" 
d="M609.5 227.5c-11 -29 -26.832 -55.167 -47.499 -78.5l104 -104l-42 -45l-107 107c-48 -36.667 -103.667 -55 -167 -55c-30.667 0 -60.334 4.83301 -89.001 14.5s-54.667 23.167 -78 40.5l-108 -107l-41 45l104 104c-20 23.333 -35.333 49.5 -46 78.5s-16 59.167 -16 90.5
c0 62.667 20.333 119 61 169l-103 103l41 45l107 -106c23.333 18 49.333 32 78 42s58.667 15 90 15c30.667 0 60.5 -4.83301 89.5 -14.5s55.5 -23.5 79.5 -41.5l105 105l42 -45l-103 -103c20 -23.333 35.5 -49.5 46.5 -78.5s16.5 -59.167 16.5 -90.5s-5.5 -61.5 -16.5 -90.5
zM164.001 215c19.333 -31.333 45.5 -56.333 78.5 -75s68.833 -28 107.5 -28c39.333 0 75.5 9.33301 108.5 28s59.333 43.667 79 75s29.5 65.666 29.5 102.999s-9.83301 72 -29.5 104s-46.167 57.333 -79.5 76s-69.333 28 -108 28s-74.5 -9.33301 -107.5 -28
s-59.167 -44 -78.5 -76s-29 -66.667 -29 -104s9.66699 -71.666 29 -102.999z" />
    <glyph glyph-name="yen" unicode="&#xa5;" horiz-adv-x="695" 
d="M409 312h195v-44h-220v-94h220v-44h-220v-130h-73v130h-220v44h220v94h-220v44h195l-285 388h78l270 -365l269 365h76z" />
    <glyph glyph-name="brokenbar" unicode="&#xa6;" horiz-adv-x="295" 
d="M114 742h66v-350h-66v350zM114 156h66v-350h-66v350z" />
    <glyph glyph-name="section" unicode="&#xa7;" horiz-adv-x="490" 
d="M432 212.5c-14.667 -22.333 -34.334 -39.8291 -59.001 -52.4961c39.333 -24.667 59 -61.334 59 -110.001c0 -47.333 -18.5 -85 -55.5 -113s-85.833 -42 -146.5 -42c-38 0 -76 6.16699 -114 18.5s-67.333 28.166 -88 47.499l25 55c20.667 -18 47.167 -33 79.5 -45
s65.5 -18 99.5 -18c42.667 0 75.834 8.16699 99.501 24.5s35.5 40.166 35.5 71.499c0 21.333 -6.33301 38.5 -19 51.5s-28.334 22.833 -47.001 29.5s-44.667 14.334 -78 23.001c-40 10 -72.167 19.833 -96.5 29.5s-45 24.667 -62 45s-25.5 47.833 -25.5 82.5
c0 28.667 7.33301 54.167 22 76.5s34.667 40.166 60 53.499c-18.667 12 -33.167 26.667 -43.5 44s-15.5 39 -15.5 65c0 48 19.167 86 57.5 114s91.5 42 159.5 42c32 0 65 -4.66699 99 -14s61.333 -21.666 82 -36.999l-25 -54c-44 31.333 -97.667 47 -161 47
c-48 0 -84.667 -8.16699 -110 -24.5s-38 -40.166 -38 -71.499c0 -20.667 6.16699 -37.334 18.5 -50.001s27.833 -22.334 46.5 -29.001s44.334 -14.334 77.001 -23.001c40 -10.667 72.333 -21 97 -31s45.667 -25.333 63 -46s26 -48.667 26 -84
c0 -28 -7.33301 -53.167 -22 -75.5zM368 224.504c15.333 17 23.001 38.167 23.001 63.5c0 22 -6.5 39.833 -19.5 53.5s-29 24.167 -48 31.5s-45.5 15.333 -79.5 24c-22 4.66699 -41 9.66699 -57 15c-25.333 -7.33301 -45.833 -19.5 -61.5 -36.5s-23.5 -37.833 -23.5 -62.5
c0 -22 6.5 -39.833 19.5 -53.5s29.167 -24.167 48.5 -31.5s46 -15.333 80 -24c18.667 -4 37.667 -9 57 -15c25.333 6.66699 45.666 18.5 60.999 35.5z" />
    <glyph glyph-name="dieresis" unicode="&#xa8;" horiz-adv-x="600" 
d="M180.5 642c-8.33301 8 -12.5 18.333 -12.5 31c0 12 4.16699 22.167 12.5 30.5s18.5 12.5 30.5 12.5c11.333 0 21.333 -4.16699 30 -12.5s13 -18.5 13 -30.5s-4.16699 -22.167 -12.5 -30.5s-18.5 -12.5 -30.5 -12.5s-22.167 4 -30.5 12zM358.5 642.5
c-8.33301 8.33301 -12.5 18.5 -12.5 30.5s4.33301 22.167 13 30.5s18.667 12.5 30 12.5c12 0 22.167 -4.16699 30.5 -12.5s12.5 -18.5 12.5 -30.5c0 -12.667 -4.16699 -23 -12.5 -31s-18.5 -12 -30.5 -12s-22.167 4.16699 -30.5 12.5z" />
    <glyph glyph-name="copyright" unicode="&#xa9;" horiz-adv-x="809" 
d="M225.5 44c-53.667 31.333 -96.001 73.999 -127.001 127.999s-46.5 113.333 -46.5 178s15.5 124 46.5 178s73.5 96.667 127.5 128s114 47 180 47s125.833 -15.333 179.5 -46s95.834 -72.834 126.501 -126.501s46 -113.167 46 -178.5s-15.667 -125.166 -47 -179.499
s-74 -97.166 -128 -128.499s-113.667 -47 -179 -47s-124.833 15.667 -178.5 47zM563.999 76.499c48 28.333 85.999 66.665 113.999 114.998s42 101.833 42 160.5s-13.667 111.834 -41 159.501s-64.833 85.334 -112.5 113.001s-101.167 41.5 -160.5 41.5
s-113.166 -14 -161.499 -42s-86.333 -66.167 -114 -114.5s-41.5 -101.5 -41.5 -159.5s13.833 -111.167 41.5 -159.5s65.5 -86.5 113.5 -114.5s101.333 -42 160 -42s112 14.167 160 42.5zM306.498 168.498c-31.667 17.667 -56.5 42.3369 -74.5 74.0039s-27 67.5 -27 107.5
s9 75.833 27 107.5s42.833 56.334 74.5 74.001s67.167 26.5 106.5 26.5c34 0 64.833 -6.83301 92.5 -20.5s49.834 -32.5 66.501 -56.5l-43 -32c-14 19.333 -31 33.666 -51 42.999s-42 14 -66 14c-43.333 0 -79.166 -14.333 -107.499 -43s-42.5 -66.334 -42.5 -113.001
s14.167 -84.334 42.5 -113.001s64.166 -43 107.499 -43c24 0 46 4.66699 66 14s37 23.666 51 42.999l43 -31c-16.667 -24.667 -38.834 -43.834 -66.501 -57.501s-58.5 -20.5 -92.5 -20.5c-39.333 0 -74.833 8.83301 -106.5 26.5z" />
    <glyph glyph-name="ordfeminine" unicode="&#xaa;" horiz-adv-x="401" 
d="M294 715c24 -20.667 35.999 -51.667 35.999 -93v-192h-49v48c-10 -15.333 -25 -27.666 -45 -36.999s-44 -14 -72 -14c-39.333 0 -69.666 8.33301 -90.999 25s-32 38.667 -32 66s10.5 49.166 31.5 65.499s54.167 24.5 99.5 24.5h105v16c0 27.333 -7.66699 47.5 -23 60.5
s-38.333 19.5 -69 19.5c-22 0 -42.833 -3.33301 -62.5 -10s-36.5 -15.667 -50.5 -27l-21 35c17.333 13.333 38.333 24 63 32s50 12 76 12c45.333 0 80 -10.333 104 -31zM276.999 522l-0.000976562 51h-99c-30 0 -52 -4.66699 -66 -14s-21 -22 -21 -38
c0 -18 7.33301 -32 22 -42s35.334 -15 62.001 -15c50 0 84 19.333 102 58z" />
    <glyph glyph-name="guillemotleft" unicode="&#xab;" horiz-adv-x="477" 
d="M50 263l145 190h66l-142 -190l142 -189h-66zM228 263l145 190h66l-142 -190l142 -189h-66z" />
    <glyph glyph-name="logicalnot" unicode="&#xac;" horiz-adv-x="575" 
d="M505 141h-63v180h-372v59h435v-239z" />
    <glyph glyph-name="uni00AD" unicode="&#xad;" horiz-adv-x="382" 
d="M60 302h262v-62h-262v62z" />
    <glyph glyph-name="registered" unicode="&#xae;" horiz-adv-x="809" 
d="M585.5 657c53.667 -30.667 95.833 -72.835 126.5 -126.502s46 -113.167 46 -178.5s-15.667 -125.166 -47 -179.499s-74 -97.166 -128 -128.499s-113.667 -47 -179 -47s-124.833 15.667 -178.5 47s-96 74 -127 128s-46.5 113.333 -46.5 178s15.5 124 46.5 178
s73.5 96.667 127.5 128s114 47 180 47s125.833 -15.333 179.5 -46zM563.999 76.499c48 28.333 85.999 66.665 113.999 114.998s42 101.833 42 160.5s-13.667 111.834 -41 159.501s-64.833 85.334 -112.5 113.001s-101.167 41.5 -160.5 41.5s-113.166 -14 -161.499 -42
s-86.333 -66.167 -114 -114.5s-41.5 -101.5 -41.5 -159.5s13.833 -111.167 41.5 -159.5s65.5 -86.5 113.5 -114.5s101.333 -42 160 -42s112 14.167 160 42.5zM559.498 339.498c-15.667 -21.667 -37.833 -37.499 -66.5 -47.499l94 -144h-54l-87 135
c-5.33301 -0.666992 -13 -1 -23 -1h-104v-134h-52v404h156c49.333 0 88.333 -12 117 -36s43 -56.667 43 -98c0 -30.667 -7.83301 -56.834 -23.5 -78.501zM502.499 349.999c19.667 16 29.5 38.666 29.5 67.999c0 28.667 -9.83301 50.834 -29.5 66.501
s-47.167 23.5 -82.5 23.5h-102v-182h102c35.333 0 62.833 8 82.5 24z" />
    <glyph glyph-name="macron" unicode="&#xaf;" horiz-adv-x="600" 
d="M146 692h308v-47h-308v47z" />
    <glyph glyph-name="degree" unicode="&#xb0;" horiz-adv-x="419" 
d="M128.5 409c-24.333 14 -43.5 33.167 -57.5 57.5s-21 51.166 -21 80.499c0 28.667 7 55.167 21 79.5s33.167 43.5 57.5 57.5s51.166 21 80.499 21s56.333 -7 81 -21s44 -33.167 58 -57.5s21 -50.833 21 -79.5c0 -29.333 -7 -56.166 -21 -80.499s-33.333 -43.5 -58 -57.5
s-51.667 -21 -81 -21s-56.166 7 -80.499 21zM291.5 463.5c22.333 22.333 33.5 50.166 33.5 83.499c0 32.667 -11.167 60.167 -33.5 82.5s-49.833 33.5 -82.5 33.5s-60 -11.167 -82 -33.5s-33 -49.833 -33 -82.5c0 -33.333 11 -61.166 33 -83.499s49.333 -33.5 82 -33.5
s60.167 11.167 82.5 33.5z" />
    <glyph glyph-name="plusminus" unicode="&#xb1;" horiz-adv-x="575" 
d="M505 412v-60h-186v-179h-63v179h-186v60h186v179h63v-179h186zM70 59h435v-59h-435v59z" />
    <glyph glyph-name="uni00B2" unicode="&#xb2;" horiz-adv-x="430" 
d="M376 372l-0.000976562 -45h-328v35l190 168c24.667 22 41.5 40.167 50.5 54.5s13.5 29.166 13.5 44.499c0 20.667 -9.16699 37.667 -27.5 51s-46.166 20 -83.499 20c-26 0 -49.5 -4 -70.5 -12s-38.167 -19.333 -51.5 -34l-37 29c34.667 42 88.667 63 162 63
c52 0 92 -10.667 120 -32s42 -48.666 42 -81.999c0 -21.333 -5.5 -41.5 -16.5 -60.5s-31.5 -41.833 -61.5 -68.5l-148 -131h246z" />
    <glyph glyph-name="uni00B3" unicode="&#xb3;" horiz-adv-x="430" 
d="M336.5 531c25.667 -21.333 38.5 -49.334 38.5 -84.001c0 -36 -15.167 -65.667 -45.5 -89s-72.833 -35 -127.5 -35c-36 0 -69.5 4.83301 -100.5 14.5s-54.5 22.5 -70.5 38.5l23 40c15.333 -14 36.166 -25.333 62.499 -34s54.833 -13 85.5 -13c39.333 0 69 7 89 21
s30 33 30 57c0 24.667 -9.66699 43.834 -29 57.501s-48.666 20.5 -87.999 20.5h-42v37l125 135h-245v45h313v-35l-128 -140c47.333 -2.66699 83.833 -14.667 109.5 -36z" />
    <glyph glyph-name="acute" unicode="&#xb4;" horiz-adv-x="600" 
d="M372 731h95l-162 -124h-70z" />
    <glyph glyph-name="uni00B5" unicode="&#xb5;" horiz-adv-x="678" 
d="M579 526l0.000976562 -526.001h-68v98c-17.333 -34 -42 -59.667 -74 -77s-67.667 -26 -107 -26c-36 0 -67.5 6.33301 -94.5 19s-48.833 31.334 -65.5 56.001v-264h-71v720h71v-298c0 -55.333 13.667 -97.333 41 -126s66.666 -43 117.999 -43c54.667 0 98.167 17 130.5 51
s48.5 80.667 48.5 140v276h71z" />
    <glyph glyph-name="paragraph" unicode="&#xb6;" horiz-adv-x="632" 
d="M226 395c-61.333 0.666992 -110.833 16.667 -148.5 48s-56.5 73.333 -56.5 126c0 53.333 19.5 95.5 58.5 126.5s91.167 46.5 156.5 46.5h282v-842h-60v786h-172v-786h-60v495z" />
    <glyph glyph-name="periodcentered" unicode="&#xb7;" horiz-adv-x="252" 
d="M88 231.5c-10 10.333 -15 23.5 -15 39.5s5 29.167 15 39.5s22.667 15.5 38 15.5s28.166 -5.16699 38.499 -15.5s15.5 -23.5 15.5 -39.5s-5.16699 -29.167 -15.5 -39.5s-23.166 -15.5 -38.499 -15.5s-28 5.16699 -38 15.5z" />
    <glyph glyph-name="cedilla" unicode="&#xb8;" horiz-adv-x="600" 
d="M194 -197l17 38.001c19.333 -12.667 41.333 -19 66 -19c20 0 35.333 4 46 12s16 19.667 16 35c0 14 -5.16699 25.167 -15.5 33.5s-25.833 12.5 -46.5 12.5h-23l24 91h43l-15 -58c27.333 -2.66699 48.333 -11.167 63 -25.5s22 -32.833 22 -55.5
c0 -26.667 -10.333 -47.834 -31 -63.501s-48 -23.5 -82 -23.5c-32.667 0 -60.667 7.66699 -84 23z" />
    <glyph glyph-name="uni00B9" unicode="&#xb9;" horiz-adv-x="430" 
d="M368 372v-45h-284v45h121v325h-114v45h169v-370h108z" />
    <glyph glyph-name="ordmasculine" unicode="&#xba;" horiz-adv-x="414" 
d="M118.5 447.5c-26.333 13.667 -47 32.667 -62 57s-22.5 51.833 -22.5 82.5s7.5 58 22.5 82s35.667 42.833 62 56.5s55.833 20.5 88.5 20.5s62.167 -6.83301 88.5 -20.5s47 -32.5 62 -56.5s22.5 -51.333 22.5 -82s-7.5 -58.167 -22.5 -82.5s-35.667 -43.333 -62 -57
s-55.833 -20.5 -88.5 -20.5s-62.167 6.83301 -88.5 20.5zM294.5 504c22.333 21.333 33.5 49 33.5 83s-11.333 61.667 -34 83s-51.667 32 -87 32s-64.333 -10.667 -87 -32s-34 -49 -34 -83s11.167 -61.667 33.5 -83s51.5 -32 87.5 -32s65.167 10.667 87.5 32z" />
    <glyph glyph-name="guillemotright" unicode="&#xbb;" horiz-adv-x="477" 
d="M38 74l142 189l-142 190h66l145 -190l-145 -189h-66zM216 74l142 189l-142 190h66l145 -190l-145 -189h-66z" />
    <glyph glyph-name="onequarter" unicode="&#xbc;" horiz-adv-x="1029" 
d="M368 330v-45h-284v45h121v325h-114v45h169v-370h108zM724 700h59l-478 -700h-59zM999 106h-88v-106h-52v106h-233v36l206 273h60l-201 -265h172v91h48v-91h88v-44z" />
    <glyph glyph-name="onehalf" unicode="&#xbd;" horiz-adv-x="1029" 
d="M368 330v-45h-284v45h121v325h-114v45h169v-370h108zM724 700h59l-478 -700h-59zM975 45l-0.000976562 -45h-328v35l190 168c24.667 22 41.5 40.167 50.5 54.5s13.5 29.166 13.5 44.499c0 20.667 -9.16699 37.667 -27.5 51s-46.166 20 -83.499 20
c-26 0 -49.5 -4 -70.5 -12s-38.167 -19.333 -51.5 -34l-37 29c34.667 42 88.667 63 162 63c52 0 92 -10.667 120 -32s42 -48.666 42 -81.999c0 -21.333 -5.5 -41.5 -16.5 -60.5s-31.5 -41.833 -61.5 -68.5l-148 -131h246z" />
    <glyph glyph-name="threequarters" unicode="&#xbe;" horiz-adv-x="1029" 
d="M336.5 489c25.667 -21.333 38.5 -49.334 38.5 -84.001c0 -36 -15.167 -65.667 -45.5 -89s-72.833 -35 -127.5 -35c-36 0 -69.5 4.83301 -100.5 14.5s-54.5 22.5 -70.5 38.5l23 40c15.333 -14 36.166 -25.333 62.499 -34s54.833 -13 85.5 -13c39.333 0 69 7 89 21
s30 33 30 57c0 24.667 -9.66699 43.834 -29 57.501s-48.666 20.5 -87.999 20.5h-42v37l125 135h-245v45h313v-35l-128 -140c47.333 -2.66699 83.833 -14.667 109.5 -36zM724 699.999h59l-478 -700h-59zM999 105.999h-88v-106h-52v106h-233v36l206 273h60l-201 -265h172v91
h48v-91h88v-44z" />
    <glyph glyph-name="questiondown" unicode="&#xbf;" horiz-adv-x="567" 
d="M258 442c-10 10 -15 22 -15 36c0 14.667 5 27 15 37s22.333 15 37 15s27 -5 37 -15s15 -22.333 15 -37c0 -14 -5 -26 -15 -36s-22.333 -15 -37 -15s-27 5 -37 15zM184 -139c-34.667 14 -61.5 33.6699 -80.5 59.0029s-28.5 54.666 -28.5 87.999c0 26.667 4.5 50 13.5 70
s20 37 33 51s30.167 30 51.5 48c28.667 24.667 50 46.667 64 66s21 43.333 21 72h74c0 -26 -4.5 -48.833 -13.5 -68.5s-20 -36.334 -33 -50.001s-30.5 -29.834 -52.5 -48.501c-28.667 -24.667 -49.834 -46.167 -63.501 -64.5s-20.5 -40.833 -20.5 -67.5
c0 -32.667 14.5 -59.667 43.5 -81s68.167 -32 117.5 -32c82.667 0 146.334 27 191.001 81l53 -40c-56.667 -69.333 -139.667 -104 -249 -104c-46 0 -86.333 7 -121 21z" />
    <glyph glyph-name="Agrave" unicode="&#xc0;" horiz-adv-x="717" 
d="M553 187h-390l-84 -187h-77l320 700h73l320 -700h-78zM526 247l-168 376l-168 -376h336zM192 881h95l137 -124h-70z" />
    <glyph glyph-name="Aacute" unicode="&#xc1;" horiz-adv-x="717" 
d="M553 187h-390l-84 -187h-77l320 700h73l320 -700h-78zM526 247l-168 376l-168 -376h336zM431 881h95l-162 -124h-70z" />
    <glyph glyph-name="Acircumflex" unicode="&#xc2;" horiz-adv-x="717" 
d="M553 187h-390l-84 -187h-77l320 700h73l320 -700h-78zM526 247l-168 376l-168 -376h336zM458 757l-99 83l-99 -83h-66l129 124h72l129 -124h-66z" />
    <glyph glyph-name="Atilde" unicode="&#xc3;" horiz-adv-x="717" 
d="M553 187h-390l-84 -187h-77l320 700h73l320 -700h-78zM526 247l-168 376l-168 -376h336zM386 773.5c-12 7 -25 16.834 -39 29.501c-12 10 -21.5 17.167 -28.5 21.5s-14.5 6.5 -22.5 6.5c-15.333 0 -27.666 -5.66699 -36.999 -17s-14.333 -27 -15 -47h-43
c1.33301 33.333 10 60 26 80s37.333 30 64 30c15.333 0 28.833 -3.33301 40.5 -10s25.167 -16.667 40.5 -30c10.667 -9.33301 19.667 -16.333 27 -21s15 -7 23 -7c14.667 0 26.667 5.5 36 16.5s14.666 26.167 15.999 45.5h43c-1.33301 -32.667 -10 -58.834 -26 -78.501
s-37.333 -29.5 -64 -29.5c-15.333 0 -29 3.5 -41 10.5z" />
    <glyph glyph-name="Adieresis" unicode="&#xc4;" horiz-adv-x="717" 
d="M553 187h-390l-84 -187h-77l320 700h73l320 -700h-78zM526 247l-168 376l-168 -376h336zM239.5 792c-8.33301 8 -12.5 18.333 -12.5 31c0 12 4.16699 22.167 12.5 30.5s18.5 12.5 30.5 12.5c11.333 0 21.333 -4.16699 30 -12.5s13 -18.5 13 -30.5
s-4.16699 -22.167 -12.5 -30.5s-18.5 -12.5 -30.5 -12.5s-22.167 4 -30.5 12zM417.5 792.5c-8.33301 8.33301 -12.5 18.5 -12.5 30.5s4.33301 22.167 13 30.5s18.667 12.5 30 12.5c12 0 22.167 -4.16699 30.5 -12.5s12.5 -18.5 12.5 -30.5c0 -12.667 -4.16699 -23 -12.5 -31
s-18.5 -12 -30.5 -12s-22.167 4.16699 -30.5 12.5z" />
    <glyph glyph-name="Aring" unicode="&#xc5;" horiz-adv-x="717" 
d="M553 187h-390l-84 -187h-77l320 700h73l320 -700h-78zM526 247l-168 376l-168 -376h336zM283.5 800c-19.667 20 -29.499 44 -29.499 72c0 28.667 10 53.334 30 74.001s44.667 31 74 31s54.166 -10.333 74.499 -31s30.5 -45.334 30.5 -74.001c0 -28 -10 -52 -30 -72
s-45 -30 -75 -30s-54.833 10 -74.5 30zM407.001 824c12.667 12.667 19 28.667 19 48s-6.5 35.833 -19.5 49.5s-29.167 20.5 -48.5 20.5s-35.333 -6.66699 -48 -20s-19 -30 -19 -50c0 -19.333 6.16699 -35.333 18.5 -48s28.5 -19 48.5 -19s36.333 6.33301 49 19z" />
    <glyph glyph-name="AE" unicode="&#xc6;" horiz-adv-x="1033" 
d="M973 64v-64h-494v187h-287l-113 -187h-77l427 700h529v-64h-406v-249h363v-63h-363v-260h421zM479 247v389h-15l-236 -389h251z" />
    <glyph glyph-name="Ccedilla" unicode="&#xc7;" horiz-adv-x="719" 
d="M230.5 40c-55.667 30.667 -99.333 73.168 -131 127.501s-47.5 115.166 -47.5 182.499s15.833 128.166 47.5 182.499s75.5 96.833 131.5 127.5s118.667 46 188 46c52 0 100 -8.66699 144 -26s81.333 -42.666 112 -75.999l-47 -47c-54.667 55.333 -123.667 83 -207 83
c-55.333 0 -105.666 -12.667 -150.999 -38s-80.833 -60 -106.5 -104s-38.5 -93.333 -38.5 -148s12.833 -104 38.5 -148s61.167 -78.667 106.5 -104s95.666 -38 150.999 -38c84 0 153 28 207 84l47 -47c-30.667 -33.333 -68.167 -58.833 -112.5 -76.5
s-92.5 -26.5 -144.5 -26.5c-69.333 0 -131.833 15.333 -187.5 46zM298.001 -196.999l17 38.001c19.333 -12.667 41.333 -19 66 -19c20 0 35.333 4 46 12s16 19.667 16 35c0 14 -5.16699 25.167 -15.5 33.5s-25.833 12.5 -46.5 12.5h-23l24 91h43l-15 -58
c27.333 -2.66699 48.333 -11.167 63 -25.5s22 -32.833 22 -55.5c0 -26.667 -10.333 -47.834 -31 -63.501s-48 -23.5 -82 -23.5c-32.667 0 -60.667 7.66699 -84 23z" />
    <glyph glyph-name="Egrave" unicode="&#xc8;" horiz-adv-x="669" 
d="M609 64v-64h-495v700h480v-64h-406v-249h362v-63h-362v-260h421zM188 881h95l137 -124h-70z" />
    <glyph glyph-name="Eacute" unicode="&#xc9;" horiz-adv-x="669" 
d="M609 64v-64h-495v700h480v-64h-406v-249h362v-63h-362v-260h421zM427 881h95l-162 -124h-70z" />
    <glyph glyph-name="Ecircumflex" unicode="&#xca;" horiz-adv-x="669" 
d="M609 64v-64h-495v700h480v-64h-406v-249h362v-63h-362v-260h421zM454 757l-99 83l-99 -83h-66l129 124h72l129 -124h-66z" />
    <glyph glyph-name="Edieresis" unicode="&#xcb;" horiz-adv-x="669" 
d="M609 64v-64h-495v700h480v-64h-406v-249h362v-63h-362v-260h421zM235.5 792c-8.33301 8 -12.5 18.333 -12.5 31c0 12 4.16699 22.167 12.5 30.5s18.5 12.5 30.5 12.5c11.333 0 21.333 -4.16699 30 -12.5s13 -18.5 13 -30.5s-4.16699 -22.167 -12.5 -30.5
s-18.5 -12.5 -30.5 -12.5s-22.167 4 -30.5 12zM413.5 792.5c-8.33301 8.33301 -12.5 18.5 -12.5 30.5s4.33301 22.167 13 30.5s18.667 12.5 30 12.5c12 0 22.167 -4.16699 30.5 -12.5s12.5 -18.5 12.5 -30.5c0 -12.667 -4.16699 -23 -12.5 -31s-18.5 -12 -30.5 -12
s-22.167 4.16699 -30.5 12.5z" />
    <glyph glyph-name="Igrave" unicode="&#xcc;" horiz-adv-x="302" 
d="M114 700h74v-700h-74v700zM-16 881h95l137 -124h-70z" />
    <glyph glyph-name="Iacute" unicode="&#xcd;" horiz-adv-x="302" 
d="M114 700h74v-700h-74v700zM223 881h95l-162 -124h-70z" />
    <glyph glyph-name="Icircumflex" unicode="&#xce;" horiz-adv-x="302" 
d="M114 700h74v-700h-74v700zM250 757l-99 83l-99 -83h-66l129 124h72l129 -124h-66z" />
    <glyph glyph-name="Idieresis" unicode="&#xcf;" horiz-adv-x="302" 
d="M114 700h74v-700h-74v700zM31.5 792c-8.33301 8 -12.5 18.333 -12.5 31c0 12 4.16699 22.167 12.5 30.5s18.5 12.5 30.5 12.5c11.333 0 21.333 -4.16699 30 -12.5s13 -18.5 13 -30.5s-4.16699 -22.167 -12.5 -30.5s-18.5 -12.5 -30.5 -12.5s-22.167 4 -30.5 12z
M209.5 792.5c-8.33301 8.33301 -12.5 18.5 -12.5 30.5s4.33301 22.167 13 30.5s18.667 12.5 30 12.5c12 0 22.167 -4.16699 30.5 -12.5s12.5 -18.5 12.5 -30.5c0 -12.667 -4.16699 -23 -12.5 -31s-18.5 -12 -30.5 -12s-22.167 4.16699 -30.5 12.5z" />
    <glyph glyph-name="Eth" unicode="&#xd0;" horiz-adv-x="831" 
d="M119 700h285c74 0 139.333 -14.833 196 -44.5s100.667 -71 132 -124s47 -113.5 47 -181.5s-15.667 -128.5 -47 -181.5s-75.333 -94.333 -132 -124s-122 -44.5 -196 -44.5h-285v700zM400 64c61.333 0 115 12.167 161 36.5s81.667 58 107 101s38 92.5 38 148.5
s-12.667 105.5 -38 148.5s-61 76.667 -107 101s-99.667 36.5 -161 36.5h-207v-572h207zM13 386h388v-59h-388v59z" />
    <glyph glyph-name="Ntilde" unicode="&#xd1;" horiz-adv-x="813" 
d="M699 700v-700h-61l-450 568v-568h-74v700h61l451 -568v568h73zM433 773.5c-12 7 -25 16.834 -39 29.501c-12 10 -21.5 17.167 -28.5 21.5s-14.5 6.5 -22.5 6.5c-15.333 0 -27.666 -5.66699 -36.999 -17s-14.333 -27 -15 -47h-43c1.33301 33.333 10 60 26 80
s37.333 30 64 30c15.333 0 28.833 -3.33301 40.5 -10s25.167 -16.667 40.5 -30c10.667 -9.33301 19.667 -16.333 27 -21s15 -7 23 -7c14.667 0 26.667 5.5 36 16.5s14.666 26.167 15.999 45.5h43c-1.33301 -32.667 -10 -58.834 -26 -78.501s-37.333 -29.5 -64 -29.5
c-15.333 0 -29 3.5 -41 10.5z" />
    <glyph glyph-name="Ograve" unicode="&#xd2;" horiz-adv-x="839" 
d="M231.5 40.5c-56.333 31 -100.333 73.498 -132 127.498s-47.5 114.667 -47.5 182s15.833 128 47.5 182s75.667 96.5 132 127.5s119.166 46.5 188.499 46.5s131.833 -15.333 187.5 -46s99.5 -73.167 131.5 -127.5s48 -115.166 48 -182.499s-16 -128.166 -48 -182.499
s-75.833 -96.833 -131.5 -127.5s-118.167 -46 -187.5 -46s-132.166 15.5 -188.499 46.5zM570 97.498c44.667 25 79.667 59.667 105 104s38 93.833 38 148.5s-12.667 104.167 -38 148.5s-60.333 79 -105 104s-94.667 37.5 -150 37.5s-105.5 -12.5 -150.5 -37.5
s-80.333 -59.667 -106 -104s-38.5 -93.833 -38.5 -148.5s12.833 -104.167 38.5 -148.5s61 -79 106 -104s95.167 -37.5 150.5 -37.5s105.333 12.5 150 37.5zM253 880.998h95l137 -124h-70z" />
    <glyph glyph-name="Oacute" unicode="&#xd3;" horiz-adv-x="839" 
d="M231.5 40.5c-56.333 31 -100.333 73.498 -132 127.498s-47.5 114.667 -47.5 182s15.833 128 47.5 182s75.667 96.5 132 127.5s119.166 46.5 188.499 46.5s131.833 -15.333 187.5 -46s99.5 -73.167 131.5 -127.5s48 -115.166 48 -182.499s-16 -128.166 -48 -182.499
s-75.833 -96.833 -131.5 -127.5s-118.167 -46 -187.5 -46s-132.166 15.5 -188.499 46.5zM570 97.498c44.667 25 79.667 59.667 105 104s38 93.833 38 148.5s-12.667 104.167 -38 148.5s-60.333 79 -105 104s-94.667 37.5 -150 37.5s-105.5 -12.5 -150.5 -37.5
s-80.333 -59.667 -106 -104s-38.5 -93.833 -38.5 -148.5s12.833 -104.167 38.5 -148.5s61 -79 106 -104s95.167 -37.5 150.5 -37.5s105.333 12.5 150 37.5zM492 880.998h95l-162 -124h-70z" />
    <glyph glyph-name="Ocircumflex" unicode="&#xd4;" horiz-adv-x="839" 
d="M231.5 40.5c-56.333 31 -100.333 73.498 -132 127.498s-47.5 114.667 -47.5 182s15.833 128 47.5 182s75.667 96.5 132 127.5s119.166 46.5 188.499 46.5s131.833 -15.333 187.5 -46s99.5 -73.167 131.5 -127.5s48 -115.166 48 -182.499s-16 -128.166 -48 -182.499
s-75.833 -96.833 -131.5 -127.5s-118.167 -46 -187.5 -46s-132.166 15.5 -188.499 46.5zM570 97.498c44.667 25 79.667 59.667 105 104s38 93.833 38 148.5s-12.667 104.167 -38 148.5s-60.333 79 -105 104s-94.667 37.5 -150 37.5s-105.5 -12.5 -150.5 -37.5
s-80.333 -59.667 -106 -104s-38.5 -93.833 -38.5 -148.5s12.833 -104.167 38.5 -148.5s61 -79 106 -104s95.167 -37.5 150.5 -37.5s105.333 12.5 150 37.5zM519 756.998l-99 83l-99 -83h-66l129 124h72l129 -124h-66z" />
    <glyph glyph-name="Otilde" unicode="&#xd5;" horiz-adv-x="839" 
d="M231.5 40.5c-56.333 31 -100.333 73.498 -132 127.498s-47.5 114.667 -47.5 182s15.833 128 47.5 182s75.667 96.5 132 127.5s119.166 46.5 188.499 46.5s131.833 -15.333 187.5 -46s99.5 -73.167 131.5 -127.5s48 -115.166 48 -182.499s-16 -128.166 -48 -182.499
s-75.833 -96.833 -131.5 -127.5s-118.167 -46 -187.5 -46s-132.166 15.5 -188.499 46.5zM570 97.498c44.667 25 79.667 59.667 105 104s38 93.833 38 148.5s-12.667 104.167 -38 148.5s-60.333 79 -105 104s-94.667 37.5 -150 37.5s-105.5 -12.5 -150.5 -37.5
s-80.333 -59.667 -106 -104s-38.5 -93.833 -38.5 -148.5s12.833 -104.167 38.5 -148.5s61 -79 106 -104s95.167 -37.5 150.5 -37.5s105.333 12.5 150 37.5zM447 773.498c-12 7 -25 16.834 -39 29.501c-12 10 -21.5 17.167 -28.5 21.5s-14.5 6.5 -22.5 6.5
c-15.333 0 -27.666 -5.66699 -36.999 -17s-14.333 -27 -15 -47h-43c1.33301 33.333 10 60 26 80s37.333 30 64 30c15.333 0 28.833 -3.33301 40.5 -10s25.167 -16.667 40.5 -30c10.667 -9.33301 19.667 -16.333 27 -21s15 -7 23 -7c14.667 0 26.667 5.5 36 16.5
s14.666 26.167 15.999 45.5h43c-1.33301 -32.667 -10 -58.834 -26 -78.501s-37.333 -29.5 -64 -29.5c-15.333 0 -29 3.5 -41 10.5z" />
    <glyph glyph-name="Odieresis" unicode="&#xd6;" horiz-adv-x="839" 
d="M231.5 40.5c-56.333 31 -100.333 73.498 -132 127.498s-47.5 114.667 -47.5 182s15.833 128 47.5 182s75.667 96.5 132 127.5s119.166 46.5 188.499 46.5s131.833 -15.333 187.5 -46s99.5 -73.167 131.5 -127.5s48 -115.166 48 -182.499s-16 -128.166 -48 -182.499
s-75.833 -96.833 -131.5 -127.5s-118.167 -46 -187.5 -46s-132.166 15.5 -188.499 46.5zM570 97.498c44.667 25 79.667 59.667 105 104s38 93.833 38 148.5s-12.667 104.167 -38 148.5s-60.333 79 -105 104s-94.667 37.5 -150 37.5s-105.5 -12.5 -150.5 -37.5
s-80.333 -59.667 -106 -104s-38.5 -93.833 -38.5 -148.5s12.833 -104.167 38.5 -148.5s61 -79 106 -104s95.167 -37.5 150.5 -37.5s105.333 12.5 150 37.5zM300.5 791.998c-8.33301 8 -12.5 18.333 -12.5 31c0 12 4.16699 22.167 12.5 30.5s18.5 12.5 30.5 12.5
c11.333 0 21.333 -4.16699 30 -12.5s13 -18.5 13 -30.5s-4.16699 -22.167 -12.5 -30.5s-18.5 -12.5 -30.5 -12.5s-22.167 4 -30.5 12zM478.5 792.498c-8.33301 8.33301 -12.5 18.5 -12.5 30.5s4.33301 22.167 13 30.5s18.667 12.5 30 12.5c12 0 22.167 -4.16699 30.5 -12.5
s12.5 -18.5 12.5 -30.5c0 -12.667 -4.16699 -23 -12.5 -31s-18.5 -12 -30.5 -12s-22.167 4.16699 -30.5 12.5z" />
    <glyph glyph-name="multiply" unicode="&#xd7;" horiz-adv-x="575" 
d="M329 350l132 -133l-40 -43l-133 134l-134 -134l-40 43l132 133l-132 133l40 43l134 -134l133 134l40 -43z" />
    <glyph glyph-name="Oslash" unicode="&#xd8;" horiz-adv-x="839" 
d="M231.5 40.5c-56.333 31 -100.333 73.498 -132 127.498s-47.5 114.667 -47.5 182s15.833 128 47.5 182s75.667 96.5 132 127.5s119.166 46.5 188.499 46.5s131.833 -15.333 187.5 -46s99.5 -73.167 131.5 -127.5s48 -115.166 48 -182.499s-16 -128.166 -48 -182.499
s-75.833 -96.833 -131.5 -127.5s-118.167 -46 -187.5 -46s-132.166 15.5 -188.499 46.5zM570 97.498c44.667 25 79.667 59.667 105 104s38 93.833 38 148.5s-12.667 104.167 -38 148.5s-60.333 79 -105 104s-94.667 37.5 -150 37.5s-105.5 -12.5 -150.5 -37.5
s-80.333 -59.667 -106 -104s-38.5 -93.833 -38.5 -148.5s12.833 -104.167 38.5 -148.5s61 -79 106 -104s95.167 -37.5 150.5 -37.5s105.333 12.5 150 37.5zM694 769.998h59l-606 -840h-60z" />
    <glyph glyph-name="Ugrave" unicode="&#xd9;" horiz-adv-x="792" 
d="M184 72c-50.667 52 -75.999 127.667 -75.999 227v401h74v-398c0 -81.333 18.333 -142 55 -182s89.667 -60 159 -60c70 0 123.333 20 160 60s55 100.667 55 182v398h72v-401c0 -99.333 -25.167 -175 -75.5 -227s-120.833 -78 -211.5 -78s-161.334 26 -212.001 78z
M229.001 881h95l137 -124h-70z" />
    <glyph glyph-name="Uacute" unicode="&#xda;" horiz-adv-x="792" 
d="M184 72c-50.667 52 -75.999 127.667 -75.999 227v401h74v-398c0 -81.333 18.333 -142 55 -182s89.667 -60 159 -60c70 0 123.333 20 160 60s55 100.667 55 182v398h72v-401c0 -99.333 -25.167 -175 -75.5 -227s-120.833 -78 -211.5 -78s-161.334 26 -212.001 78z
M468.001 881h95l-162 -124h-70z" />
    <glyph glyph-name="Ucircumflex" unicode="&#xdb;" horiz-adv-x="792" 
d="M184 72c-50.667 52 -75.999 127.667 -75.999 227v401h74v-398c0 -81.333 18.333 -142 55 -182s89.667 -60 159 -60c70 0 123.333 20 160 60s55 100.667 55 182v398h72v-401c0 -99.333 -25.167 -175 -75.5 -227s-120.833 -78 -211.5 -78s-161.334 26 -212.001 78z
M495.001 757l-99 83l-99 -83h-66l129 124h72l129 -124h-66z" />
    <glyph glyph-name="Udieresis" unicode="&#xdc;" horiz-adv-x="792" 
d="M184 72c-50.667 52 -75.999 127.667 -75.999 227v401h74v-398c0 -81.333 18.333 -142 55 -182s89.667 -60 159 -60c70 0 123.333 20 160 60s55 100.667 55 182v398h72v-401c0 -99.333 -25.167 -175 -75.5 -227s-120.833 -78 -211.5 -78s-161.334 26 -212.001 78z
M276.501 792c-8.33301 8 -12.5 18.333 -12.5 31c0 12 4.16699 22.167 12.5 30.5s18.5 12.5 30.5 12.5c11.333 0 21.333 -4.16699 30 -12.5s13 -18.5 13 -30.5s-4.16699 -22.167 -12.5 -30.5s-18.5 -12.5 -30.5 -12.5s-22.167 4 -30.5 12zM454.501 792.5
c-8.33301 8.33301 -12.5 18.5 -12.5 30.5s4.33301 22.167 13 30.5s18.667 12.5 30 12.5c12 0 22.167 -4.16699 30.5 -12.5s12.5 -18.5 12.5 -30.5c0 -12.667 -4.16699 -23 -12.5 -31s-18.5 -12 -30.5 -12s-22.167 4.16699 -30.5 12.5z" />
    <glyph glyph-name="Yacute" unicode="&#xdd;" horiz-adv-x="635" 
d="M354 242v-242h-73v242l-280 458h79l240 -393l240 393h74zM389 881h95l-162 -124h-70z" />
    <glyph glyph-name="Thorn" unicode="&#xde;" horiz-adv-x="718" 
d="M586 545c50.667 -42.667 76 -101.332 76 -175.999s-25.333 -133.334 -76 -176.001s-120.667 -64 -210 -64h-188v-129h-74v700h74v-91h188c89.333 0 159.333 -21.333 210 -64zM533 239.502c36.667 30.333 55 73.5 55 129.5c0 56.667 -18.333 100.167 -55 130.5
s-89.667 45.5 -159 45.5h-186v-351h186c69.333 0 122.333 15.167 159 45.5z" />
    <glyph glyph-name="germandbls" unicode="&#xdf;" horiz-adv-x="668" 
d="M578.5 323.5c29 -33 43.5 -74.498 43.5 -124.498c0 -42 -10.167 -78.333 -30.5 -109s-48.5 -54.167 -84.5 -70.5s-76.667 -24.5 -122 -24.5c-44.667 0 -82 5.33301 -112 16l12 60c28 -9.33301 60.333 -14 97 -14c50.667 0 91.334 12.667 122.001 38s46 60.666 46 105.999
c0 44.667 -16 79.5 -48 104.5s-74.333 37.5 -127 37.5h-58v61c55.333 0.666992 98.666 14.334 129.999 41.001s47 62.667 47 108c0 40 -13.667 72 -41 96s-65 36 -113 36c-53.333 0 -95 -15.5 -125 -46.5s-45 -75.833 -45 -134.5v-504h-71v498c0 80 22.167 141.5 66.5 184.5
s102.5 64.5 174.5 64.5c45.333 0 84.833 -8.33301 118.5 -25s59.5 -39.334 77.5 -68.001s27 -61.334 27 -98.001c0 -38 -9.33301 -71.5 -28 -100.5s-43 -51.167 -73 -66.5c48.667 -10.667 87.5 -32.5 116.5 -65.5z" />
    <glyph glyph-name="agrave" unicode="&#xe0;" horiz-adv-x="590" 
d="M441 478.5c36.667 -34.333 55.001 -85.168 55.001 -152.501v-326h-68v82c-16 -27.333 -39.5 -48.666 -70.5 -63.999s-67.833 -23 -110.5 -23c-58.667 0 -105.334 14 -140.001 42s-52 65 -52 111c0 44.667 16.167 80.667 48.5 108s83.833 41 154.5 41h167v32
c0 45.333 -12.667 79.833 -38 103.5s-62.333 35.5 -111 35.5c-33.333 0 -65.333 -5.5 -96 -16.5s-57 -26.167 -79 -45.5l-32 53c26.667 22.667 58.667 40.167 96 52.5s76.666 18.5 117.999 18.5c68.667 0 121.334 -17.167 158.001 -51.5zM361.001 78.498
c28.667 18.333 50 44.834 64 79.501v86h-165c-90 0 -135 -31.333 -135 -94c0 -30.667 11.667 -54.834 35 -72.501s56 -26.5 98 -26.5c40 0 74.333 9.16699 103 27.5zM118.001 731.999h95l137 -124h-70z" />
    <glyph glyph-name="aacute" unicode="&#xe1;" horiz-adv-x="590" 
d="M441 478.5c36.667 -34.333 55.001 -85.168 55.001 -152.501v-326h-68v82c-16 -27.333 -39.5 -48.666 -70.5 -63.999s-67.833 -23 -110.5 -23c-58.667 0 -105.334 14 -140.001 42s-52 65 -52 111c0 44.667 16.167 80.667 48.5 108s83.833 41 154.5 41h167v32
c0 45.333 -12.667 79.833 -38 103.5s-62.333 35.5 -111 35.5c-33.333 0 -65.333 -5.5 -96 -16.5s-57 -26.167 -79 -45.5l-32 53c26.667 22.667 58.667 40.167 96 52.5s76.666 18.5 117.999 18.5c68.667 0 121.334 -17.167 158.001 -51.5zM361.001 78.498
c28.667 18.333 50 44.834 64 79.501v86h-165c-90 0 -135 -31.333 -135 -94c0 -30.667 11.667 -54.834 35 -72.501s56 -26.5 98 -26.5c40 0 74.333 9.16699 103 27.5zM357.001 731.999h95l-162 -124h-70z" />
    <glyph glyph-name="acircumflex" unicode="&#xe2;" horiz-adv-x="590" 
d="M441 478.5c36.667 -34.333 55.001 -85.168 55.001 -152.501v-326h-68v82c-16 -27.333 -39.5 -48.666 -70.5 -63.999s-67.833 -23 -110.5 -23c-58.667 0 -105.334 14 -140.001 42s-52 65 -52 111c0 44.667 16.167 80.667 48.5 108s83.833 41 154.5 41h167v32
c0 45.333 -12.667 79.833 -38 103.5s-62.333 35.5 -111 35.5c-33.333 0 -65.333 -5.5 -96 -16.5s-57 -26.167 -79 -45.5l-32 53c26.667 22.667 58.667 40.167 96 52.5s76.666 18.5 117.999 18.5c68.667 0 121.334 -17.167 158.001 -51.5zM361.001 78.498
c28.667 18.333 50 44.834 64 79.501v86h-165c-90 0 -135 -31.333 -135 -94c0 -30.667 11.667 -54.834 35 -72.501s56 -26.5 98 -26.5c40 0 74.333 9.16699 103 27.5zM384.001 607.999l-99 83l-99 -83h-66l129 124h72l129 -124h-66z" />
    <glyph glyph-name="atilde" unicode="&#xe3;" horiz-adv-x="590" 
d="M441 478.5c36.667 -34.333 55.001 -85.168 55.001 -152.501v-326h-68v82c-16 -27.333 -39.5 -48.666 -70.5 -63.999s-67.833 -23 -110.5 -23c-58.667 0 -105.334 14 -140.001 42s-52 65 -52 111c0 44.667 16.167 80.667 48.5 108s83.833 41 154.5 41h167v32
c0 45.333 -12.667 79.833 -38 103.5s-62.333 35.5 -111 35.5c-33.333 0 -65.333 -5.5 -96 -16.5s-57 -26.167 -79 -45.5l-32 53c26.667 22.667 58.667 40.167 96 52.5s76.666 18.5 117.999 18.5c68.667 0 121.334 -17.167 158.001 -51.5zM361.001 78.498
c28.667 18.333 50 44.834 64 79.501v86h-165c-90 0 -135 -31.333 -135 -94c0 -30.667 11.667 -54.834 35 -72.501s56 -26.5 98 -26.5c40 0 74.333 9.16699 103 27.5zM312.001 624.499c-12 7 -25 16.834 -39 29.501c-12 10 -21.5 17.167 -28.5 21.5s-14.5 6.5 -22.5 6.5
c-15.333 0 -27.666 -5.66699 -36.999 -17s-14.333 -27 -15 -47h-43c1.33301 33.333 10 60 26 80s37.333 30 64 30c15.333 0 28.833 -3.33301 40.5 -10s25.167 -16.667 40.5 -30c10.667 -9.33301 19.667 -16.333 27 -21s15 -7 23 -7c14.667 0 26.667 5.5 36 16.5
s14.666 26.167 15.999 45.5h43c-1.33301 -32.667 -10 -58.834 -26 -78.501s-37.333 -29.5 -64 -29.5c-15.333 0 -29 3.5 -41 10.5z" />
    <glyph glyph-name="adieresis" unicode="&#xe4;" horiz-adv-x="590" 
d="M441 478.5c36.667 -34.333 55.001 -85.168 55.001 -152.501v-326h-68v82c-16 -27.333 -39.5 -48.666 -70.5 -63.999s-67.833 -23 -110.5 -23c-58.667 0 -105.334 14 -140.001 42s-52 65 -52 111c0 44.667 16.167 80.667 48.5 108s83.833 41 154.5 41h167v32
c0 45.333 -12.667 79.833 -38 103.5s-62.333 35.5 -111 35.5c-33.333 0 -65.333 -5.5 -96 -16.5s-57 -26.167 -79 -45.5l-32 53c26.667 22.667 58.667 40.167 96 52.5s76.666 18.5 117.999 18.5c68.667 0 121.334 -17.167 158.001 -51.5zM361.001 78.498
c28.667 18.333 50 44.834 64 79.501v86h-165c-90 0 -135 -31.333 -135 -94c0 -30.667 11.667 -54.834 35 -72.501s56 -26.5 98 -26.5c40 0 74.333 9.16699 103 27.5zM165.501 642.999c-8.33301 8 -12.5 18.333 -12.5 31c0 12 4.16699 22.167 12.5 30.5s18.5 12.5 30.5 12.5
c11.333 0 21.333 -4.16699 30 -12.5s13 -18.5 13 -30.5s-4.16699 -22.167 -12.5 -30.5s-18.5 -12.5 -30.5 -12.5s-22.167 4 -30.5 12zM343.501 643.499c-8.33301 8.33301 -12.5 18.5 -12.5 30.5s4.33301 22.167 13 30.5s18.667 12.5 30 12.5
c12 0 22.167 -4.16699 30.5 -12.5s12.5 -18.5 12.5 -30.5c0 -12.667 -4.16699 -23 -12.5 -31s-18.5 -12 -30.5 -12s-22.167 4.16699 -30.5 12.5z" />
    <glyph glyph-name="aring" unicode="&#xe5;" horiz-adv-x="590" 
d="M441 478.5c36.667 -34.333 55.001 -85.168 55.001 -152.501v-326h-68v82c-16 -27.333 -39.5 -48.666 -70.5 -63.999s-67.833 -23 -110.5 -23c-58.667 0 -105.334 14 -140.001 42s-52 65 -52 111c0 44.667 16.167 80.667 48.5 108s83.833 41 154.5 41h167v32
c0 45.333 -12.667 79.833 -38 103.5s-62.333 35.5 -111 35.5c-33.333 0 -65.333 -5.5 -96 -16.5s-57 -26.167 -79 -45.5l-32 53c26.667 22.667 58.667 40.167 96 52.5s76.666 18.5 117.999 18.5c68.667 0 121.334 -17.167 158.001 -51.5zM361.001 78.498
c28.667 18.333 50 44.834 64 79.501v86h-165c-90 0 -135 -31.333 -135 -94c0 -30.667 11.667 -54.834 35 -72.501s56 -26.5 98 -26.5c40 0 74.333 9.16699 103 27.5zM209.501 625.999c-19.667 20 -29.499 44 -29.499 72c0 28.667 10 53.334 30 74.001s44.667 31 74 31
s54.166 -10.333 74.499 -31s30.5 -45.334 30.5 -74.001c0 -28 -10 -52 -30 -72s-45 -30 -75 -30s-54.833 10 -74.5 30zM333.002 649.999c12.667 12.667 19 28.667 19 48s-6.5 35.833 -19.5 49.5s-29.167 20.5 -48.5 20.5s-35.333 -6.66699 -48 -20s-19 -30 -19 -50
c0 -19.333 6.16699 -35.333 18.5 -48s28.5 -19 48.5 -19s36.333 6.33301 49 19z" />
    <glyph glyph-name="ae" unicode="&#xe6;" horiz-adv-x="986" 
d="M938 243h-440.998c3.33301 -55.333 24 -100 62 -134s86.333 -51 145 -51c66.667 0 120.334 23 161.001 69l40 -46c-24 -28 -53.333 -49.333 -88 -64s-73 -22 -115 -22c-50.667 0 -96.334 10.167 -137.001 30.5s-73.334 50.5 -98.001 90.5
c-18.667 -41.333 -47 -71.833 -85 -91.5s-80.667 -29.5 -128 -29.5c-62 0 -110.667 14.167 -146 42.5s-53 65.833 -53 112.5c0 42.667 16.167 77.667 48.5 105s83.833 41 154.5 41h167v33c0 45.333 -12.667 79.833 -38 103.5s-62.333 35.5 -111 35.5
c-33.333 0 -65.333 -5.5 -96 -16.5s-57 -26.167 -79 -45.5l-32 53c26.667 22.667 58.667 40.167 96 52.5s76.333 18.5 117 18.5c101.333 0 165.666 -36 192.999 -108c22.667 34 52.167 60.5 88.5 79.5s76.5 28.5 120.5 28.5c48.667 0 92.5 -11.333 131.5 -34
s69.5 -54 91.5 -94s33 -85 33 -135c0 -5.33301 -0.666992 -13.333 -2 -24zM595.502 448c-27 -14 -49.335 -34 -67.002 -60s-28.167 -56.667 -31.5 -92h373c-3.33301 34.667 -13.666 65.167 -30.999 91.5s-39.666 46.5 -66.999 60.5s-57 21 -89 21
c-31.333 0 -60.5 -7 -87.5 -21zM380 91.5c30 27 44.999 63.5 44.999 109.5v42h-165c-47.333 0 -81.666 -8.16699 -102.999 -24.5s-32 -38.5 -32 -66.5c0 -31.333 11.833 -56 35.5 -74s56.5 -27 98.5 -27c50.667 0 91 13.5 121 40.5z" />
    <glyph glyph-name="ccedilla" unicode="&#xe7;" horiz-adv-x="563" 
d="M177.5 29c-41 22.667 -73.168 54.499 -96.501 95.499s-35 87.167 -35 138.5s11.667 97.333 35 138s55.5 72.334 96.5 95.001s87.5 34 139.5 34c45.333 0 85.833 -8.83301 121.5 -26.5s63.834 -43.5 84.501 -77.5l-53 -36c-17.333 26 -39.333 45.5 -66 58.5
s-55.667 19.5 -87 19.5c-38 0 -72.167 -8.5 -102.5 -25.5s-54 -41.167 -71 -72.5s-25.5 -67 -25.5 -107c0 -40.667 8.5 -76.5 25.5 -107.5s40.667 -55 71 -72s64.5 -25.5 102.5 -25.5c31.333 0 60.333 6.33301 87 19s48.667 32 66 58l53 -36
c-20.667 -34 -49 -59.833 -85 -77.5s-76.333 -26.5 -121 -26.5c-52 0 -98.5 11.333 -139.5 34zM190.999 -197.001l17 38.001c19.333 -12.667 41.333 -19 66 -19c20 0 35.333 4 46 12s16 19.667 16 35c0 14 -5.16699 25.167 -15.5 33.5s-25.833 12.5 -46.5 12.5h-23l24 91h43
l-15 -58c27.333 -2.66699 48.333 -11.167 63 -25.5s22 -32.833 22 -55.5c0 -26.667 -10.333 -47.834 -31 -63.501s-48 -23.5 -82 -23.5c-32.667 0 -60.667 7.66699 -84 23z" />
    <glyph glyph-name="egrave" unicode="&#xe8;" horiz-adv-x="604" 
d="M557 241l-440.001 -0.000976562c4 -54.667 25 -98.834 63 -132.501s86 -50.5 144 -50.5c32.667 0 62.667 5.83301 90 17.5s51 28.834 71 51.501l40 -46c-23.333 -28 -52.5 -49.333 -87.5 -64s-73.5 -22 -115.5 -22c-54 0 -101.833 11.5 -143.5 34.5
s-74.167 54.833 -97.5 95.5s-35 86.667 -35 138s11.167 97.333 33.5 138s53 72.334 92 95.001s82.833 34 131.5 34s92.334 -11.333 131.001 -34s69 -54.167 91 -94.5s33 -86.5 33 -138.5zM175.499 420.499c-34.333 -32.333 -53.834 -74.5 -58.501 -126.5h373
c-4.66699 52 -24.167 94.167 -58.5 126.5s-77.166 48.5 -128.499 48.5c-50.667 0 -93.167 -16.167 -127.5 -48.5zM135.998 731.999h95l137 -124h-70z" />
    <glyph glyph-name="eacute" unicode="&#xe9;" horiz-adv-x="604" 
d="M557 241l-440.001 -0.000976562c4 -54.667 25 -98.834 63 -132.501s86 -50.5 144 -50.5c32.667 0 62.667 5.83301 90 17.5s51 28.834 71 51.501l40 -46c-23.333 -28 -52.5 -49.333 -87.5 -64s-73.5 -22 -115.5 -22c-54 0 -101.833 11.5 -143.5 34.5
s-74.167 54.833 -97.5 95.5s-35 86.667 -35 138s11.167 97.333 33.5 138s53 72.334 92 95.001s82.833 34 131.5 34s92.334 -11.333 131.001 -34s69 -54.167 91 -94.5s33 -86.5 33 -138.5zM175.499 420.499c-34.333 -32.333 -53.834 -74.5 -58.501 -126.5h373
c-4.66699 52 -24.167 94.167 -58.5 126.5s-77.166 48.5 -128.499 48.5c-50.667 0 -93.167 -16.167 -127.5 -48.5zM374.998 731.999h95l-162 -124h-70z" />
    <glyph glyph-name="ecircumflex" unicode="&#xea;" horiz-adv-x="604" 
d="M557 241l-440.001 -0.000976562c4 -54.667 25 -98.834 63 -132.501s86 -50.5 144 -50.5c32.667 0 62.667 5.83301 90 17.5s51 28.834 71 51.501l40 -46c-23.333 -28 -52.5 -49.333 -87.5 -64s-73.5 -22 -115.5 -22c-54 0 -101.833 11.5 -143.5 34.5
s-74.167 54.833 -97.5 95.5s-35 86.667 -35 138s11.167 97.333 33.5 138s53 72.334 92 95.001s82.833 34 131.5 34s92.334 -11.333 131.001 -34s69 -54.167 91 -94.5s33 -86.5 33 -138.5zM175.499 420.499c-34.333 -32.333 -53.834 -74.5 -58.501 -126.5h373
c-4.66699 52 -24.167 94.167 -58.5 126.5s-77.166 48.5 -128.499 48.5c-50.667 0 -93.167 -16.167 -127.5 -48.5zM401.998 607.999l-99 83l-99 -83h-66l129 124h72l129 -124h-66z" />
    <glyph glyph-name="edieresis" unicode="&#xeb;" horiz-adv-x="604" 
d="M557 241l-440.001 -0.000976562c4 -54.667 25 -98.834 63 -132.501s86 -50.5 144 -50.5c32.667 0 62.667 5.83301 90 17.5s51 28.834 71 51.501l40 -46c-23.333 -28 -52.5 -49.333 -87.5 -64s-73.5 -22 -115.5 -22c-54 0 -101.833 11.5 -143.5 34.5
s-74.167 54.833 -97.5 95.5s-35 86.667 -35 138s11.167 97.333 33.5 138s53 72.334 92 95.001s82.833 34 131.5 34s92.334 -11.333 131.001 -34s69 -54.167 91 -94.5s33 -86.5 33 -138.5zM175.499 420.499c-34.333 -32.333 -53.834 -74.5 -58.501 -126.5h373
c-4.66699 52 -24.167 94.167 -58.5 126.5s-77.166 48.5 -128.499 48.5c-50.667 0 -93.167 -16.167 -127.5 -48.5zM183.498 642.999c-8.33301 8 -12.5 18.333 -12.5 31c0 12 4.16699 22.167 12.5 30.5s18.5 12.5 30.5 12.5c11.333 0 21.333 -4.16699 30 -12.5
s13 -18.5 13 -30.5s-4.16699 -22.167 -12.5 -30.5s-18.5 -12.5 -30.5 -12.5s-22.167 4 -30.5 12zM361.498 643.499c-8.33301 8.33301 -12.5 18.5 -12.5 30.5s4.33301 22.167 13 30.5s18.667 12.5 30 12.5c12 0 22.167 -4.16699 30.5 -12.5s12.5 -18.5 12.5 -30.5
c0 -12.667 -4.16699 -23 -12.5 -31s-18.5 -12 -30.5 -12s-22.167 4.16699 -30.5 12.5z" />
    <glyph glyph-name="igrave" unicode="&#xec;" horiz-adv-x="269" 
d="M99 526h71v-526h-71v526zM-32 732h95l137 -124h-70z" />
    <glyph glyph-name="iacute" unicode="&#xed;" horiz-adv-x="269" 
d="M99 526h71v-526h-71v526zM207 732h95l-162 -124h-70z" />
    <glyph glyph-name="icircumflex" unicode="&#xee;" horiz-adv-x="269" 
d="M99 526h71v-526h-71v526zM211 608l-76 81l-76 -81h-64l105 124h70l105 -124h-64z" />
    <glyph glyph-name="idieresis" unicode="&#xef;" horiz-adv-x="269" 
d="M99 526h71v-526h-71v526zM39 643.5c-8 8.33301 -12 18.501 -12 30.501c0 11.333 4 21.166 12 29.499s18 12.5 30 12.5c11.333 0 21 -4 29 -12s12 -18 12 -30c0 -12.667 -4 -23 -12 -31s-17.667 -12 -29 -12c-12 0 -22 4.16699 -30 12.5zM172 643.501
c-8 8.33301 -12 18.501 -12 30.501c0 11.333 4 21.166 12 29.499s17.667 12.5 29 12.5c12 0 22 -4 30 -12s12 -18 12 -30c0 -12.667 -4 -23 -12 -31s-18 -12 -30 -12c-11.333 0 -21 4.16699 -29 12.5z" />
    <glyph glyph-name="eth" unicode="&#xf0;" horiz-adv-x="633" 
d="M587 347c0 -109.333 -25.667 -195.5 -77 -258.5s-124 -94.5 -218 -94.5c-46.667 0 -88.667 9.16699 -126 27.5s-66.666 44.166 -87.999 77.499s-32 72 -32 116s10.667 82.833 32 116.5s50.833 59.5 88.5 77.5s80.834 27 129.501 27c50.667 0 95.167 -11.5 133.5 -34.5
s66.166 -55.833 83.499 -98.5c1.33301 14 2 33.667 2 59c0 55.333 -8.16699 103.333 -24.5 144s-39.833 73.667 -70.5 99l-268 -112l-20 49l231 96c-32.667 13.333 -69.334 20 -110.001 20c-50 0 -99 -7.33301 -147 -22l-12 61c48 14 101 21 159 21
c73.333 0 135.333 -16 186 -48l89 37l20 -49l-61 -25c66.667 -65.333 100 -160.666 100 -285.999zM398 77.5c28.667 15 50.501 34.667 65.501 59s22.5 50.5 22.5 78.5c0 30 -7.83301 57.167 -23.5 81.5s-37.334 43.5 -65.001 57.5s-59.167 21 -94.5 21
c-57.333 0 -102.5 -14.5 -135.5 -43.5s-49.5 -67.833 -49.5 -116.5c0 -48 16.333 -86.667 49 -116s75.667 -44 129 -44c39.333 0 73.333 7.5 102 22.5z" />
    <glyph glyph-name="ntilde" unicode="&#xf1;" horiz-adv-x="677" 
d="M524.5 472.5c39 -38.333 58.502 -94.168 58.502 -167.501v-305h-71v298c0 54.667 -13.667 96.334 -41 125.001s-66.333 43 -117 43c-56.667 0 -101.5 -16.833 -134.5 -50.5s-49.5 -80.167 -49.5 -139.5v-276h-71v526h68v-97c19.333 32 46.166 56.833 80.499 74.5
s74.166 26.5 119.499 26.5c66 0 118.5 -19.167 157.5 -57.5zM367.002 624.498c-12 7 -25 16.834 -39 29.501c-12 10 -21.5 17.167 -28.5 21.5s-14.5 6.5 -22.5 6.5c-15.333 0 -27.666 -5.66699 -36.999 -17s-14.333 -27 -15 -47h-43c1.33301 33.333 10 60 26 80
s37.333 30 64 30c15.333 0 28.833 -3.33301 40.5 -10s25.167 -16.667 40.5 -30c10.667 -9.33301 19.667 -16.333 27 -21s15 -7 23 -7c14.667 0 26.667 5.5 36 16.5s14.666 26.167 15.999 45.5h43c-1.33301 -32.667 -10 -58.834 -26 -78.501s-37.333 -29.5 -64 -29.5
c-15.333 0 -29 3.5 -41 10.5z" />
    <glyph glyph-name="ograve" unicode="&#xf2;" horiz-adv-x="627" 
d="M177 29.5c-40.667 23 -72.667 54.833 -96 95.5s-35 86.667 -35 138s11.667 97.333 35 138s55.333 72.334 96 95.001s86.334 34 137.001 34s96.334 -11.333 137.001 -34s72.5 -54.334 95.5 -95.001s34.5 -86.667 34.5 -138s-11.5 -97.333 -34.5 -138
s-54.833 -72.5 -95.5 -95.5s-86.334 -34.5 -137.001 -34.5s-96.334 11.5 -137.001 34.5zM414.5 83.5c29.667 17 52.834 41.167 69.501 72.5s25 67 25 107s-8.33301 75.667 -25 107s-39.834 55.5 -69.501 72.5s-63.167 25.5 -100.5 25.5s-70.833 -8.5 -100.5 -25.5
s-53 -41.167 -70 -72.5s-25.5 -67 -25.5 -107s8.5 -75.667 25.5 -107s40.333 -55.5 70 -72.5s63.167 -25.5 100.5 -25.5s70.833 8.5 100.5 25.5zM146 732h95l137 -124h-70z" />
    <glyph glyph-name="oacute" unicode="&#xf3;" horiz-adv-x="627" 
d="M177 29.5c-40.667 23 -72.667 54.833 -96 95.5s-35 86.667 -35 138s11.667 97.333 35 138s55.333 72.334 96 95.001s86.334 34 137.001 34s96.334 -11.333 137.001 -34s72.5 -54.334 95.5 -95.001s34.5 -86.667 34.5 -138s-11.5 -97.333 -34.5 -138
s-54.833 -72.5 -95.5 -95.5s-86.334 -34.5 -137.001 -34.5s-96.334 11.5 -137.001 34.5zM414.5 83.5c29.667 17 52.834 41.167 69.501 72.5s25 67 25 107s-8.33301 75.667 -25 107s-39.834 55.5 -69.501 72.5s-63.167 25.5 -100.5 25.5s-70.833 -8.5 -100.5 -25.5
s-53 -41.167 -70 -72.5s-25.5 -67 -25.5 -107s8.5 -75.667 25.5 -107s40.333 -55.5 70 -72.5s63.167 -25.5 100.5 -25.5s70.833 8.5 100.5 25.5zM385 732h95l-162 -124h-70z" />
    <glyph glyph-name="ocircumflex" unicode="&#xf4;" horiz-adv-x="627" 
d="M177 29.5c-40.667 23 -72.667 54.833 -96 95.5s-35 86.667 -35 138s11.667 97.333 35 138s55.333 72.334 96 95.001s86.334 34 137.001 34s96.334 -11.333 137.001 -34s72.5 -54.334 95.5 -95.001s34.5 -86.667 34.5 -138s-11.5 -97.333 -34.5 -138
s-54.833 -72.5 -95.5 -95.5s-86.334 -34.5 -137.001 -34.5s-96.334 11.5 -137.001 34.5zM414.5 83.5c29.667 17 52.834 41.167 69.501 72.5s25 67 25 107s-8.33301 75.667 -25 107s-39.834 55.5 -69.501 72.5s-63.167 25.5 -100.5 25.5s-70.833 -8.5 -100.5 -25.5
s-53 -41.167 -70 -72.5s-25.5 -67 -25.5 -107s8.5 -75.667 25.5 -107s40.333 -55.5 70 -72.5s63.167 -25.5 100.5 -25.5s70.833 8.5 100.5 25.5zM412 608l-99 83l-99 -83h-66l129 124h72l129 -124h-66z" />
    <glyph glyph-name="otilde" unicode="&#xf5;" horiz-adv-x="627" 
d="M177 29.5c-40.667 23 -72.667 54.833 -96 95.5s-35 86.667 -35 138s11.667 97.333 35 138s55.333 72.334 96 95.001s86.334 34 137.001 34s96.334 -11.333 137.001 -34s72.5 -54.334 95.5 -95.001s34.5 -86.667 34.5 -138s-11.5 -97.333 -34.5 -138
s-54.833 -72.5 -95.5 -95.5s-86.334 -34.5 -137.001 -34.5s-96.334 11.5 -137.001 34.5zM414.5 83.5c29.667 17 52.834 41.167 69.501 72.5s25 67 25 107s-8.33301 75.667 -25 107s-39.834 55.5 -69.501 72.5s-63.167 25.5 -100.5 25.5s-70.833 -8.5 -100.5 -25.5
s-53 -41.167 -70 -72.5s-25.5 -67 -25.5 -107s8.5 -75.667 25.5 -107s40.333 -55.5 70 -72.5s63.167 -25.5 100.5 -25.5s70.833 8.5 100.5 25.5zM340 624.5c-12 7 -25 16.834 -39 29.501c-12 10 -21.5 17.167 -28.5 21.5s-14.5 6.5 -22.5 6.5
c-15.333 0 -27.666 -5.66699 -36.999 -17s-14.333 -27 -15 -47h-43c1.33301 33.333 10 60 26 80s37.333 30 64 30c15.333 0 28.833 -3.33301 40.5 -10s25.167 -16.667 40.5 -30c10.667 -9.33301 19.667 -16.333 27 -21s15 -7 23 -7c14.667 0 26.667 5.5 36 16.5
s14.666 26.167 15.999 45.5h43c-1.33301 -32.667 -10 -58.834 -26 -78.501s-37.333 -29.5 -64 -29.5c-15.333 0 -29 3.5 -41 10.5z" />
    <glyph glyph-name="odieresis" unicode="&#xf6;" horiz-adv-x="627" 
d="M177 29.5c-40.667 23 -72.667 54.833 -96 95.5s-35 86.667 -35 138s11.667 97.333 35 138s55.333 72.334 96 95.001s86.334 34 137.001 34s96.334 -11.333 137.001 -34s72.5 -54.334 95.5 -95.001s34.5 -86.667 34.5 -138s-11.5 -97.333 -34.5 -138
s-54.833 -72.5 -95.5 -95.5s-86.334 -34.5 -137.001 -34.5s-96.334 11.5 -137.001 34.5zM414.5 83.5c29.667 17 52.834 41.167 69.501 72.5s25 67 25 107s-8.33301 75.667 -25 107s-39.834 55.5 -69.501 72.5s-63.167 25.5 -100.5 25.5s-70.833 -8.5 -100.5 -25.5
s-53 -41.167 -70 -72.5s-25.5 -67 -25.5 -107s8.5 -75.667 25.5 -107s40.333 -55.5 70 -72.5s63.167 -25.5 100.5 -25.5s70.833 8.5 100.5 25.5zM193.5 643c-8.33301 8 -12.5 18.333 -12.5 31c0 12 4.16699 22.167 12.5 30.5s18.5 12.5 30.5 12.5
c11.333 0 21.333 -4.16699 30 -12.5s13 -18.5 13 -30.5s-4.16699 -22.167 -12.5 -30.5s-18.5 -12.5 -30.5 -12.5s-22.167 4 -30.5 12zM371.5 643.5c-8.33301 8.33301 -12.5 18.5 -12.5 30.5s4.33301 22.167 13 30.5s18.667 12.5 30 12.5c12 0 22.167 -4.16699 30.5 -12.5
s12.5 -18.5 12.5 -30.5c0 -12.667 -4.16699 -23 -12.5 -31s-18.5 -12 -30.5 -12s-22.167 4.16699 -30.5 12.5z" />
    <glyph glyph-name="divide" unicode="&#xf7;" horiz-adv-x="575" 
d="M253.5 507c-9 9.33301 -13.501 20.666 -13.501 33.999c0 14 4.5 25.667 13.5 35s20.167 14 33.5 14c14 0 25.5 -4.5 34.5 -13.5s13.5 -20.833 13.5 -35.5c0 -13.333 -4.66699 -24.666 -14 -33.999s-20.666 -14 -33.999 -14s-24.5 4.66699 -33.5 14zM69.999 379h435v-59
h-435v59zM253.499 124c-9 9.33301 -13.5 21 -13.5 35s4.5 25.5 13.5 34.5s20.167 13.5 33.5 13.5s24.666 -4.5 33.999 -13.5s14 -20.5 14 -34.5s-4.66699 -25.667 -14 -35s-20.666 -14 -33.999 -14s-24.5 4.66699 -33.5 14z" />
    <glyph glyph-name="oslash" unicode="&#xf8;" horiz-adv-x="627" 
d="M177 29.5c-40.667 23 -72.667 54.833 -96 95.5s-35 86.667 -35 138s11.667 97.333 35 138s55.333 72.334 96 95.001s86.334 34 137.001 34s96.334 -11.333 137.001 -34s72.5 -54.334 95.5 -95.001s34.5 -86.667 34.5 -138s-11.5 -97.333 -34.5 -138
s-54.833 -72.5 -95.5 -95.5s-86.334 -34.5 -137.001 -34.5s-96.334 11.5 -137.001 34.5zM414.5 83.5c29.667 17 52.834 41.167 69.501 72.5s25 67 25 107s-8.33301 75.667 -25 107s-39.834 55.5 -69.501 72.5s-63.167 25.5 -100.5 25.5s-70.833 -8.5 -100.5 -25.5
s-53 -41.167 -70 -72.5s-25.5 -67 -25.5 -107s8.5 -75.667 25.5 -107s40.333 -55.5 70 -72.5s63.167 -25.5 100.5 -25.5s70.833 8.5 100.5 25.5zM510 594h47l-442 -665h-48z" />
    <glyph glyph-name="ugrave" unicode="&#xf9;" horiz-adv-x="673" 
d="M573 526l0.00195312 -526h-68v96c-18.667 -32 -44.334 -56.833 -77.001 -74.5s-70 -26.5 -112 -26.5c-68.667 0 -122.834 19.167 -162.501 57.5s-59.5 94.5 -59.5 168.5v305h71v-298c0 -55.333 13.667 -97.333 41 -126s66.333 -43 117 -43c55.333 0 99 16.833 131 50.5
s48 80.5 48 140.5v276h71zM167.002 732h95l137 -124h-70z" />
    <glyph glyph-name="uacute" unicode="&#xfa;" horiz-adv-x="673" 
d="M573 526l0.00195312 -526h-68v96c-18.667 -32 -44.334 -56.833 -77.001 -74.5s-70 -26.5 -112 -26.5c-68.667 0 -122.834 19.167 -162.501 57.5s-59.5 94.5 -59.5 168.5v305h71v-298c0 -55.333 13.667 -97.333 41 -126s66.333 -43 117 -43c55.333 0 99 16.833 131 50.5
s48 80.5 48 140.5v276h71zM406.002 732h95l-162 -124h-70z" />
    <glyph glyph-name="ucircumflex" unicode="&#xfb;" horiz-adv-x="673" 
d="M573 526l0.00195312 -526h-68v96c-18.667 -32 -44.334 -56.833 -77.001 -74.5s-70 -26.5 -112 -26.5c-68.667 0 -122.834 19.167 -162.501 57.5s-59.5 94.5 -59.5 168.5v305h71v-298c0 -55.333 13.667 -97.333 41 -126s66.333 -43 117 -43c55.333 0 99 16.833 131 50.5
s48 80.5 48 140.5v276h71zM433.002 608l-99 83l-99 -83h-66l129 124h72l129 -124h-66z" />
    <glyph glyph-name="udieresis" unicode="&#xfc;" horiz-adv-x="673" 
d="M573 526l0.00195312 -526h-68v96c-18.667 -32 -44.334 -56.833 -77.001 -74.5s-70 -26.5 -112 -26.5c-68.667 0 -122.834 19.167 -162.501 57.5s-59.5 94.5 -59.5 168.5v305h71v-298c0 -55.333 13.667 -97.333 41 -126s66.333 -43 117 -43c55.333 0 99 16.833 131 50.5
s48 80.5 48 140.5v276h71zM214.502 643c-8.33301 8 -12.5 18.333 -12.5 31c0 12 4.16699 22.167 12.5 30.5s18.5 12.5 30.5 12.5c11.333 0 21.333 -4.16699 30 -12.5s13 -18.5 13 -30.5s-4.16699 -22.167 -12.5 -30.5s-18.5 -12.5 -30.5 -12.5s-22.167 4 -30.5 12z
M392.502 643.5c-8.33301 8.33301 -12.5 18.5 -12.5 30.5s4.33301 22.167 13 30.5s18.667 12.5 30 12.5c12 0 22.167 -4.16699 30.5 -12.5s12.5 -18.5 12.5 -30.5c0 -12.667 -4.16699 -23 -12.5 -31s-18.5 -12 -30.5 -12s-22.167 4.16699 -30.5 12.5z" />
    <glyph glyph-name="yacute" unicode="&#xfd;" horiz-adv-x="542" 
d="M541 526l-263 -589c-21.333 -49.333 -46 -84.333 -74 -105s-61.667 -31 -101 -31c-25.333 0 -49 4 -71 12s-41 20 -57 36l33 53c26.667 -26.667 58.667 -40 96 -40c24 0 44.5 6.66699 61.5 20s32.833 36 47.5 68l23 51l-235 525h74l198 -447l198 447h70zM329 732h95
l-162 -124h-70z" />
    <glyph glyph-name="thorn" unicode="&#xfe;" horiz-adv-x="678" 
d="M504 496.5c40 -22.333 71.333 -53.832 94 -94.499s34 -87 34 -139c0 -52.667 -11.333 -99.334 -34 -140.001s-53.834 -72.167 -93.501 -94.5s-84.5 -33.5 -134.5 -33.5c-42.667 0 -81.167 8.83301 -115.5 26.5s-62.5 43.5 -84.5 77.5v-293h-71v936h71v-315
c21.333 33.333 49.333 58.833 84 76.5s73.334 26.5 116.001 26.5c49.333 0 94 -11.167 134 -33.5zM465 83.501c30 17 53.5 41.167 70.5 72.5s25.5 67 25.5 107s-8.5 75.5 -25.5 106.5s-40.5 55.167 -70.5 72.5s-63.333 26 -100 26c-37.333 0 -70.833 -8.66699 -100.5 -26
s-53 -41.5 -70 -72.5s-25.5 -66.5 -25.5 -106.5s8.5 -75.667 25.5 -107s40.333 -55.5 70 -72.5s63.167 -25.5 100.5 -25.5c36.667 0 70 8.5 100 25.5z" />
    <glyph glyph-name="ydieresis" unicode="&#xff;" horiz-adv-x="542" 
d="M541 526l-263 -589c-21.333 -49.333 -46 -84.333 -74 -105s-61.667 -31 -101 -31c-25.333 0 -49 4 -71 12s-41 20 -57 36l33 53c26.667 -26.667 58.667 -40 96 -40c24 0 44.5 6.66699 61.5 20s32.833 36 47.5 68l23 51l-235 525h74l198 -447l198 447h70zM137.5 643
c-8.33301 8 -12.5 18.333 -12.5 31c0 12 4.16699 22.167 12.5 30.5s18.5 12.5 30.5 12.5c11.333 0 21.333 -4.16699 30 -12.5s13 -18.5 13 -30.5s-4.16699 -22.167 -12.5 -30.5s-18.5 -12.5 -30.5 -12.5s-22.167 4 -30.5 12zM315.5 643.5
c-8.33301 8.33301 -12.5 18.5 -12.5 30.5s4.33301 22.167 13 30.5s18.667 12.5 30 12.5c12 0 22.167 -4.16699 30.5 -12.5s12.5 -18.5 12.5 -30.5c0 -12.667 -4.16699 -23 -12.5 -31s-18.5 -12 -30.5 -12s-22.167 4.16699 -30.5 12.5z" />
    <glyph glyph-name="Amacron" unicode="&#x100;" horiz-adv-x="717" 
d="M553 187h-390l-84 -187h-77l320 700h73l320 -700h-78zM526 247l-168 376l-168 -376h336zM205 842h308v-47h-308v47z" />
    <glyph glyph-name="amacron" unicode="&#x101;" horiz-adv-x="590" 
d="M441 478.5c36.667 -34.333 55.001 -85.168 55.001 -152.501v-326h-68v82c-16 -27.333 -39.5 -48.666 -70.5 -63.999s-67.833 -23 -110.5 -23c-58.667 0 -105.334 14 -140.001 42s-52 65 -52 111c0 44.667 16.167 80.667 48.5 108s83.833 41 154.5 41h167v32
c0 45.333 -12.667 79.833 -38 103.5s-62.333 35.5 -111 35.5c-33.333 0 -65.333 -5.5 -96 -16.5s-57 -26.167 -79 -45.5l-32 53c26.667 22.667 58.667 40.167 96 52.5s76.666 18.5 117.999 18.5c68.667 0 121.334 -17.167 158.001 -51.5zM361.001 78.498
c28.667 18.333 50 44.834 64 79.501v86h-165c-90 0 -135 -31.333 -135 -94c0 -30.667 11.667 -54.834 35 -72.501s56 -26.5 98 -26.5c40 0 74.333 9.16699 103 27.5zM131.001 692.999h308v-47h-308v47z" />
    <glyph glyph-name="Abreve" unicode="&#x102;" horiz-adv-x="717" 
d="M553 187h-390l-84 -187h-77l320 700h73l320 -700h-78zM526 247l-168 376l-168 -376h336zM252 787c-28.667 23.333 -43.665 54.666 -44.998 93.999h50c0.666992 -26 10.667 -46.667 30 -62s43.333 -23 72 -23s52.667 7.66699 72 23s29.333 36 30 62h50
c-1.33301 -39.333 -16.333 -70.666 -45 -93.999s-64.334 -35 -107.001 -35s-78.334 11.667 -107.001 35z" />
    <glyph glyph-name="abreve" unicode="&#x103;" horiz-adv-x="590" 
d="M441 478.5c36.667 -34.333 55.001 -85.168 55.001 -152.501v-326h-68v82c-16 -27.333 -39.5 -48.666 -70.5 -63.999s-67.833 -23 -110.5 -23c-58.667 0 -105.334 14 -140.001 42s-52 65 -52 111c0 44.667 16.167 80.667 48.5 108s83.833 41 154.5 41h167v32
c0 45.333 -12.667 79.833 -38 103.5s-62.333 35.5 -111 35.5c-33.333 0 -65.333 -5.5 -96 -16.5s-57 -26.167 -79 -45.5l-32 53c26.667 22.667 58.667 40.167 96 52.5s76.666 18.5 117.999 18.5c68.667 0 121.334 -17.167 158.001 -51.5zM361.001 78.498
c28.667 18.333 50 44.834 64 79.501v86h-165c-90 0 -135 -31.333 -135 -94c0 -30.667 11.667 -54.834 35 -72.501s56 -26.5 98 -26.5c40 0 74.333 9.16699 103 27.5zM178.001 637.999c-28.667 23.333 -43.665 54.666 -44.998 93.999h50c0.666992 -26 10.667 -46.667 30 -62
s43.333 -23 72 -23s52.667 7.66699 72 23s29.333 36 30 62h50c-1.33301 -39.333 -16.333 -70.666 -45 -93.999s-64.334 -35 -107.001 -35s-78.334 11.667 -107.001 35z" />
    <glyph glyph-name="Aogonek" unicode="&#x104;" horiz-adv-x="717" 
d="M553 187h-390l-84 -187h-77l320 700h73l320 -700h-78zM526 247l-168 376l-168 -376h336zM571 -194c-20 17.333 -30 40.333 -30 69c0 62 47 112.667 141 152l33 -27c-81.333 -36 -122 -76 -122 -120c0 -18 6 -31.833 18 -41.5s27.667 -14.5 47 -14.5
c26 0 46.667 6.33301 62 19l16 -39c-24 -16 -52.333 -24 -85 -24c-33.333 0 -60 8.66699 -80 26z" />
    <glyph glyph-name="aogonek" unicode="&#x105;" horiz-adv-x="590" 
d="M441 478.5c36.667 -34.333 55.001 -85.168 55.001 -152.501v-326h-68v82c-16 -27.333 -39.5 -48.666 -70.5 -63.999s-67.833 -23 -110.5 -23c-58.667 0 -105.334 14 -140.001 42s-52 65 -52 111c0 44.667 16.167 80.667 48.5 108s83.833 41 154.5 41h167v32
c0 45.333 -12.667 79.833 -38 103.5s-62.333 35.5 -111 35.5c-33.333 0 -65.333 -5.5 -96 -16.5s-57 -26.167 -79 -45.5l-32 53c26.667 22.667 58.667 40.167 96 52.5s76.666 18.5 117.999 18.5c68.667 0 121.334 -17.167 158.001 -51.5zM361.001 78.498
c28.667 18.333 50 44.834 64 79.501v86h-165c-90 0 -135 -31.333 -135 -94c0 -30.667 11.667 -54.834 35 -72.501s56 -26.5 98 -26.5c40 0 74.333 9.16699 103 27.5zM352.001 -194.001c-20 17.333 -30 40.333 -30 69c0 62 47 112.667 141 152l33 -27
c-81.333 -36 -122 -76 -122 -120c0 -18 6 -31.833 18 -41.5s27.667 -14.5 47 -14.5c26 0 46.667 6.33301 62 19l16 -39c-24 -16 -52.333 -24 -85 -24c-33.333 0 -60 8.66699 -80 26z" />
    <glyph glyph-name="Cacute" unicode="&#x106;" horiz-adv-x="719" 
d="M230.5 40c-55.667 30.667 -99.333 73.168 -131 127.501s-47.5 115.166 -47.5 182.499s15.833 128.166 47.5 182.499s75.5 96.833 131.5 127.5s118.667 46 188 46c52 0 100 -8.66699 144 -26s81.333 -42.666 112 -75.999l-47 -47c-54.667 55.333 -123.667 83 -207 83
c-55.333 0 -105.666 -12.667 -150.999 -38s-80.833 -60 -106.5 -104s-38.5 -93.333 -38.5 -148s12.833 -104 38.5 -148s61.167 -78.667 106.5 -104s95.666 -38 150.999 -38c84 0 153 28 207 84l47 -47c-30.667 -33.333 -68.167 -58.833 -112.5 -76.5
s-92.5 -26.5 -144.5 -26.5c-69.333 0 -131.833 15.333 -187.5 46zM482.001 881.001h95l-162 -124h-70z" />
    <glyph glyph-name="cacute" unicode="&#x107;" horiz-adv-x="563" 
d="M177.5 29c-41 22.667 -73.168 54.499 -96.501 95.499s-35 87.167 -35 138.5s11.667 97.333 35 138s55.5 72.334 96.5 95.001s87.5 34 139.5 34c45.333 0 85.833 -8.83301 121.5 -26.5s63.834 -43.5 84.501 -77.5l-53 -36c-17.333 26 -39.333 45.5 -66 58.5
s-55.667 19.5 -87 19.5c-38 0 -72.167 -8.5 -102.5 -25.5s-54 -41.167 -71 -72.5s-25.5 -67 -25.5 -107c0 -40.667 8.5 -76.5 25.5 -107.5s40.667 -55 71 -72s64.5 -25.5 102.5 -25.5c31.333 0 60.333 6.33301 87 19s48.667 32 66 58l53 -36
c-20.667 -34 -49 -59.833 -85 -77.5s-76.333 -26.5 -121 -26.5c-52 0 -98.5 11.333 -139.5 34zM370.999 731.999h95l-162 -124h-70z" />
    <glyph glyph-name="Ccircumflex" unicode="&#x108;" horiz-adv-x="719" 
d="M230.5 40c-55.667 30.667 -99.333 73.168 -131 127.501s-47.5 115.166 -47.5 182.499s15.833 128.166 47.5 182.499s75.5 96.833 131.5 127.5s118.667 46 188 46c52 0 100 -8.66699 144 -26s81.333 -42.666 112 -75.999l-47 -47c-54.667 55.333 -123.667 83 -207 83
c-55.333 0 -105.666 -12.667 -150.999 -38s-80.833 -60 -106.5 -104s-38.5 -93.333 -38.5 -148s12.833 -104 38.5 -148s61.167 -78.667 106.5 -104s95.666 -38 150.999 -38c84 0 153 28 207 84l47 -47c-30.667 -33.333 -68.167 -58.833 -112.5 -76.5
s-92.5 -26.5 -144.5 -26.5c-69.333 0 -131.833 15.333 -187.5 46zM509.001 757.001l-99 83l-99 -83h-66l129 124h72l129 -124h-66z" />
    <glyph glyph-name="ccircumflex" unicode="&#x109;" horiz-adv-x="563" 
d="M177.5 29c-41 22.667 -73.168 54.499 -96.501 95.499s-35 87.167 -35 138.5s11.667 97.333 35 138s55.5 72.334 96.5 95.001s87.5 34 139.5 34c45.333 0 85.833 -8.83301 121.5 -26.5s63.834 -43.5 84.501 -77.5l-53 -36c-17.333 26 -39.333 45.5 -66 58.5
s-55.667 19.5 -87 19.5c-38 0 -72.167 -8.5 -102.5 -25.5s-54 -41.167 -71 -72.5s-25.5 -67 -25.5 -107c0 -40.667 8.5 -76.5 25.5 -107.5s40.667 -55 71 -72s64.5 -25.5 102.5 -25.5c31.333 0 60.333 6.33301 87 19s48.667 32 66 58l53 -36
c-20.667 -34 -49 -59.833 -85 -77.5s-76.333 -26.5 -121 -26.5c-52 0 -98.5 11.333 -139.5 34zM397.999 607.999l-99 83l-99 -83h-66l129 124h72l129 -124h-66z" />
    <glyph glyph-name="Cdotaccent" unicode="&#x10a;" horiz-adv-x="719" 
d="M230.5 40c-55.667 30.667 -99.333 73.168 -131 127.501s-47.5 115.166 -47.5 182.499s15.833 128.166 47.5 182.499s75.5 96.833 131.5 127.5s118.667 46 188 46c52 0 100 -8.66699 144 -26s81.333 -42.666 112 -75.999l-47 -47c-54.667 55.333 -123.667 83 -207 83
c-55.333 0 -105.666 -12.667 -150.999 -38s-80.833 -60 -106.5 -104s-38.5 -93.333 -38.5 -148s12.833 -104 38.5 -148s61.167 -78.667 106.5 -104s95.666 -38 150.999 -38c84 0 153 28 207 84l47 -47c-30.667 -33.333 -68.167 -58.833 -112.5 -76.5
s-92.5 -26.5 -144.5 -26.5c-69.333 0 -131.833 15.333 -187.5 46zM376.001 794.001c-9.33301 9.33301 -14 20.666 -14 33.999s4.66699 24.666 14 33.999s20.666 14 33.999 14s24.666 -4.66699 33.999 -14s14 -20.666 14 -33.999s-4.66699 -24.666 -14 -33.999
s-20.666 -14 -33.999 -14s-24.666 4.66699 -33.999 14z" />
    <glyph glyph-name="cdotaccent" unicode="&#x10b;" horiz-adv-x="563" 
d="M177.5 29c-41 22.667 -73.168 54.499 -96.501 95.499s-35 87.167 -35 138.5s11.667 97.333 35 138s55.5 72.334 96.5 95.001s87.5 34 139.5 34c45.333 0 85.833 -8.83301 121.5 -26.5s63.834 -43.5 84.501 -77.5l-53 -36c-17.333 26 -39.333 45.5 -66 58.5
s-55.667 19.5 -87 19.5c-38 0 -72.167 -8.5 -102.5 -25.5s-54 -41.167 -71 -72.5s-25.5 -67 -25.5 -107c0 -40.667 8.5 -76.5 25.5 -107.5s40.667 -55 71 -72s64.5 -25.5 102.5 -25.5c31.333 0 60.333 6.33301 87 19s48.667 32 66 58l53 -36
c-20.667 -34 -49 -59.833 -85 -77.5s-76.333 -26.5 -121 -26.5c-52 0 -98.5 11.333 -139.5 34zM264.999 644.999c-9.33301 9.33301 -14 20.666 -14 33.999s4.66699 24.666 14 33.999s20.666 14 33.999 14s24.666 -4.66699 33.999 -14s14 -20.666 14 -33.999
s-4.66699 -24.666 -14 -33.999s-20.666 -14 -33.999 -14s-24.666 4.66699 -33.999 14z" />
    <glyph glyph-name="Ccaron" unicode="&#x10c;" horiz-adv-x="719" 
d="M230.5 40c-55.667 30.667 -99.333 73.168 -131 127.501s-47.5 115.166 -47.5 182.499s15.833 128.166 47.5 182.499s75.5 96.833 131.5 127.5s118.667 46 188 46c52 0 100 -8.66699 144 -26s81.333 -42.666 112 -75.999l-47 -47c-54.667 55.333 -123.667 83 -207 83
c-55.333 0 -105.666 -12.667 -150.999 -38s-80.833 -60 -106.5 -104s-38.5 -93.333 -38.5 -148s12.833 -104 38.5 -148s61.167 -78.667 106.5 -104s95.666 -38 150.999 -38c84 0 153 28 207 84l47 -47c-30.667 -33.333 -68.167 -58.833 -112.5 -76.5
s-92.5 -26.5 -144.5 -26.5c-69.333 0 -131.833 15.333 -187.5 46zM575.001 881.001l-129 -124h-72l-129 124h66l99 -82l99 82h66z" />
    <glyph glyph-name="ccaron" unicode="&#x10d;" horiz-adv-x="563" 
d="M177.5 29c-41 22.667 -73.168 54.499 -96.501 95.499s-35 87.167 -35 138.5s11.667 97.333 35 138s55.5 72.334 96.5 95.001s87.5 34 139.5 34c45.333 0 85.833 -8.83301 121.5 -26.5s63.834 -43.5 84.501 -77.5l-53 -36c-17.333 26 -39.333 45.5 -66 58.5
s-55.667 19.5 -87 19.5c-38 0 -72.167 -8.5 -102.5 -25.5s-54 -41.167 -71 -72.5s-25.5 -67 -25.5 -107c0 -40.667 8.5 -76.5 25.5 -107.5s40.667 -55 71 -72s64.5 -25.5 102.5 -25.5c31.333 0 60.333 6.33301 87 19s48.667 32 66 58l53 -36
c-20.667 -34 -49 -59.833 -85 -77.5s-76.333 -26.5 -121 -26.5c-52 0 -98.5 11.333 -139.5 34zM463.999 731.999l-129 -124h-72l-129 124h66l99 -82l99 82h66z" />
    <glyph glyph-name="Dcaron" unicode="&#x10e;" horiz-adv-x="826" 
d="M114 700h285c74 0 139.333 -14.833 196 -44.5s100.667 -71 132 -124s47 -113.5 47 -181.5s-15.667 -128.5 -47 -181.5s-75.333 -94.333 -132 -124s-122 -44.5 -196 -44.5h-285v700zM395 64c61.333 0 115 12.167 161 36.5s81.667 58 107 101s38 92.5 38 148.5
s-12.667 105.5 -38 148.5s-61 76.667 -107 101s-99.667 36.5 -161 36.5h-207v-572h207zM548 880l-129 -124h-72l-129 124h66l99 -82l99 82h66z" />
    <glyph glyph-name="dcaron" unicode="&#x10f;" horiz-adv-x="678" 
d="M579 742v-742.001h-68v104c-21.333 -35.333 -49.5 -62.333 -84.5 -81s-74.5 -28 -118.5 -28c-49.333 0 -94 11.333 -134 34s-71.333 54.334 -94 95.001s-34 87 -34 139s11.333 98.333 34 139s54 72.167 94 94.5s84.667 33.5 134 33.5
c42.667 0 81.167 -8.83301 115.5 -26.5s62.5 -43.5 84.5 -77.5v316h71zM413.5 83.499c29.667 17 53 41.167 70 72.5s25.5 67 25.5 107s-8.5 75.667 -25.5 107s-40.333 55.5 -70 72.5s-62.834 25.5 -99.501 25.5c-37.333 0 -70.833 -8.5 -100.5 -25.5s-53 -41.167 -70 -72.5
s-25.5 -67 -25.5 -107s8.5 -75.667 25.5 -107s40.333 -55.5 70 -72.5s63.167 -25.5 100.5 -25.5c36.667 0 69.834 8.5 99.501 25.5zM672 770.999h60l-9 -189h-51v189z" />
    <glyph glyph-name="Dcroat" unicode="&#x110;" horiz-adv-x="831" 
d="M119 700h285c74 0 139.333 -14.833 196 -44.5s100.667 -71 132 -124s47 -113.5 47 -181.5s-15.667 -128.5 -47 -181.5s-75.333 -94.333 -132 -124s-122 -44.5 -196 -44.5h-285v700zM400 64c61.333 0 115 12.167 161 36.5s81.667 58 107 101s38 92.5 38 148.5
s-12.667 105.5 -38 148.5s-61 76.667 -107 101s-99.667 36.5 -161 36.5h-207v-572h207zM13 386h388v-59h-388v59z" />
    <glyph glyph-name="dcroat" unicode="&#x111;" horiz-adv-x="678" 
d="M579 742v-742.001h-68v104c-21.333 -35.333 -49.5 -62.333 -84.5 -81s-74.5 -28 -118.5 -28c-49.333 0 -94 11.333 -134 34s-71.333 54.334 -94 95.001s-34 87 -34 139s11.333 98.333 34 139s54 72.167 94 94.5s84.667 33.5 134 33.5
c42.667 0 81.167 -8.83301 115.5 -26.5s62.5 -43.5 84.5 -77.5v316h71zM413.5 83.499c29.667 17 53 41.167 70 72.5s25.5 67 25.5 107s-8.5 75.667 -25.5 107s-40.333 55.5 -70 72.5s-62.834 25.5 -99.501 25.5c-37.333 0 -70.833 -8.5 -100.5 -25.5s-53 -41.167 -70 -72.5
s-25.5 -67 -25.5 -107s8.5 -75.667 25.5 -107s40.333 -55.5 70 -72.5s63.167 -25.5 100.5 -25.5c36.667 0 69.834 8.5 99.501 25.5zM288 658.999h390v-52h-390v52z" />
    <glyph glyph-name="Emacron" unicode="&#x112;" horiz-adv-x="669" 
d="M609 64v-64h-495v700h480v-64h-406v-249h362v-63h-362v-260h421zM201 842h308v-47h-308v47z" />
    <glyph glyph-name="emacron" unicode="&#x113;" horiz-adv-x="604" 
d="M557 241l-440.001 -0.000976562c4 -54.667 25 -98.834 63 -132.501s86 -50.5 144 -50.5c32.667 0 62.667 5.83301 90 17.5s51 28.834 71 51.501l40 -46c-23.333 -28 -52.5 -49.333 -87.5 -64s-73.5 -22 -115.5 -22c-54 0 -101.833 11.5 -143.5 34.5
s-74.167 54.833 -97.5 95.5s-35 86.667 -35 138s11.167 97.333 33.5 138s53 72.334 92 95.001s82.833 34 131.5 34s92.334 -11.333 131.001 -34s69 -54.167 91 -94.5s33 -86.5 33 -138.5zM175.499 420.499c-34.333 -32.333 -53.834 -74.5 -58.501 -126.5h373
c-4.66699 52 -24.167 94.167 -58.5 126.5s-77.166 48.5 -128.499 48.5c-50.667 0 -93.167 -16.167 -127.5 -48.5zM148.998 692.999h308v-47h-308v47z" />
    <glyph glyph-name="Ebreve" unicode="&#x114;" horiz-adv-x="669" 
d="M609 64v-64h-495v700h480v-64h-406v-249h362v-63h-362v-260h421zM248 787c-28.667 23.333 -43.665 54.666 -44.998 93.999h50c0.666992 -26 10.667 -46.667 30 -62s43.333 -23 72 -23s52.667 7.66699 72 23s29.333 36 30 62h50
c-1.33301 -39.333 -16.333 -70.666 -45 -93.999s-64.334 -35 -107.001 -35s-78.334 11.667 -107.001 35z" />
    <glyph glyph-name="ebreve" unicode="&#x115;" horiz-adv-x="604" 
d="M557 241l-440.001 -0.000976562c4 -54.667 25 -98.834 63 -132.501s86 -50.5 144 -50.5c32.667 0 62.667 5.83301 90 17.5s51 28.834 71 51.501l40 -46c-23.333 -28 -52.5 -49.333 -87.5 -64s-73.5 -22 -115.5 -22c-54 0 -101.833 11.5 -143.5 34.5
s-74.167 54.833 -97.5 95.5s-35 86.667 -35 138s11.167 97.333 33.5 138s53 72.334 92 95.001s82.833 34 131.5 34s92.334 -11.333 131.001 -34s69 -54.167 91 -94.5s33 -86.5 33 -138.5zM175.499 420.499c-34.333 -32.333 -53.834 -74.5 -58.501 -126.5h373
c-4.66699 52 -24.167 94.167 -58.5 126.5s-77.166 48.5 -128.499 48.5c-50.667 0 -93.167 -16.167 -127.5 -48.5zM195.998 637.999c-28.667 23.333 -43.665 54.666 -44.998 93.999h50c0.666992 -26 10.667 -46.667 30 -62s43.333 -23 72 -23s52.667 7.66699 72 23
s29.333 36 30 62h50c-1.33301 -39.333 -16.333 -70.666 -45 -93.999s-64.334 -35 -107.001 -35s-78.334 11.667 -107.001 35z" />
    <glyph glyph-name="Edotaccent" unicode="&#x116;" horiz-adv-x="669" 
d="M609 64v-64h-495v700h480v-64h-406v-249h362v-63h-362v-260h421zM321 794c-9.33301 9.33301 -14 20.666 -14 33.999s4.66699 24.666 14 33.999s20.666 14 33.999 14s24.666 -4.66699 33.999 -14s14 -20.666 14 -33.999s-4.66699 -24.666 -14 -33.999
s-20.666 -14 -33.999 -14s-24.666 4.66699 -33.999 14z" />
    <glyph glyph-name="edotaccent" unicode="&#x117;" horiz-adv-x="604" 
d="M557 241l-440.001 -0.000976562c4 -54.667 25 -98.834 63 -132.501s86 -50.5 144 -50.5c32.667 0 62.667 5.83301 90 17.5s51 28.834 71 51.501l40 -46c-23.333 -28 -52.5 -49.333 -87.5 -64s-73.5 -22 -115.5 -22c-54 0 -101.833 11.5 -143.5 34.5
s-74.167 54.833 -97.5 95.5s-35 86.667 -35 138s11.167 97.333 33.5 138s53 72.334 92 95.001s82.833 34 131.5 34s92.334 -11.333 131.001 -34s69 -54.167 91 -94.5s33 -86.5 33 -138.5zM175.499 420.499c-34.333 -32.333 -53.834 -74.5 -58.501 -126.5h373
c-4.66699 52 -24.167 94.167 -58.5 126.5s-77.166 48.5 -128.499 48.5c-50.667 0 -93.167 -16.167 -127.5 -48.5zM268.998 644.999c-9.33301 9.33301 -14 20.666 -14 33.999s4.66699 24.666 14 33.999s20.666 14 33.999 14s24.666 -4.66699 33.999 -14
s14 -20.666 14 -33.999s-4.66699 -24.666 -14 -33.999s-20.666 -14 -33.999 -14s-24.666 4.66699 -33.999 14z" />
    <glyph glyph-name="Eogonek" unicode="&#x118;" horiz-adv-x="669" 
d="M609 64v-64h-495v700h480v-64h-406v-249h362v-63h-362v-260h421zM465 -194c-20 17.333 -30 40.333 -30 69c0 62 47 112.667 141 152l33 -27c-81.333 -36 -122 -76 -122 -120c0 -18 6 -31.833 18 -41.5s27.667 -14.5 47 -14.5c26 0 46.667 6.33301 62 19l16 -39
c-24 -16 -52.333 -24 -85 -24c-33.333 0 -60 8.66699 -80 26z" />
    <glyph glyph-name="eogonek" unicode="&#x119;" horiz-adv-x="604" 
d="M557 241l-440 -0.00195312c4 -54.667 25 -98.834 63 -132.501s86 -50.5 144 -50.5c32.667 0 62.667 5.83301 90 17.5s51 28.834 71 51.501l40 -46c-6.66699 -7.33301 -19.334 -19.333 -38.001 -36c-44 -38 -74.167 -69.167 -90.5 -93.5s-24.5 -47.5 -24.5 -69.5
c0 -19.333 6 -33.833 18 -43.5s28 -14.5 48 -14.5c11.333 0 22.5 1.66699 33.5 5s20.167 8 27.5 14l16 -39c-24 -16 -52.333 -24 -85 -24c-33.333 0 -60 8.83301 -80 26.5s-30 41.5 -30 71.5c0 42.667 19 83.334 57 122.001c-20 -3.33301 -38.333 -5 -55 -5
c-54 0 -101.833 11.5 -143.5 34.5s-74.167 54.833 -97.5 95.5s-35 86.667 -35 138s11.167 97.333 33.5 138s53 72.334 92 95.001s82.833 34 131.5 34s92.334 -11.333 131.001 -34s69 -54.167 91 -94.5s33 -86.5 33 -138.5zM175.5 420.498
c-34.333 -32.333 -53.834 -74.5 -58.501 -126.5h373c-4.66699 52 -24.167 94.167 -58.5 126.5s-77.166 48.5 -128.499 48.5c-50.667 0 -93.167 -16.167 -127.5 -48.5z" />
    <glyph glyph-name="Ecaron" unicode="&#x11a;" horiz-adv-x="669" 
d="M609 64v-64h-495v700h480v-64h-406v-249h362v-63h-362v-260h421zM520 881l-129 -124h-72l-129 124h66l99 -82l99 82h66z" />
    <glyph glyph-name="ecaron" unicode="&#x11b;" horiz-adv-x="604" 
d="M557 241l-440.001 -0.000976562c4 -54.667 25 -98.834 63 -132.501s86 -50.5 144 -50.5c32.667 0 62.667 5.83301 90 17.5s51 28.834 71 51.501l40 -46c-23.333 -28 -52.5 -49.333 -87.5 -64s-73.5 -22 -115.5 -22c-54 0 -101.833 11.5 -143.5 34.5
s-74.167 54.833 -97.5 95.5s-35 86.667 -35 138s11.167 97.333 33.5 138s53 72.334 92 95.001s82.833 34 131.5 34s92.334 -11.333 131.001 -34s69 -54.167 91 -94.5s33 -86.5 33 -138.5zM175.499 420.499c-34.333 -32.333 -53.834 -74.5 -58.501 -126.5h373
c-4.66699 52 -24.167 94.167 -58.5 126.5s-77.166 48.5 -128.499 48.5c-50.667 0 -93.167 -16.167 -127.5 -48.5zM467.998 731.999l-129 -124h-72l-129 124h66l99 -82l99 82h66z" />
    <glyph glyph-name="Gcircumflex" unicode="&#x11c;" horiz-adv-x="773" 
d="M607 350l71 0.00195312v-267c-32.667 -28.667 -71.334 -50.667 -116.001 -66s-91.667 -23 -141 -23c-70 0 -133 15.333 -189 46s-100 73.167 -132 127.5s-48 115.166 -48 182.499s16 128.166 48 182.499s76 96.833 132 127.5s119.333 46 190 46
c53.333 0 102.333 -8.5 147 -25.5s82.334 -42.167 113.001 -75.5l-46 -47c-55.333 54.667 -125.666 82 -210.999 82c-56.667 0 -107.834 -12.5 -153.501 -37.5s-81.5 -59.667 -107.5 -104s-39 -93.833 -39 -148.5s13 -104 39 -148s61.667 -78.667 107 -104
s96.333 -38 153 -38c72 0 133 18 183 54v236zM507 757.002l-99 83l-99 -83h-66l129 124h72l129 -124h-66z" />
    <glyph glyph-name="gcircumflex" unicode="&#x11d;" horiz-adv-x="686" 
d="M586 526l0.000976562 -461.999c0 -89.333 -21.833 -155.5 -65.5 -198.5s-109.5 -64.5 -197.5 -64.5c-48.667 0 -94.834 7.16699 -138.501 21.5s-79.167 34.166 -106.5 59.499l36 54c25.333 -22.667 56.166 -40.334 92.499 -53.001s74.5 -19 114.5 -19
c66.667 0 115.667 15.5 147 46.5s47 79.167 47 144.5v67c-22 -33.333 -50.833 -58.666 -86.5 -75.999s-75.167 -26 -118.5 -26c-49.333 0 -94.166 10.833 -134.499 32.5s-72 52 -95 91s-34.5 83.167 -34.5 132.5s11.5 93.333 34.5 132s54.5 68.667 94.5 90s85 32 135 32
c44.667 0 85 -9 121 -27s65 -44 87 -78v101h68zM420.001 107.501c30.667 16.333 54.5 39.165 71.5 68.498s25.5 62.666 25.5 99.999s-8.5 70.5 -25.5 99.5s-40.667 51.667 -71 68s-64.833 24.5 -103.5 24.5c-38 0 -72.167 -8 -102.5 -24s-54 -38.667 -71 -68
s-25.5 -62.666 -25.5 -99.999s8.5 -70.666 25.5 -99.999s40.667 -52.166 71 -68.499s64.5 -24.5 102.5 -24.5s72.333 8.16699 103 24.5zM424.001 608l-99 83l-99 -83h-66l129 124h72l129 -124h-66z" />
    <glyph glyph-name="Gbreve" unicode="&#x11e;" horiz-adv-x="773" 
d="M607 350l71 0.00195312v-267c-32.667 -28.667 -71.334 -50.667 -116.001 -66s-91.667 -23 -141 -23c-70 0 -133 15.333 -189 46s-100 73.167 -132 127.5s-48 115.166 -48 182.499s16 128.166 48 182.499s76 96.833 132 127.5s119.333 46 190 46
c53.333 0 102.333 -8.5 147 -25.5s82.334 -42.167 113.001 -75.5l-46 -47c-55.333 54.667 -125.666 82 -210.999 82c-56.667 0 -107.834 -12.5 -153.501 -37.5s-81.5 -59.667 -107.5 -104s-39 -93.833 -39 -148.5s13 -104 39 -148s61.667 -78.667 107 -104
s96.333 -38 153 -38c72 0 133 18 183 54v236zM301 787.002c-28.667 23.333 -43.665 54.666 -44.998 93.999h50c0.666992 -26 10.667 -46.667 30 -62s43.333 -23 72 -23s52.667 7.66699 72 23s29.333 36 30 62h50c-1.33301 -39.333 -16.333 -70.666 -45 -93.999
s-64.334 -35 -107.001 -35s-78.334 11.667 -107.001 35z" />
    <glyph glyph-name="gbreve" unicode="&#x11f;" horiz-adv-x="686" 
d="M586 526l0.000976562 -461.999c0 -89.333 -21.833 -155.5 -65.5 -198.5s-109.5 -64.5 -197.5 -64.5c-48.667 0 -94.834 7.16699 -138.501 21.5s-79.167 34.166 -106.5 59.499l36 54c25.333 -22.667 56.166 -40.334 92.499 -53.001s74.5 -19 114.5 -19
c66.667 0 115.667 15.5 147 46.5s47 79.167 47 144.5v67c-22 -33.333 -50.833 -58.666 -86.5 -75.999s-75.167 -26 -118.5 -26c-49.333 0 -94.166 10.833 -134.499 32.5s-72 52 -95 91s-34.5 83.167 -34.5 132.5s11.5 93.333 34.5 132s54.5 68.667 94.5 90s85 32 135 32
c44.667 0 85 -9 121 -27s65 -44 87 -78v101h68zM420.001 107.501c30.667 16.333 54.5 39.165 71.5 68.498s25.5 62.666 25.5 99.999s-8.5 70.5 -25.5 99.5s-40.667 51.667 -71 68s-64.833 24.5 -103.5 24.5c-38 0 -72.167 -8 -102.5 -24s-54 -38.667 -71 -68
s-25.5 -62.666 -25.5 -99.999s8.5 -70.666 25.5 -99.999s40.667 -52.166 71 -68.499s64.5 -24.5 102.5 -24.5s72.333 8.16699 103 24.5zM218.001 638c-28.667 23.333 -43.665 54.666 -44.998 93.999h50c0.666992 -26 10.667 -46.667 30 -62s43.333 -23 72 -23
s52.667 7.66699 72 23s29.333 36 30 62h50c-1.33301 -39.333 -16.333 -70.666 -45 -93.999s-64.334 -35 -107.001 -35s-78.334 11.667 -107.001 35z" />
    <glyph glyph-name="Gdotaccent" unicode="&#x120;" horiz-adv-x="773" 
d="M607 350l71 0.00195312v-267c-32.667 -28.667 -71.334 -50.667 -116.001 -66s-91.667 -23 -141 -23c-70 0 -133 15.333 -189 46s-100 73.167 -132 127.5s-48 115.166 -48 182.499s16 128.166 48 182.499s76 96.833 132 127.5s119.333 46 190 46
c53.333 0 102.333 -8.5 147 -25.5s82.334 -42.167 113.001 -75.5l-46 -47c-55.333 54.667 -125.666 82 -210.999 82c-56.667 0 -107.834 -12.5 -153.501 -37.5s-81.5 -59.667 -107.5 -104s-39 -93.833 -39 -148.5s13 -104 39 -148s61.667 -78.667 107 -104
s96.333 -38 153 -38c72 0 133 18 183 54v236zM374 794.002c-9.33301 9.33301 -14 20.666 -14 33.999s4.66699 24.666 14 33.999s20.666 14 33.999 14s24.666 -4.66699 33.999 -14s14 -20.666 14 -33.999s-4.66699 -24.666 -14 -33.999s-20.666 -14 -33.999 -14
s-24.666 4.66699 -33.999 14z" />
    <glyph glyph-name="gdotaccent" unicode="&#x121;" horiz-adv-x="686" 
d="M586 526l0.000976562 -461.999c0 -89.333 -21.833 -155.5 -65.5 -198.5s-109.5 -64.5 -197.5 -64.5c-48.667 0 -94.834 7.16699 -138.501 21.5s-79.167 34.166 -106.5 59.499l36 54c25.333 -22.667 56.166 -40.334 92.499 -53.001s74.5 -19 114.5 -19
c66.667 0 115.667 15.5 147 46.5s47 79.167 47 144.5v67c-22 -33.333 -50.833 -58.666 -86.5 -75.999s-75.167 -26 -118.5 -26c-49.333 0 -94.166 10.833 -134.499 32.5s-72 52 -95 91s-34.5 83.167 -34.5 132.5s11.5 93.333 34.5 132s54.5 68.667 94.5 90s85 32 135 32
c44.667 0 85 -9 121 -27s65 -44 87 -78v101h68zM420.001 107.501c30.667 16.333 54.5 39.165 71.5 68.498s25.5 62.666 25.5 99.999s-8.5 70.5 -25.5 99.5s-40.667 51.667 -71 68s-64.833 24.5 -103.5 24.5c-38 0 -72.167 -8 -102.5 -24s-54 -38.667 -71 -68
s-25.5 -62.666 -25.5 -99.999s8.5 -70.666 25.5 -99.999s40.667 -52.166 71 -68.499s64.5 -24.5 102.5 -24.5s72.333 8.16699 103 24.5zM291.001 645c-9.33301 9.33301 -14 20.666 -14 33.999s4.66699 24.666 14 33.999s20.666 14 33.999 14s24.666 -4.66699 33.999 -14
s14 -20.666 14 -33.999s-4.66699 -24.666 -14 -33.999s-20.666 -14 -33.999 -14s-24.666 4.66699 -33.999 14z" />
    <glyph glyph-name="Gcommaaccent" unicode="&#x122;" horiz-adv-x="773" 
d="M607 350l71 0.00195312v-267c-32.667 -28.667 -71.334 -50.667 -116.001 -66s-91.667 -23 -141 -23c-70 0 -133 15.333 -189 46s-100 73.167 -132 127.5s-48 115.166 -48 182.499s16 128.166 48 182.499s76 96.833 132 127.5s119.333 46 190 46
c53.333 0 102.333 -8.5 147 -25.5s82.334 -42.167 113.001 -75.5l-46 -47c-55.333 54.667 -125.666 82 -210.999 82c-56.667 0 -107.834 -12.5 -153.501 -37.5s-81.5 -59.667 -107.5 -104s-39 -93.833 -39 -148.5s13 -104 39 -148s61.667 -78.667 107 -104
s96.333 -38 153 -38c72 0 133 18 183 54v236zM435 -115.498c8 -7.66699 12 -16.832 12 -27.499c0 -13.333 -3.66699 -28.333 -11 -45l-28 -74h-39l21 82c-9.33301 2 -16.5 6.33301 -21.5 13s-7.5 14.667 -7.5 24c0 11.333 4 20.666 12 27.999s18.333 11 31 11
s23 -3.83301 31 -11.5z" />
    <glyph glyph-name="gcommaaccent" unicode="&#x123;" horiz-adv-x="686" 
d="M586 526l0.000976562 -461.999c0 -89.333 -21.833 -155.5 -65.5 -198.5s-109.5 -64.5 -197.5 -64.5c-48.667 0 -94.834 7.16699 -138.501 21.5s-79.167 34.166 -106.5 59.499l36 54c25.333 -22.667 56.166 -40.334 92.499 -53.001s74.5 -19 114.5 -19
c66.667 0 115.667 15.5 147 46.5s47 79.167 47 144.5v67c-22 -33.333 -50.833 -58.666 -86.5 -75.999s-75.167 -26 -118.5 -26c-49.333 0 -94.166 10.833 -134.499 32.5s-72 52 -95 91s-34.5 83.167 -34.5 132.5s11.5 93.333 34.5 132s54.5 68.667 94.5 90s85 32 135 32
c44.667 0 85 -9 121 -27s65 -44 87 -78v101h68zM420.001 107.501c30.667 16.333 54.5 39.165 71.5 68.498s25.5 62.666 25.5 99.999s-8.5 70.5 -25.5 99.5s-40.667 51.667 -71 68s-64.833 24.5 -103.5 24.5c-38 0 -72.167 -8 -102.5 -24s-54 -38.667 -71 -68
s-25.5 -62.666 -25.5 -99.999s8.5 -70.666 25.5 -99.999s40.667 -52.166 71 -68.499s64.5 -24.5 102.5 -24.5s72.333 8.16699 103 24.5zM362.501 666c5.66699 -6.66699 8.5 -14.667 8.5 -24c0 -11.333 -4.16699 -20.666 -12.5 -27.999s-19.5 -11 -33.5 -11
c-14.667 0 -26 3.66699 -34 11s-12 16.666 -12 27.999c0 6.66699 1 13.5 3 20.5s4.66699 14.833 8 23.5l35 96h43l-28 -103c9.33301 -2 16.833 -6.33301 22.5 -13z" />
    <glyph glyph-name="Hcircumflex" unicode="&#x124;" horiz-adv-x="813" 
d="M699 700v-700h-73v323h-438v-323h-74v700h74v-312h438v312h73zM505 757l-99 83l-99 -83h-66l129 124h72l129 -124h-66z" />
    <glyph glyph-name="hcircumflex" unicode="&#x125;" horiz-adv-x="677" 
d="M524.5 472.5c39 -38.333 58.5 -94.1689 58.5 -167.502v-305h-71v298c0 54.667 -13.667 96.334 -41 125.001s-66.333 43 -117 43c-56.667 0 -101.5 -16.833 -134.5 -50.5s-49.5 -80.167 -49.5 -139.5v-276h-71v742h71v-308c19.333 30.667 46 54.334 80 71.001
s73 25 117 25c66 0 118.5 -19.167 157.5 -57.5zM234 798.997l-99 83l-99 -83h-66l129 124h72l129 -124h-66z" />
    <glyph glyph-name="Hbar" unicode="&#x126;" horiz-adv-x="823" 
d="M704 700v-700h-73v323h-438v-323h-74v700h74v-312h438v312h73zM12 578h797v-60h-797v60z" />
    <glyph glyph-name="hbar" unicode="&#x127;" horiz-adv-x="677" 
d="M524.5 472.5c39 -38.333 58.5 -94.1689 58.5 -167.502v-305h-71v298c0 54.667 -13.667 96.334 -41 125.001s-66.333 43 -117 43c-56.667 0 -101.5 -16.833 -134.5 -50.5s-49.5 -80.167 -49.5 -139.5v-276h-71v742h71v-308c19.333 30.667 46 54.334 80 71.001
s73 25 117 25c66 0 118.5 -19.167 157.5 -57.5zM0 658.997h390v-52h-390v52z" />
    <glyph glyph-name="Itilde" unicode="&#x128;" horiz-adv-x="302" 
d="M114 700h74v-700h-74v700zM178 773.5c-12 7 -25 16.834 -39 29.501c-12 10 -21.5 17.167 -28.5 21.5s-14.5 6.5 -22.5 6.5c-15.333 0 -27.666 -5.66699 -36.999 -17s-14.333 -27 -15 -47h-43c1.33301 33.333 10 60 26 80s37.333 30 64 30
c15.333 0 28.833 -3.33301 40.5 -10s25.167 -16.667 40.5 -30c10.667 -9.33301 19.667 -16.333 27 -21s15 -7 23 -7c14.667 0 26.667 5.5 36 16.5s14.666 26.167 15.999 45.5h43c-1.33301 -32.667 -10 -58.834 -26 -78.501s-37.333 -29.5 -64 -29.5
c-15.333 0 -29 3.5 -41 10.5z" />
    <glyph glyph-name="itilde" unicode="&#x129;" horiz-adv-x="269" 
d="M99 526h71v-526h-71v526zM155.5 624.5c-10.333 7 -21.833 17.166 -34.5 30.499c-10 10 -17.667 17 -23 21s-11 6 -17 6c-11.333 0 -20.166 -5.66699 -26.499 -17s-9.5 -27 -9.5 -47h-43c0 34.667 6.66699 61.667 20 81s32 29 56 29c14 0 26 -3.33301 36 -10
s21.667 -16.667 35 -30c10 -10 17.667 -17 23 -21s11 -6 17 -6c11.333 0 20.166 5.33301 26.499 16s9.5 25.667 9.5 45h43c0 -33.333 -6.66699 -59.666 -20 -78.999s-32 -29 -56 -29c-14 0 -26.167 3.5 -36.5 10.5z" />
    <glyph glyph-name="Imacron" unicode="&#x12a;" horiz-adv-x="302" 
d="M114 700h74v-700h-74v700zM25 842h252v-47h-252v47z" />
    <glyph glyph-name="imacron" unicode="&#x12b;" horiz-adv-x="269" 
d="M99 526h71v-526h-71v526zM9 693h252v-47h-252v47z" />
    <glyph glyph-name="Ibreve" unicode="&#x12c;" horiz-adv-x="302" 
d="M114 700h74v-700h-74v700zM44 787c-28.667 23.333 -43.665 54.666 -44.998 93.999h50c0.666992 -26 10.667 -46.667 30 -62s43.333 -23 72 -23s52.667 7.66699 72 23s29.333 36 30 62h50c-1.33301 -39.333 -16.333 -70.666 -45 -93.999s-64.334 -35 -107.001 -35
s-78.334 11.667 -107.001 35z" />
    <glyph glyph-name="ibreve" unicode="&#x12d;" horiz-adv-x="269" 
d="M99 526h71v-526h-71v526zM43.5 638c-23.667 23.333 -35.5 54.666 -35.5 93.999h48c0 -26.667 7.16699 -47.5 21.5 -62.5s33.5 -22.5 57.5 -22.5s43.333 7.66699 58 23s22 36 22 62h47c0 -39.333 -11.833 -70.666 -35.5 -93.999s-54.167 -35 -91.5 -35
s-67.833 11.667 -91.5 35z" />
    <glyph glyph-name="Iogonek" unicode="&#x12e;" horiz-adv-x="302" 
d="M114 700h74v-700h-74v700zM102.5 -195c-16.333 16.667 -24.5 38.665 -24.5 65.998c0 56 28 108 84 156l26 -27c-22.667 -23.333 -38 -44.666 -46 -63.999s-12 -38.666 -12 -57.999c0 -16.667 4.33301 -30 13 -40s19.334 -15 32.001 -15
c13.333 0 25.666 4.66699 36.999 14l14 -36c-14 -14 -33.667 -21 -59 -21c-26.667 0 -48.167 8.33301 -64.5 25z" />
    <glyph glyph-name="iogonek" unicode="&#x12f;" horiz-adv-x="269" 
d="M99 526h71v-526h-71v526zM98 657c-10 10 -15 22 -15 36c0 13.333 5 25 15 35s22.333 15 37 15s27 -4.83301 37 -14.5s15 -21.167 15 -34.5c0 -14.667 -5 -27 -15 -37s-22.333 -15 -37 -15s-27 5 -37 15zM84.5 -195c-16.333 16.667 -24.5 38.665 -24.5 65.998
c0 56 28 108 84 156l26 -27c-22.667 -23.333 -38 -44.666 -46 -63.999s-12 -38.666 -12 -57.999c0 -16.667 4.33301 -30 13 -40s19.334 -15 32.001 -15c13.333 0 25.666 4.66699 36.999 14l14 -36c-14 -14 -33.667 -21 -59 -21c-26.667 0 -48.167 8.33301 -64.5 25z" />
    <glyph glyph-name="Idotaccent" unicode="&#x130;" horiz-adv-x="302" 
d="M114 700h74v-700h-74v700zM117 794c-9.33301 9.33301 -14 20.666 -14 33.999s4.66699 24.666 14 33.999s20.666 14 33.999 14s24.666 -4.66699 33.999 -14s14 -20.666 14 -33.999s-4.66699 -24.666 -14 -33.999s-20.666 -14 -33.999 -14s-24.666 4.66699 -33.999 14z" />
    <glyph glyph-name="dotlessi" unicode="&#x131;" horiz-adv-x="269" 
d="M99 526h71v-526h-71v526z" />
    <glyph glyph-name="IJ" unicode="&#x132;" horiz-adv-x="718" 
d="M202.5 12.5c-39.667 12.333 -74.5 29.167 -104.5 50.5l30 59c28 -20 59.167 -35.333 93.5 -46s70.166 -16 107.499 -16c66.667 0 117.834 19.833 153.501 59.5s53.5 99.5 53.5 179.5v401h74v-398c0 -100 -25.333 -176.333 -76 -229s-119.667 -79 -207 -79
c-43.333 0 -84.833 6.16699 -124.5 18.5zM108 700.001h74v-398h-74v398z" />
    <glyph glyph-name="ij" unicode="&#x133;" horiz-adv-x="543" 
d="M99 526h71v-526h-71v526zM98 656c-10 10 -15 22 -15 36c0 13.333 5 25 15 35s22.333 15 37 15s27 -4.83301 37 -14.5s15 -21.167 15 -34.5c0 -14.667 -5 -27 -15 -37s-22.333 -15 -37 -15s-27 5 -37 15zM227.5 -190.5c-19.667 5.66699 -35.833 14.166 -48.5 25.499l25 54
c20.667 -18 48 -27 82 -27c28 0 49.5 8.33301 64.5 25s22.5 41.334 22.5 74.001v565h71v-565c0 -49.333 -13.333 -88.333 -40 -117s-64.667 -43 -114 -43c-22 0 -42.833 2.83301 -62.5 8.5zM372.001 656.999c-10 10 -15 22 -15 36c0 13.333 5 25 15 35s22.333 15 37 15
s27 -4.83301 37 -14.5s15 -21.167 15 -34.5c0 -14.667 -5 -27 -15 -37s-22.333 -15 -37 -15s-27 5 -37 15z" />
    <glyph glyph-name="Jcircumflex" unicode="&#x134;" horiz-adv-x="501" 
d="M78 20c-34 17.333 -61.668 42 -83.001 74l44 50c38.667 -57.333 89 -86 151 -86c86.667 0 130 51.333 130 154v424h-256v64h329v-485c0 -73.333 -17.167 -128.5 -51.5 -165.5s-85.166 -55.5 -152.499 -55.5c-40 0 -77 8.66699 -111 26zM327.999 757l-99 83l-99 -83h-66
l129 124h72l129 -124h-66z" />
    <glyph glyph-name="jcircumflex" unicode="&#x135;" horiz-adv-x="274" 
d="M-41.5 -190.5c-19.667 5.66699 -35.833 14.166 -48.5 25.499l25 54c20.667 -18 48 -27 82 -27c28 0 49.5 8.33301 64.5 25s22.5 41.334 22.5 74.001v565h71v-565c0 -49.333 -13.333 -88.333 -40 -117s-64.667 -43 -114 -43c-22 0 -42.833 2.83301 -62.5 8.5z
M216.001 607.999l-76 81l-76 -81h-64l105 124h70l105 -124h-64z" />
    <glyph glyph-name="Kcommaaccent" unicode="&#x136;" horiz-adv-x="711" 
d="M331 329l-143 -145v-184h-74v700h74v-423l411 423h85l-303 -317l324 -383h-88zM404 -115.5c8 -7.66699 12 -16.832 12 -27.499c0 -13.333 -3.66699 -28.333 -11 -45l-28 -74h-39l21 82c-9.33301 2 -16.5 6.33301 -21.5 13s-7.5 14.667 -7.5 24
c0 11.333 4 20.666 12 27.999s18.333 11 31 11s23 -3.83301 31 -11.5z" />
    <glyph glyph-name="kcommaaccent" unicode="&#x137;" horiz-adv-x="601" 
d="M294 264l-124 -114v-150h-71v742h71v-503l314 287h88l-225 -215l246 -311h-87zM342 -115.5c8 -7.66699 12 -16.832 12 -27.499c0 -13.333 -3.66699 -28.333 -11 -45l-28 -74h-39l21 82c-9.33301 2 -16.5 6.33301 -21.5 13s-7.5 14.667 -7.5 24
c0 11.333 4 20.666 12 27.999s18.333 11 31 11s23 -3.83301 31 -11.5z" />
    <glyph glyph-name="kgreenlandic" unicode="&#x138;" horiz-adv-x="590" 
d="M294 264l-124 -114v-150h-71v526h71v-287l314 287h88l-225 -215l246 -311h-87z" />
    <glyph glyph-name="Lacute" unicode="&#x139;" horiz-adv-x="589" 
d="M114 700h74v-636h392v-64h-466v700zM223 881h95l-162 -124h-70z" />
    <glyph glyph-name="lacute" unicode="&#x13a;" horiz-adv-x="269" 
d="M99 742h71v-742h-71v742zM207 948h95l-162 -124h-70z" />
    <glyph glyph-name="Lcommaaccent" unicode="&#x13b;" horiz-adv-x="589" 
d="M114 700h74v-636h392v-64h-466v700zM389 -115.5c8 -7.66699 12 -16.832 12 -27.499c0 -13.333 -3.66699 -28.333 -11 -45l-28 -74h-39l21 82c-9.33301 2 -16.5 6.33301 -21.5 13s-7.5 14.667 -7.5 24c0 11.333 4 20.666 12 27.999s18.333 11 31 11s23 -3.83301 31 -11.5z
" />
    <glyph glyph-name="lcommaaccent" unicode="&#x13c;" horiz-adv-x="269" 
d="M99 742h71v-742h-71v742zM166 -115.5c8 -7.66699 12 -16.832 12 -27.499c0 -13.333 -3.66699 -28.333 -11 -45l-28 -74h-39l21 82c-9.33301 2 -16.5 6.33301 -21.5 13s-7.5 14.667 -7.5 24c0 11.333 4 20.666 12 27.999s18.333 11 31 11s23 -3.83301 31 -11.5z" />
    <glyph glyph-name="Lcaron" unicode="&#x13d;" horiz-adv-x="589" 
d="M114 700h74v-636h392v-64h-466v700zM440 729h60l-9 -189h-51v189z" />
    <glyph glyph-name="lcaron" unicode="&#x13e;" horiz-adv-x="269" 
d="M99 742h71v-742h-71v742zM262 771h60l-9 -189h-51v189z" />
    <glyph glyph-name="Ldot" unicode="&#x13f;" horiz-adv-x="589" 
d="M114 700h74v-636h392v-64h-466v700zM410.5 346.5c-9.66699 9.66699 -14.5 21.5 -14.5 35.5c0 14.667 4.83301 26.667 14.5 36s21.167 14 34.5 14c14 0 25.667 -4.66699 35 -14s14 -21.333 14 -36c0 -14 -4.66699 -25.833 -14 -35.5s-21 -14.5 -35 -14.5
c-13.333 0 -24.833 4.83301 -34.5 14.5z" />
    <glyph glyph-name="ldot" unicode="&#x140;" horiz-adv-x="314" 
d="M99 742h71v-742h-71v742zM258.5 321.5c-9 9 -13.5 20.167 -13.5 33.5s4.5 24.5 13.5 33.5s20.167 13.5 33.5 13.5s24.5 -4.5 33.5 -13.5s13.5 -20.167 13.5 -33.5c0 -12.667 -4.5 -23.667 -13.5 -33s-20.167 -14 -33.5 -14s-24.5 4.5 -33.5 13.5z" />
    <glyph glyph-name="Lslash" unicode="&#x141;" horiz-adv-x="594" 
d="M119 700h74v-636h392v-64h-466v700zM19 301l292 220l34 -43l-293 -219z" />
    <glyph glyph-name="lslash" unicode="&#x142;" horiz-adv-x="279" 
d="M104 742h71v-742h-71v742zM3 287l242 182l32 -44l-241 -181z" />
    <glyph glyph-name="Nacute" unicode="&#x143;" horiz-adv-x="813" 
d="M699 700v-700h-61l-450 568v-568h-74v700h61l451 -568v568h73zM478 881h95l-162 -124h-70z" />
    <glyph glyph-name="nacute" unicode="&#x144;" horiz-adv-x="677" 
d="M524.5 472.5c39 -38.333 58.502 -94.168 58.502 -167.501v-305h-71v298c0 54.667 -13.667 96.334 -41 125.001s-66.333 43 -117 43c-56.667 0 -101.5 -16.833 -134.5 -50.5s-49.5 -80.167 -49.5 -139.5v-276h-71v526h68v-97c19.333 32 46.166 56.833 80.499 74.5
s74.166 26.5 119.499 26.5c66 0 118.5 -19.167 157.5 -57.5zM412.002 731.998h95l-162 -124h-70z" />
    <glyph glyph-name="Ncommaaccent" unicode="&#x145;" horiz-adv-x="813" 
d="M699 700v-700h-61l-450 568v-568h-74v700h61l451 -568v568h73zM437 -115.5c8 -7.66699 12 -16.832 12 -27.499c0 -13.333 -3.66699 -28.333 -11 -45l-28 -74h-39l21 82c-9.33301 2 -16.5 6.33301 -21.5 13s-7.5 14.667 -7.5 24c0 11.333 4 20.666 12 27.999
s18.333 11 31 11s23 -3.83301 31 -11.5z" />
    <glyph glyph-name="ncommaaccent" unicode="&#x146;" horiz-adv-x="677" 
d="M524.5 472.5c39 -38.333 58.502 -94.168 58.502 -167.501v-305h-71v298c0 54.667 -13.667 96.334 -41 125.001s-66.333 43 -117 43c-56.667 0 -101.5 -16.833 -134.5 -50.5s-49.5 -80.167 -49.5 -139.5v-276h-71v526h68v-97c19.333 32 46.166 56.833 80.499 74.5
s74.166 26.5 119.499 26.5c66 0 118.5 -19.167 157.5 -57.5zM371.002 -115.502c8 -7.66699 12 -16.832 12 -27.499c0 -13.333 -3.66699 -28.333 -11 -45l-28 -74h-39l21 82c-9.33301 2 -16.5 6.33301 -21.5 13s-7.5 14.667 -7.5 24c0 11.333 4 20.666 12 27.999
s18.333 11 31 11s23 -3.83301 31 -11.5z" />
    <glyph glyph-name="Ncaron" unicode="&#x147;" horiz-adv-x="813" 
d="M699 700v-700h-61l-450 568v-568h-74v700h61l451 -568v568h73zM571 881l-129 -124h-72l-129 124h66l99 -82l99 82h66z" />
    <glyph glyph-name="ncaron" unicode="&#x148;" horiz-adv-x="677" 
d="M524.5 472.5c39 -38.333 58.502 -94.168 58.502 -167.501v-305h-71v298c0 54.667 -13.667 96.334 -41 125.001s-66.333 43 -117 43c-56.667 0 -101.5 -16.833 -134.5 -50.5s-49.5 -80.167 -49.5 -139.5v-276h-71v526h68v-97c19.333 32 46.166 56.833 80.499 74.5
s74.166 26.5 119.499 26.5c66 0 118.5 -19.167 157.5 -57.5zM505.002 731.998l-129 -124h-72l-129 124h66l99 -82l99 82h66z" />
    <glyph glyph-name="napostrophe" unicode="&#x149;" horiz-adv-x="750" 
d="M61 700h51l-13 -260h-42zM597.5 472.5c39 -38.333 58.502 -94.168 58.502 -167.501v-305h-71v298c0 54.667 -13.667 96.334 -41 125.001s-66.333 43 -117 43c-56.667 0 -101.5 -16.833 -134.5 -50.5s-49.5 -80.167 -49.5 -139.5v-276h-71v526h68v-97
c19.333 32 46.166 56.833 80.499 74.5s74.166 26.5 119.499 26.5c66 0 118.5 -19.167 157.5 -57.5z" />
    <glyph glyph-name="Eng" unicode="&#x14a;" horiz-adv-x="813" 
d="M699 700v-672.001c0 -151.333 -67.333 -227 -202 -227c-36 0 -69.5 7.5 -100.5 22.5s-56.833 36.167 -77.5 63.5l37 52c36.667 -49.333 83.667 -74 141 -74c42.667 0 74.667 12.333 96 37s32.333 62.334 33 113.001l-438 553v-568h-74v700h61l451 -568v568h73z" />
    <glyph glyph-name="eng" unicode="&#x14b;" horiz-adv-x="677" 
d="M524.5 472.5c39 -38.333 58.5029 -94.1689 58.5029 -167.502v-344c0 -49.333 -13.5 -88.333 -40.5 -117s-64.833 -43 -113.5 -43c-22 0 -42.833 2.83301 -62.5 8.5s-35.834 14.167 -48.501 25.5l25 54c20 -18 47.333 -27 82 -27c28 0 49.5 8.33301 64.5 25
s22.5 41.334 22.5 74.001v337c0 54.667 -13.667 96.334 -41 125.001s-66.333 43 -117 43c-56.667 0 -101.5 -16.833 -134.5 -50.5s-49.5 -80.167 -49.5 -139.5v-276h-71v526h68v-97c19.333 32 46.166 56.833 80.499 74.5s74.166 26.5 119.499 26.5
c66 0 118.5 -19.167 157.5 -57.5z" />
    <glyph glyph-name="Omacron" unicode="&#x14c;" horiz-adv-x="839" 
d="M231.5 40.5c-56.333 31 -100.333 73.498 -132 127.498s-47.5 114.667 -47.5 182s15.833 128 47.5 182s75.667 96.5 132 127.5s119.166 46.5 188.499 46.5s131.833 -15.333 187.5 -46s99.5 -73.167 131.5 -127.5s48 -115.166 48 -182.499s-16 -128.166 -48 -182.499
s-75.833 -96.833 -131.5 -127.5s-118.167 -46 -187.5 -46s-132.166 15.5 -188.499 46.5zM570 97.498c44.667 25 79.667 59.667 105 104s38 93.833 38 148.5s-12.667 104.167 -38 148.5s-60.333 79 -105 104s-94.667 37.5 -150 37.5s-105.5 -12.5 -150.5 -37.5
s-80.333 -59.667 -106 -104s-38.5 -93.833 -38.5 -148.5s12.833 -104.167 38.5 -148.5s61 -79 106 -104s95.167 -37.5 150.5 -37.5s105.333 12.5 150 37.5zM266 841.998h308v-47h-308v47z" />
    <glyph glyph-name="omacron" unicode="&#x14d;" horiz-adv-x="627" 
d="M177 29.5c-40.667 23 -72.667 54.833 -96 95.5s-35 86.667 -35 138s11.667 97.333 35 138s55.333 72.334 96 95.001s86.334 34 137.001 34s96.334 -11.333 137.001 -34s72.5 -54.334 95.5 -95.001s34.5 -86.667 34.5 -138s-11.5 -97.333 -34.5 -138
s-54.833 -72.5 -95.5 -95.5s-86.334 -34.5 -137.001 -34.5s-96.334 11.5 -137.001 34.5zM414.5 83.5c29.667 17 52.834 41.167 69.501 72.5s25 67 25 107s-8.33301 75.667 -25 107s-39.834 55.5 -69.501 72.5s-63.167 25.5 -100.5 25.5s-70.833 -8.5 -100.5 -25.5
s-53 -41.167 -70 -72.5s-25.5 -67 -25.5 -107s8.5 -75.667 25.5 -107s40.333 -55.5 70 -72.5s63.167 -25.5 100.5 -25.5s70.833 8.5 100.5 25.5zM159 693h308v-47h-308v47z" />
    <glyph glyph-name="Obreve" unicode="&#x14e;" horiz-adv-x="839" 
d="M231.5 40.5c-56.333 31 -100.333 73.498 -132 127.498s-47.5 114.667 -47.5 182s15.833 128 47.5 182s75.667 96.5 132 127.5s119.166 46.5 188.499 46.5s131.833 -15.333 187.5 -46s99.5 -73.167 131.5 -127.5s48 -115.166 48 -182.499s-16 -128.166 -48 -182.499
s-75.833 -96.833 -131.5 -127.5s-118.167 -46 -187.5 -46s-132.166 15.5 -188.499 46.5zM570 97.498c44.667 25 79.667 59.667 105 104s38 93.833 38 148.5s-12.667 104.167 -38 148.5s-60.333 79 -105 104s-94.667 37.5 -150 37.5s-105.5 -12.5 -150.5 -37.5
s-80.333 -59.667 -106 -104s-38.5 -93.833 -38.5 -148.5s12.833 -104.167 38.5 -148.5s61 -79 106 -104s95.167 -37.5 150.5 -37.5s105.333 12.5 150 37.5zM313 786.998c-28.667 23.333 -43.665 54.666 -44.998 93.999h50c0.666992 -26 10.667 -46.667 30 -62
s43.333 -23 72 -23s52.667 7.66699 72 23s29.333 36 30 62h50c-1.33301 -39.333 -16.333 -70.666 -45 -93.999s-64.334 -35 -107.001 -35s-78.334 11.667 -107.001 35z" />
    <glyph glyph-name="obreve" unicode="&#x14f;" horiz-adv-x="627" 
d="M177 29.5c-40.667 23 -72.667 54.833 -96 95.5s-35 86.667 -35 138s11.667 97.333 35 138s55.333 72.334 96 95.001s86.334 34 137.001 34s96.334 -11.333 137.001 -34s72.5 -54.334 95.5 -95.001s34.5 -86.667 34.5 -138s-11.5 -97.333 -34.5 -138
s-54.833 -72.5 -95.5 -95.5s-86.334 -34.5 -137.001 -34.5s-96.334 11.5 -137.001 34.5zM414.5 83.5c29.667 17 52.834 41.167 69.501 72.5s25 67 25 107s-8.33301 75.667 -25 107s-39.834 55.5 -69.501 72.5s-63.167 25.5 -100.5 25.5s-70.833 -8.5 -100.5 -25.5
s-53 -41.167 -70 -72.5s-25.5 -67 -25.5 -107s8.5 -75.667 25.5 -107s40.333 -55.5 70 -72.5s63.167 -25.5 100.5 -25.5s70.833 8.5 100.5 25.5zM206 638c-28.667 23.333 -43.665 54.666 -44.998 93.999h50c0.666992 -26 10.667 -46.667 30 -62s43.333 -23 72 -23
s52.667 7.66699 72 23s29.333 36 30 62h50c-1.33301 -39.333 -16.333 -70.666 -45 -93.999s-64.334 -35 -107.001 -35s-78.334 11.667 -107.001 35z" />
    <glyph glyph-name="Ohungarumlaut" unicode="&#x150;" horiz-adv-x="839" 
d="M231.5 40.5c-56.333 31 -100.333 73.498 -132 127.498s-47.5 114.667 -47.5 182s15.833 128 47.5 182s75.667 96.5 132 127.5s119.166 46.5 188.499 46.5s131.833 -15.333 187.5 -46s99.5 -73.167 131.5 -127.5s48 -115.166 48 -182.499s-16 -128.166 -48 -182.499
s-75.833 -96.833 -131.5 -127.5s-118.167 -46 -187.5 -46s-132.166 15.5 -188.499 46.5zM570 97.498c44.667 25 79.667 59.667 105 104s38 93.833 38 148.5s-12.667 104.167 -38 148.5s-60.333 79 -105 104s-94.667 37.5 -150 37.5s-105.5 -12.5 -150.5 -37.5
s-80.333 -59.667 -106 -104s-38.5 -93.833 -38.5 -148.5s12.833 -104.167 38.5 -148.5s61 -79 106 -104s95.167 -37.5 150.5 -37.5s105.333 12.5 150 37.5zM404 880.998h79l-113 -124h-63zM566 880.998h79l-112 -124h-63z" />
    <glyph glyph-name="ohungarumlaut" unicode="&#x151;" horiz-adv-x="627" 
d="M177 29.5c-40.667 23 -72.667 54.833 -96 95.5s-35 86.667 -35 138s11.667 97.333 35 138s55.333 72.334 96 95.001s86.334 34 137.001 34s96.334 -11.333 137.001 -34s72.5 -54.334 95.5 -95.001s34.5 -86.667 34.5 -138s-11.5 -97.333 -34.5 -138
s-54.833 -72.5 -95.5 -95.5s-86.334 -34.5 -137.001 -34.5s-96.334 11.5 -137.001 34.5zM414.5 83.5c29.667 17 52.834 41.167 69.501 72.5s25 67 25 107s-8.33301 75.667 -25 107s-39.834 55.5 -69.501 72.5s-63.167 25.5 -100.5 25.5s-70.833 -8.5 -100.5 -25.5
s-53 -41.167 -70 -72.5s-25.5 -67 -25.5 -107s8.5 -75.667 25.5 -107s40.333 -55.5 70 -72.5s63.167 -25.5 100.5 -25.5s70.833 8.5 100.5 25.5zM297 732h79l-113 -124h-63zM459 732h79l-112 -124h-63z" />
    <glyph glyph-name="OE" unicode="&#x152;" horiz-adv-x="1121" 
d="M1061 64v-64.001h-634c-73.333 0 -138.5 14.833 -195.5 44.5s-101.167 70.834 -132.5 123.501s-47 113 -47 181c0 68.667 15.667 129.5 47 182.5s75.333 94.333 132 124s122 44.5 196 44.5h619v-64h-406v-249h362v-63h-362v-260h421zM566 63.999v571.998h-136
c-60.667 0 -114.167 -12.167 -160.5 -36.5s-82 -58.166 -107 -101.499s-37.5 -93 -37.5 -149c0 -55.333 12.5 -104.666 37.5 -147.999s60.667 -77 107 -101s99.833 -36 160.5 -36h136z" />
    <glyph glyph-name="oe" unicode="&#x153;" horiz-adv-x="1068" 
d="M1021 241l-440.998 -0.000976562c4 -54.667 25.167 -98.834 63.5 -132.501s86.5 -50.5 144.5 -50.5c32.667 0 62.667 5.83301 90 17.5s50.666 28.834 69.999 51.501l40 -46c-23.333 -28 -52.333 -49.333 -87 -64s-73 -22 -115 -22c-55.333 0 -104 12.167 -146 36.5
s-74 57.5 -96 99.5c-21.333 -42 -52 -75.167 -92 -99.5s-86 -36.5 -138 -36.5c-50.667 0 -96.334 11.5 -137.001 34.5s-72.667 54.833 -96 95.5s-35 86.667 -35 138s11.667 97.333 35 138s55.333 72.334 96 95.001s86.334 34 137.001 34c51.333 0 97.166 -12 137.499 -36
s71.166 -56.667 92.499 -98c20.667 41.333 50.5 74 89.5 98s83.5 36 133.5 36c48.667 0 92.334 -11.333 131.001 -34s69 -54.167 91 -94.5s33 -86.5 33 -138.5zM639.002 419.999c-34.667 -32.667 -54.3301 -74.667 -58.9971 -126h374
c-4.66699 51.333 -24.334 93.333 -59.001 126s-77.334 49 -128.001 49s-93.334 -16.333 -128.001 -49zM414.506 83.499c29.667 17 52.834 41.167 69.501 72.5s25 67 25 107s-8.33301 75.667 -25 107s-39.834 55.5 -69.501 72.5s-63.167 25.5 -100.5 25.5
s-70.833 -8.5 -100.5 -25.5s-53 -41.167 -70 -72.5s-25.5 -67 -25.5 -107s8.5 -75.667 25.5 -107s40.333 -55.5 70 -72.5s63.167 -25.5 100.5 -25.5s70.833 8.5 100.5 25.5z" />
    <glyph glyph-name="Racute" unicode="&#x154;" horiz-adv-x="723" 
d="M592 0l-160 225.003c-18 -2 -36.667 -3 -56 -3h-188v-222h-74v700h262c89.333 0 159.333 -21.333 210 -64s76 -101.334 76 -176.001c0 -54.667 -13.833 -100.834 -41.5 -138.501s-67.167 -64.834 -118.5 -81.501l171 -240h-81zM533 331.003
c36.667 30.667 55 73.667 55 129c0 56.667 -18.333 100.167 -55 130.5s-89.667 45.5 -159 45.5h-186v-351h186c69.333 0 122.333 15.333 159 46zM441 881.003h95l-162 -124h-70z" />
    <glyph glyph-name="racute" unicode="&#x155;" horiz-adv-x="401" 
d="M241.5 503c33 18 73.832 27 122.499 27v-69l-17 1c-55.333 0 -98.666 -17 -129.999 -51s-47 -81.667 -47 -143v-268h-71v526h68v-103c16.667 35.333 41.5 62 74.5 80zM303.999 732h95l-162 -124h-70z" />
    <glyph glyph-name="Rcommaaccent" unicode="&#x156;" horiz-adv-x="723" 
d="M592 0l-160 225.003c-18 -2 -36.667 -3 -56 -3h-188v-222h-74v700h262c89.333 0 159.333 -21.333 210 -64s76 -101.334 76 -176.001c0 -54.667 -13.833 -100.834 -41.5 -138.501s-67.167 -64.834 -118.5 -81.501l171 -240h-81zM533 331.003
c36.667 30.667 55 73.667 55 129c0 56.667 -18.333 100.167 -55 130.5s-89.667 45.5 -159 45.5h-186v-351h186c69.333 0 122.333 15.333 159 46zM400 -115.497c8 -7.66699 12 -16.832 12 -27.499c0 -13.333 -3.66699 -28.333 -11 -45l-28 -74h-39l21 82
c-9.33301 2 -16.5 6.33301 -21.5 13s-7.5 14.667 -7.5 24c0 11.333 4 20.666 12 27.999s18.333 11 31 11s23 -3.83301 31 -11.5z" />
    <glyph glyph-name="rcommaaccent" unicode="&#x157;" horiz-adv-x="401" 
d="M241.5 503c33 18 73.832 27 122.499 27v-69l-17 1c-55.333 0 -98.666 -17 -129.999 -51s-47 -81.667 -47 -143v-268h-71v526h68v-103c16.667 35.333 41.5 62 74.5 80zM165.999 -115.5c8 -7.66699 12 -16.832 12 -27.499c0 -13.333 -3.66699 -28.333 -11 -45l-28 -74h-39
l21 82c-9.33301 2 -16.5 6.33301 -21.5 13s-7.5 14.667 -7.5 24c0 11.333 4 20.666 12 27.999s18.333 11 31 11s23 -3.83301 31 -11.5z" />
    <glyph glyph-name="Rcaron" unicode="&#x158;" horiz-adv-x="723" 
d="M592 0l-160 225.003c-18 -2 -36.667 -3 -56 -3h-188v-222h-74v700h262c89.333 0 159.333 -21.333 210 -64s76 -101.334 76 -176.001c0 -54.667 -13.833 -100.834 -41.5 -138.501s-67.167 -64.834 -118.5 -81.501l171 -240h-81zM533 331.003
c36.667 30.667 55 73.667 55 129c0 56.667 -18.333 100.167 -55 130.5s-89.667 45.5 -159 45.5h-186v-351h186c69.333 0 122.333 15.333 159 46zM534 881.003l-129 -124h-72l-129 124h66l99 -82l99 82h66z" />
    <glyph glyph-name="rcaron" unicode="&#x159;" horiz-adv-x="401" 
d="M241.5 503c33 18 73.832 27 122.499 27v-69l-17 1c-55.333 0 -98.666 -17 -129.999 -51s-47 -81.667 -47 -143v-268h-71v526h68v-103c16.667 35.333 41.5 62 74.5 80zM396.999 732l-129 -124h-72l-129 124h66l99 -82l99 82h66z" />
    <glyph glyph-name="Sacute" unicode="&#x15a;" horiz-adv-x="615" 
d="M157.5 19c-47.667 16.667 -84.5039 38.6699 -110.504 66.0029l29 57c25.333 -25.333 59 -45.833 101 -61.5s85.333 -23.5 130 -23.5c62.667 0 109.667 11.5 141 34.5s47 52.833 47 89.5c0 28 -8.5 50.333 -25.5 67s-37.833 29.5 -62.5 38.5s-59 18.833 -103 29.5
c-52.667 13.333 -94.667 26.166 -126 38.499s-58.166 31.166 -80.499 56.499s-33.5 59.666 -33.5 102.999c0 35.333 9.33301 67.5 28 96.5s47.334 52.167 86.001 69.5s86.667 26 144 26c40 0 79.167 -5.5 117.5 -16.5s71.5 -26.167 99.5 -45.5l-25 -59
c-29.333 19.333 -60.666 33.833 -93.999 43.5s-66 14.5 -98 14.5c-61.333 0 -107.5 -11.833 -138.5 -35.5s-46.5 -54.167 -46.5 -91.5c0 -28 8.5 -50.5 25.5 -67.5s38.333 -30 64 -39s60.167 -18.833 103.5 -29.5c51.333 -12.667 92.833 -25.167 124.5 -37.5
s58.5 -31 80.5 -56s33 -58.833 33 -101.5c0 -35.333 -9.5 -67.5 -28.5 -96.5s-48.167 -52 -87.5 -69s-87.666 -25.5 -144.999 -25.5c-52 0 -101.833 8.33301 -149.5 25zM392.996 881.003h95l-162 -124h-70z" />
    <glyph glyph-name="sacute" unicode="&#x15b;" horiz-adv-x="489" 
d="M117.5 13.5c-39 12.333 -69.5 27.833 -91.5 46.5l32 56c22 -17.333 49.667 -31.5 83 -42.5s68 -16.5 104 -16.5c48 0 83.5 7.5 106.5 22.5s34.5 36.167 34.5 63.5c0 19.333 -6.33301 34.5 -19 45.5s-28.667 19.333 -48 25s-45 11.167 -77 16.5
c-42.667 8 -77 16.167 -103 24.5s-48.167 22.5 -66.5 42.5s-27.5 47.667 -27.5 83c0 44 18.333 80 55 108s87.667 42 153 42c34 0 68 -4.5 102 -13.5s62 -20.833 84 -35.5l-31 -57c-43.333 30 -95 45 -155 45c-45.333 0 -79.5 -8 -102.5 -24s-34.5 -37 -34.5 -63
c0 -20 6.5 -36 19.5 -48s29.167 -20.833 48.5 -26.5s46 -11.5 80 -17.5c42 -8 75.667 -16 101 -24s47 -21.667 65 -41s27 -46 27 -80c0 -46 -19.167 -82.5 -57.5 -109.5s-91.5 -40.5 -159.5 -40.5c-42.667 0 -83.5 6.16699 -122.5 18.5zM315 732h95l-162 -124h-70z" />
    <glyph glyph-name="Scircumflex" unicode="&#x15c;" horiz-adv-x="615" 
d="M157.5 19c-47.667 16.667 -84.5039 38.6699 -110.504 66.0029l29 57c25.333 -25.333 59 -45.833 101 -61.5s85.333 -23.5 130 -23.5c62.667 0 109.667 11.5 141 34.5s47 52.833 47 89.5c0 28 -8.5 50.333 -25.5 67s-37.833 29.5 -62.5 38.5s-59 18.833 -103 29.5
c-52.667 13.333 -94.667 26.166 -126 38.499s-58.166 31.166 -80.499 56.499s-33.5 59.666 -33.5 102.999c0 35.333 9.33301 67.5 28 96.5s47.334 52.167 86.001 69.5s86.667 26 144 26c40 0 79.167 -5.5 117.5 -16.5s71.5 -26.167 99.5 -45.5l-25 -59
c-29.333 19.333 -60.666 33.833 -93.999 43.5s-66 14.5 -98 14.5c-61.333 0 -107.5 -11.833 -138.5 -35.5s-46.5 -54.167 -46.5 -91.5c0 -28 8.5 -50.5 25.5 -67.5s38.333 -30 64 -39s60.167 -18.833 103.5 -29.5c51.333 -12.667 92.833 -25.167 124.5 -37.5
s58.5 -31 80.5 -56s33 -58.833 33 -101.5c0 -35.333 -9.5 -67.5 -28.5 -96.5s-48.167 -52 -87.5 -69s-87.666 -25.5 -144.999 -25.5c-52 0 -101.833 8.33301 -149.5 25zM419.996 757.003l-99 83l-99 -83h-66l129 124h72l129 -124h-66z" />
    <glyph glyph-name="scircumflex" unicode="&#x15d;" horiz-adv-x="489" 
d="M117.5 13.5c-39 12.333 -69.5 27.833 -91.5 46.5l32 56c22 -17.333 49.667 -31.5 83 -42.5s68 -16.5 104 -16.5c48 0 83.5 7.5 106.5 22.5s34.5 36.167 34.5 63.5c0 19.333 -6.33301 34.5 -19 45.5s-28.667 19.333 -48 25s-45 11.167 -77 16.5
c-42.667 8 -77 16.167 -103 24.5s-48.167 22.5 -66.5 42.5s-27.5 47.667 -27.5 83c0 44 18.333 80 55 108s87.667 42 153 42c34 0 68 -4.5 102 -13.5s62 -20.833 84 -35.5l-31 -57c-43.333 30 -95 45 -155 45c-45.333 0 -79.5 -8 -102.5 -24s-34.5 -37 -34.5 -63
c0 -20 6.5 -36 19.5 -48s29.167 -20.833 48.5 -26.5s46 -11.5 80 -17.5c42 -8 75.667 -16 101 -24s47 -21.667 65 -41s27 -46 27 -80c0 -46 -19.167 -82.5 -57.5 -109.5s-91.5 -40.5 -159.5 -40.5c-42.667 0 -83.5 6.16699 -122.5 18.5zM342 608l-99 83l-99 -83h-66l129 124
h72l129 -124h-66z" />
    <glyph glyph-name="Scedilla" unicode="&#x15e;" horiz-adv-x="615" 
d="M157.5 19c-47.667 16.667 -84.5039 38.6699 -110.504 66.0029l29 57c25.333 -25.333 59 -45.833 101 -61.5s85.333 -23.5 130 -23.5c62.667 0 109.667 11.5 141 34.5s47 52.833 47 89.5c0 28 -8.5 50.333 -25.5 67s-37.833 29.5 -62.5 38.5s-59 18.833 -103 29.5
c-52.667 13.333 -94.667 26.166 -126 38.499s-58.166 31.166 -80.499 56.499s-33.5 59.666 -33.5 102.999c0 35.333 9.33301 67.5 28 96.5s47.334 52.167 86.001 69.5s86.667 26 144 26c40 0 79.167 -5.5 117.5 -16.5s71.5 -26.167 99.5 -45.5l-25 -59
c-29.333 19.333 -60.666 33.833 -93.999 43.5s-66 14.5 -98 14.5c-61.333 0 -107.5 -11.833 -138.5 -35.5s-46.5 -54.167 -46.5 -91.5c0 -28 8.5 -50.5 25.5 -67.5s38.333 -30 64 -39s60.167 -18.833 103.5 -29.5c51.333 -12.667 92.833 -25.167 124.5 -37.5
s58.5 -31 80.5 -56s33 -58.833 33 -101.5c0 -35.333 -9.5 -67.5 -28.5 -96.5s-48.167 -52 -87.5 -69s-87.666 -25.5 -144.999 -25.5c-52 0 -101.833 8.33301 -149.5 25zM214.996 -196.997l17 38.001c19.333 -12.667 41.333 -19 66 -19c20 0 35.333 4 46 12s16 19.667 16 35
c0 14 -5.16699 25.167 -15.5 33.5s-25.833 12.5 -46.5 12.5h-23l24 91h43l-15 -58c27.333 -2.66699 48.333 -11.167 63 -25.5s22 -32.833 22 -55.5c0 -26.667 -10.333 -47.834 -31 -63.501s-48 -23.5 -82 -23.5c-32.667 0 -60.667 7.66699 -84 23z" />
    <glyph glyph-name="scedilla" unicode="&#x15f;" horiz-adv-x="489" 
d="M117.5 13.5c-39 12.333 -69.5 27.833 -91.5 46.5l32 56c22 -17.333 49.667 -31.5 83 -42.5s68 -16.5 104 -16.5c48 0 83.5 7.5 106.5 22.5s34.5 36.167 34.5 63.5c0 19.333 -6.33301 34.5 -19 45.5s-28.667 19.333 -48 25s-45 11.167 -77 16.5
c-42.667 8 -77 16.167 -103 24.5s-48.167 22.5 -66.5 42.5s-27.5 47.667 -27.5 83c0 44 18.333 80 55 108s87.667 42 153 42c34 0 68 -4.5 102 -13.5s62 -20.833 84 -35.5l-31 -57c-43.333 30 -95 45 -155 45c-45.333 0 -79.5 -8 -102.5 -24s-34.5 -37 -34.5 -63
c0 -20 6.5 -36 19.5 -48s29.167 -20.833 48.5 -26.5s46 -11.5 80 -17.5c42 -8 75.667 -16 101 -24s47 -21.667 65 -41s27 -46 27 -80c0 -46 -19.167 -82.5 -57.5 -109.5s-91.5 -40.5 -159.5 -40.5c-42.667 0 -83.5 6.16699 -122.5 18.5zM137 -197l17 38.001
c19.333 -12.667 41.333 -19 66 -19c20 0 35.333 4 46 12s16 19.667 16 35c0 14 -5.16699 25.167 -15.5 33.5s-25.833 12.5 -46.5 12.5h-23l24 91h43l-15 -58c27.333 -2.66699 48.333 -11.167 63 -25.5s22 -32.833 22 -55.5c0 -26.667 -10.333 -47.834 -31 -63.501
s-48 -23.5 -82 -23.5c-32.667 0 -60.667 7.66699 -84 23z" />
    <glyph glyph-name="Scaron" unicode="&#x160;" horiz-adv-x="615" 
d="M157.5 19c-47.667 16.667 -84.5039 38.6699 -110.504 66.0029l29 57c25.333 -25.333 59 -45.833 101 -61.5s85.333 -23.5 130 -23.5c62.667 0 109.667 11.5 141 34.5s47 52.833 47 89.5c0 28 -8.5 50.333 -25.5 67s-37.833 29.5 -62.5 38.5s-59 18.833 -103 29.5
c-52.667 13.333 -94.667 26.166 -126 38.499s-58.166 31.166 -80.499 56.499s-33.5 59.666 -33.5 102.999c0 35.333 9.33301 67.5 28 96.5s47.334 52.167 86.001 69.5s86.667 26 144 26c40 0 79.167 -5.5 117.5 -16.5s71.5 -26.167 99.5 -45.5l-25 -59
c-29.333 19.333 -60.666 33.833 -93.999 43.5s-66 14.5 -98 14.5c-61.333 0 -107.5 -11.833 -138.5 -35.5s-46.5 -54.167 -46.5 -91.5c0 -28 8.5 -50.5 25.5 -67.5s38.333 -30 64 -39s60.167 -18.833 103.5 -29.5c51.333 -12.667 92.833 -25.167 124.5 -37.5
s58.5 -31 80.5 -56s33 -58.833 33 -101.5c0 -35.333 -9.5 -67.5 -28.5 -96.5s-48.167 -52 -87.5 -69s-87.666 -25.5 -144.999 -25.5c-52 0 -101.833 8.33301 -149.5 25zM485.996 881.003l-129 -124h-72l-129 124h66l99 -82l99 82h66z" />
    <glyph glyph-name="scaron" unicode="&#x161;" horiz-adv-x="489" 
d="M117.5 13.5c-39 12.333 -69.5 27.833 -91.5 46.5l32 56c22 -17.333 49.667 -31.5 83 -42.5s68 -16.5 104 -16.5c48 0 83.5 7.5 106.5 22.5s34.5 36.167 34.5 63.5c0 19.333 -6.33301 34.5 -19 45.5s-28.667 19.333 -48 25s-45 11.167 -77 16.5
c-42.667 8 -77 16.167 -103 24.5s-48.167 22.5 -66.5 42.5s-27.5 47.667 -27.5 83c0 44 18.333 80 55 108s87.667 42 153 42c34 0 68 -4.5 102 -13.5s62 -20.833 84 -35.5l-31 -57c-43.333 30 -95 45 -155 45c-45.333 0 -79.5 -8 -102.5 -24s-34.5 -37 -34.5 -63
c0 -20 6.5 -36 19.5 -48s29.167 -20.833 48.5 -26.5s46 -11.5 80 -17.5c42 -8 75.667 -16 101 -24s47 -21.667 65 -41s27 -46 27 -80c0 -46 -19.167 -82.5 -57.5 -109.5s-91.5 -40.5 -159.5 -40.5c-42.667 0 -83.5 6.16699 -122.5 18.5zM408 732l-129 -124h-72l-129 124h66
l99 -82l99 82h66z" />
    <glyph glyph-name="uni0162" unicode="&#x162;" horiz-adv-x="574" 
d="M250 636h-246v64h566v-64h-246v-636h-74v636zM181 -197l17 38.001c19.333 -12.667 41.333 -19 66 -19c20 0 35.333 4 46 12s16 19.667 16 35c0 14 -5.16699 25.167 -15.5 33.5s-25.833 12.5 -46.5 12.5h-23l24 91h43l-15 -58c27.333 -2.66699 48.333 -11.167 63 -25.5
s22 -32.833 22 -55.5c0 -26.667 -10.333 -47.834 -31 -63.501s-48 -23.5 -82 -23.5c-32.667 0 -60.667 7.66699 -84 23z" />
    <glyph glyph-name="uni0163" unicode="&#x163;" horiz-adv-x="406" 
d="M376 32c-13.333 -12 -29.834 -21.1699 -49.501 -27.5029s-40.167 -9.5 -61.5 -9.5c-49.333 0 -87.333 13.333 -114 40s-40 64.334 -40 113.001v318h-94v60h94v115h71v-115h160v-60h-160v-314c0 -31.333 7.83301 -55.166 23.5 -71.499s38.167 -24.5 67.5 -24.5
c14.667 0 28.834 2.33301 42.501 7s25.5 11.334 35.5 20.001zM142.999 -197.003l17 38.001c19.333 -12.667 41.333 -19 66 -19c20 0 35.333 4 46 12s16 19.667 16 35c0 14 -5.16699 25.167 -15.5 33.5s-25.833 12.5 -46.5 12.5h-23l24 91h43l-15 -58
c27.333 -2.66699 48.333 -11.167 63 -25.5s22 -32.833 22 -55.5c0 -26.667 -10.333 -47.834 -31 -63.501s-48 -23.5 -82 -23.5c-32.667 0 -60.667 7.66699 -84 23z" />
    <glyph glyph-name="Tcaron" unicode="&#x164;" horiz-adv-x="574" 
d="M250 636h-246v64h566v-64h-246v-636h-74v636zM452 881l-129 -124h-72l-129 124h66l99 -82l99 82h66z" />
    <glyph glyph-name="tcaron" unicode="&#x165;" horiz-adv-x="406" 
d="M376 32c-13.333 -12 -29.834 -21.1699 -49.501 -27.5029s-40.167 -9.5 -61.5 -9.5c-49.333 0 -87.333 13.333 -114 40s-40 64.334 -40 113.001v318h-94v60h94v115h71v-115h160v-60h-160v-314c0 -31.333 7.83301 -55.166 23.5 -71.499s38.167 -24.5 67.5 -24.5
c14.667 0 28.834 2.33301 42.501 7s25.5 11.334 35.5 20.001zM272.999 763.997h57l-9 -166h-48v166z" />
    <glyph glyph-name="Tbar" unicode="&#x166;" horiz-adv-x="574" 
d="M250 636h-246v64h566v-64h-246v-636h-74v636zM93 375h388v-59h-388v59z" />
    <glyph glyph-name="tbar" unicode="&#x167;" horiz-adv-x="416" 
d="M381 32c-13.333 -12 -29.834 -21.1699 -49.501 -27.5029s-40.167 -9.5 -61.5 -9.5c-49.333 0 -87.333 13.333 -114 40s-40 64.334 -40 113.001v318h-94v60h94v115h71v-115h160v-60h-160v-314c0 -31.333 7.83301 -55.166 23.5 -71.499s38.167 -24.5 67.5 -24.5
c14.667 0 28.834 2.33301 42.501 7s25.5 11.334 35.5 20.001zM33.999 320.997h302v-51h-302v51z" />
    <glyph glyph-name="Utilde" unicode="&#x168;" horiz-adv-x="792" 
d="M184 72c-50.667 52 -75.999 127.667 -75.999 227v401h74v-398c0 -81.333 18.333 -142 55 -182s89.667 -60 159 -60c70 0 123.333 20 160 60s55 100.667 55 182v398h72v-401c0 -99.333 -25.167 -175 -75.5 -227s-120.833 -78 -211.5 -78s-161.334 26 -212.001 78z
M423.001 773.5c-12 7 -25 16.834 -39 29.501c-12 10 -21.5 17.167 -28.5 21.5s-14.5 6.5 -22.5 6.5c-15.333 0 -27.666 -5.66699 -36.999 -17s-14.333 -27 -15 -47h-43c1.33301 33.333 10 60 26 80s37.333 30 64 30c15.333 0 28.833 -3.33301 40.5 -10
s25.167 -16.667 40.5 -30c10.667 -9.33301 19.667 -16.333 27 -21s15 -7 23 -7c14.667 0 26.667 5.5 36 16.5s14.666 26.167 15.999 45.5h43c-1.33301 -32.667 -10 -58.834 -26 -78.501s-37.333 -29.5 -64 -29.5c-15.333 0 -29 3.5 -41 10.5z" />
    <glyph glyph-name="utilde" unicode="&#x169;" horiz-adv-x="673" 
d="M573 526l0.00195312 -526h-68v96c-18.667 -32 -44.334 -56.833 -77.001 -74.5s-70 -26.5 -112 -26.5c-68.667 0 -122.834 19.167 -162.501 57.5s-59.5 94.5 -59.5 168.5v305h71v-298c0 -55.333 13.667 -97.333 41 -126s66.333 -43 117 -43c55.333 0 99 16.833 131 50.5
s48 80.5 48 140.5v276h71zM361.002 624.5c-12 7 -25 16.834 -39 29.501c-12 10 -21.5 17.167 -28.5 21.5s-14.5 6.5 -22.5 6.5c-15.333 0 -27.666 -5.66699 -36.999 -17s-14.333 -27 -15 -47h-43c1.33301 33.333 10 60 26 80s37.333 30 64 30
c15.333 0 28.833 -3.33301 40.5 -10s25.167 -16.667 40.5 -30c10.667 -9.33301 19.667 -16.333 27 -21s15 -7 23 -7c14.667 0 26.667 5.5 36 16.5s14.666 26.167 15.999 45.5h43c-1.33301 -32.667 -10 -58.834 -26 -78.501s-37.333 -29.5 -64 -29.5
c-15.333 0 -29 3.5 -41 10.5z" />
    <glyph glyph-name="Umacron" unicode="&#x16a;" horiz-adv-x="792" 
d="M184 72c-50.667 52 -75.999 127.667 -75.999 227v401h74v-398c0 -81.333 18.333 -142 55 -182s89.667 -60 159 -60c70 0 123.333 20 160 60s55 100.667 55 182v398h72v-401c0 -99.333 -25.167 -175 -75.5 -227s-120.833 -78 -211.5 -78s-161.334 26 -212.001 78z
M242.001 842h308v-47h-308v47z" />
    <glyph glyph-name="umacron" unicode="&#x16b;" horiz-adv-x="673" 
d="M573 526l0.00195312 -526h-68v96c-18.667 -32 -44.334 -56.833 -77.001 -74.5s-70 -26.5 -112 -26.5c-68.667 0 -122.834 19.167 -162.501 57.5s-59.5 94.5 -59.5 168.5v305h71v-298c0 -55.333 13.667 -97.333 41 -126s66.333 -43 117 -43c55.333 0 99 16.833 131 50.5
s48 80.5 48 140.5v276h71zM180.002 693h308v-47h-308v47z" />
    <glyph glyph-name="Ubreve" unicode="&#x16c;" horiz-adv-x="792" 
d="M184 72c-50.667 52 -75.999 127.667 -75.999 227v401h74v-398c0 -81.333 18.333 -142 55 -182s89.667 -60 159 -60c70 0 123.333 20 160 60s55 100.667 55 182v398h72v-401c0 -99.333 -25.167 -175 -75.5 -227s-120.833 -78 -211.5 -78s-161.334 26 -212.001 78z
M289.001 787c-28.667 23.333 -43.665 54.666 -44.998 93.999h50c0.666992 -26 10.667 -46.667 30 -62s43.333 -23 72 -23s52.667 7.66699 72 23s29.333 36 30 62h50c-1.33301 -39.333 -16.333 -70.666 -45 -93.999s-64.334 -35 -107.001 -35s-78.334 11.667 -107.001 35z
" />
    <glyph glyph-name="ubreve" unicode="&#x16d;" horiz-adv-x="673" 
d="M573 526l0.00195312 -526h-68v96c-18.667 -32 -44.334 -56.833 -77.001 -74.5s-70 -26.5 -112 -26.5c-68.667 0 -122.834 19.167 -162.501 57.5s-59.5 94.5 -59.5 168.5v305h71v-298c0 -55.333 13.667 -97.333 41 -126s66.333 -43 117 -43c55.333 0 99 16.833 131 50.5
s48 80.5 48 140.5v276h71zM227.002 638c-28.667 23.333 -43.665 54.666 -44.998 93.999h50c0.666992 -26 10.667 -46.667 30 -62s43.333 -23 72 -23s52.667 7.66699 72 23s29.333 36 30 62h50c-1.33301 -39.333 -16.333 -70.666 -45 -93.999s-64.334 -35 -107.001 -35
s-78.334 11.667 -107.001 35z" />
    <glyph glyph-name="Uring" unicode="&#x16e;" horiz-adv-x="792" 
d="M184 72c-50.667 52 -75.999 127.667 -75.999 227v401h74v-398c0 -81.333 18.333 -142 55 -182s89.667 -60 159 -60c70 0 123.333 20 160 60s55 100.667 55 182v398h72v-401c0 -99.333 -25.167 -175 -75.5 -227s-120.833 -78 -211.5 -78s-161.334 26 -212.001 78z
M320.501 800c-19.667 20 -29.499 44 -29.499 72c0 28.667 10 53.334 30 74.001s44.667 31 74 31s54.166 -10.333 74.499 -31s30.5 -45.334 30.5 -74.001c0 -28 -10 -52 -30 -72s-45 -30 -75 -30s-54.833 10 -74.5 30zM444.002 824c12.667 12.667 19 28.667 19 48
s-6.5 35.833 -19.5 49.5s-29.167 20.5 -48.5 20.5s-35.333 -6.66699 -48 -20s-19 -30 -19 -50c0 -19.333 6.16699 -35.333 18.5 -48s28.5 -19 48.5 -19s36.333 6.33301 49 19z" />
    <glyph glyph-name="uring" unicode="&#x16f;" horiz-adv-x="673" 
d="M573 526l0.00195312 -526h-68v96c-18.667 -32 -44.334 -56.833 -77.001 -74.5s-70 -26.5 -112 -26.5c-68.667 0 -122.834 19.167 -162.501 57.5s-59.5 94.5 -59.5 168.5v305h71v-298c0 -55.333 13.667 -97.333 41 -126s66.333 -43 117 -43c55.333 0 99 16.833 131 50.5
s48 80.5 48 140.5v276h71zM258.502 626c-19.667 20 -29.499 44 -29.499 72c0 28.667 10 53.334 30 74.001s44.667 31 74 31s54.166 -10.333 74.499 -31s30.5 -45.334 30.5 -74.001c0 -28 -10 -52 -30 -72s-45 -30 -75 -30s-54.833 10 -74.5 30zM382.003 650
c12.667 12.667 19 28.667 19 48s-6.5 35.833 -19.5 49.5s-29.167 20.5 -48.5 20.5s-35.333 -6.66699 -48 -20s-19 -30 -19 -50c0 -19.333 6.16699 -35.333 18.5 -48s28.5 -19 48.5 -19s36.333 6.33301 49 19z" />
    <glyph glyph-name="Uhungarumlaut" unicode="&#x170;" horiz-adv-x="792" 
d="M184 72c-50.667 52 -75.999 127.667 -75.999 227v401h74v-398c0 -81.333 18.333 -142 55 -182s89.667 -60 159 -60c70 0 123.333 20 160 60s55 100.667 55 182v398h72v-401c0 -99.333 -25.167 -175 -75.5 -227s-120.833 -78 -211.5 -78s-161.334 26 -212.001 78z
M380.001 881h79l-113 -124h-63zM542.001 881h79l-112 -124h-63z" />
    <glyph glyph-name="uhungarumlaut" unicode="&#x171;" horiz-adv-x="673" 
d="M573 526l0.00195312 -526h-68v96c-18.667 -32 -44.334 -56.833 -77.001 -74.5s-70 -26.5 -112 -26.5c-68.667 0 -122.834 19.167 -162.501 57.5s-59.5 94.5 -59.5 168.5v305h71v-298c0 -55.333 13.667 -97.333 41 -126s66.333 -43 117 -43c55.333 0 99 16.833 131 50.5
s48 80.5 48 140.5v276h71zM318.002 732h79l-113 -124h-63zM480.002 732h79l-112 -124h-63z" />
    <glyph glyph-name="Uogonek" unicode="&#x172;" horiz-adv-x="792" 
d="M683 700l0.000976562 -401c0 -153.333 -59.667 -250.333 -179 -291c-98.667 -34 -148 -76.667 -148 -128c0 -18 6 -31.833 18 -41.5s27.667 -14.5 47 -14.5c25.333 0 45.666 6.33301 60.999 19l16 -39c-22.667 -16 -50.667 -24 -84 -24c-34 0 -61 8.5 -81 25.5
s-30 40.167 -30 69.5c0 47.333 25.667 87 77 119c-86 3.33301 -152.833 31 -200.5 83s-71.5 126 -71.5 222v401h74v-398c0 -81.333 18.333 -142 55 -182s89.667 -60 159 -60c70 0 123.333 20 160 60s55 100.667 55 182v398h72z" />
    <glyph glyph-name="uogonek" unicode="&#x173;" horiz-adv-x="673" 
d="M573 526l0.00195312 -526h-68v96c-18.667 -32 -44.334 -56.833 -77.001 -74.5s-70 -26.5 -112 -26.5c-68.667 0 -122.834 19.167 -162.501 57.5s-59.5 94.5 -59.5 168.5v305h71v-298c0 -55.333 13.667 -97.333 41 -126s66.333 -43 117 -43c55.333 0 99 16.833 131 50.5
s48 80.5 48 140.5v276h71zM429.002 -194c-20 17.333 -30 40.333 -30 69c0 62 47 112.667 141 152l33 -27c-81.333 -36 -122 -76 -122 -120c0 -18 6 -31.833 18 -41.5s27.667 -14.5 47 -14.5c26 0 46.667 6.33301 62 19l16 -39c-24 -16 -52.333 -24 -85 -24
c-33.333 0 -60 8.66699 -80 26z" />
    <glyph glyph-name="Wcircumflex" unicode="&#x174;" horiz-adv-x="1111" 
d="M1075 700l-236 -700h-78l-205 597l-206 -597h-77l-236 700h76l202 -602l209 602h69l206 -605l205 605h71zM655 757l-99 83l-99 -83h-66l129 124h72l129 -124h-66z" />
    <glyph glyph-name="wcircumflex" unicode="&#x175;" horiz-adv-x="879" 
d="M871 526l-199 -526h-67l-166 431l-166 -431h-67l-198 526h68l165 -447l169 447h61l168 -447l167 447h65zM537 605l-99 83l-99 -83h-66l129 124h72l129 -124h-66z" />
    <glyph glyph-name="Ycircumflex" unicode="&#x176;" horiz-adv-x="635" 
d="M354 242v-242h-73v242l-280 458h79l240 -393l240 393h74zM416 757l-99 83l-99 -83h-66l129 124h72l129 -124h-66z" />
    <glyph glyph-name="ycircumflex" unicode="&#x177;" horiz-adv-x="542" 
d="M541 526l-263 -589c-21.333 -49.333 -46 -84.333 -74 -105s-61.667 -31 -101 -31c-25.333 0 -49 4 -71 12s-41 20 -57 36l33 53c26.667 -26.667 58.667 -40 96 -40c24 0 44.5 6.66699 61.5 20s32.833 36 47.5 68l23 51l-235 525h74l198 -447l198 447h70zM356 608l-99 83
l-99 -83h-66l129 124h72l129 -124h-66z" />
    <glyph glyph-name="Ydieresis" unicode="&#x178;" horiz-adv-x="635" 
d="M354 242v-242h-73v242l-280 458h79l240 -393l240 393h74zM197.5 792c-8.33301 8 -12.5 18.333 -12.5 31c0 12 4.16699 22.167 12.5 30.5s18.5 12.5 30.5 12.5c11.333 0 21.333 -4.16699 30 -12.5s13 -18.5 13 -30.5s-4.16699 -22.167 -12.5 -30.5
s-18.5 -12.5 -30.5 -12.5s-22.167 4 -30.5 12zM375.5 792.5c-8.33301 8.33301 -12.5 18.5 -12.5 30.5s4.33301 22.167 13 30.5s18.667 12.5 30 12.5c12 0 22.167 -4.16699 30.5 -12.5s12.5 -18.5 12.5 -30.5c0 -12.667 -4.16699 -23 -12.5 -31s-18.5 -12 -30.5 -12
s-22.167 4.16699 -30.5 12.5z" />
    <glyph glyph-name="Zacute" unicode="&#x179;" horiz-adv-x="651" 
d="M619 64v-64h-574v51l464 585h-457v64h555v-51l-463 -585h475zM404 881h95l-162 -124h-70z" />
    <glyph glyph-name="zacute" unicode="&#x17a;" horiz-adv-x="511" 
d="M470 59v-59h-428v47l331 419h-325v60h416v-47l-331 -420h337zM328 732h95l-162 -124h-70z" />
    <glyph glyph-name="Zdotaccent" unicode="&#x17b;" horiz-adv-x="651" 
d="M619 64v-64h-574v51l464 585h-457v64h555v-51l-463 -585h475zM298 794c-9.33301 9.33301 -14 20.666 -14 33.999s4.66699 24.666 14 33.999s20.666 14 33.999 14s24.666 -4.66699 33.999 -14s14 -20.666 14 -33.999s-4.66699 -24.666 -14 -33.999
s-20.666 -14 -33.999 -14s-24.666 4.66699 -33.999 14z" />
    <glyph glyph-name="zdotaccent" unicode="&#x17c;" horiz-adv-x="511" 
d="M470 59v-59h-428v47l331 419h-325v60h416v-47l-331 -420h337zM222 645c-9.33301 9.33301 -14 20.666 -14 33.999s4.66699 24.666 14 33.999s20.666 14 33.999 14s24.666 -4.66699 33.999 -14s14 -20.666 14 -33.999s-4.66699 -24.666 -14 -33.999
s-20.666 -14 -33.999 -14s-24.666 4.66699 -33.999 14z" />
    <glyph glyph-name="Zcaron" unicode="&#x17d;" horiz-adv-x="651" 
d="M619 64v-64h-574v51l464 585h-457v64h555v-51l-463 -585h475zM497 881l-129 -124h-72l-129 124h66l99 -82l99 82h66z" />
    <glyph glyph-name="zcaron" unicode="&#x17e;" horiz-adv-x="511" 
d="M470 59v-59h-428v47l331 419h-325v60h416v-47l-331 -420h337zM421 732l-129 -124h-72l-129 124h66l99 -82l99 82h66z" />
    <glyph glyph-name="longs" unicode="&#x17f;" horiz-adv-x="295" 
d="M339 738.5c18.667 -5.66699 34.333 -13.832 47 -24.499l-25 -53c-20.667 17.333 -46.334 26 -77.001 26c-30 0 -52.667 -8.33301 -68 -25s-23 -41.334 -23 -74.001v-588h-71v466h-94v60h94v65c0 48 13.833 86 41.5 114s66.5 42 116.5 42
c20.667 0 40.334 -2.83301 59.001 -8.5z" />
    <glyph glyph-name="uni018F" unicode="&#x18f;" horiz-adv-x="817" 
d="M588 660c55.333 -30.667 98.668 -73.002 130.001 -127.002s47 -114.667 47 -182c0 -66.667 -15.667 -127.167 -47 -181.5s-74.166 -97.166 -128.499 -128.499s-114.5 -47 -180.5 -47c-68 0 -129.167 15.5 -183.5 46.5s-96.833 73.833 -127.5 128.5s-46 116 -46 184v22
h638c-3.33301 50 -18.166 95.167 -44.499 135.5s-60.833 72 -103.5 95s-89.667 34.5 -141 34.5c-90.667 0 -165.334 -27 -224.001 -81l-44 51c32.667 30.667 72.167 54.334 118.5 71.001s96.166 25 149.499 25c69.333 0 131.666 -15.333 186.999 -46zM545.002 90.498
c40.667 21.667 73.667 51.667 99 90s40.333 82.166 45 131.499h-562c5.33301 -50 20.5 -94.167 45.5 -132.5s58 -68.166 99 -89.499s86.833 -32 137.5 -32c50 0 95.333 10.833 136 32.5z" />
    <glyph glyph-name="florin" unicode="&#x192;" horiz-adv-x="438" 
d="M264 587l-9 -70h161l-7 -59h-159l-62 -501c-5.33301 -48 -23 -86 -53 -114s-69 -42 -117 -42c-22 0 -42.667 2.83301 -62 8.5s-34.666 14.167 -45.999 25.5l29 54c19.333 -18 45 -27 77 -27c28.667 0 51.667 8.5 69 25.5s28 41.5 32 73.5l62 497h-94l7 59h94l9 74
c5.33301 47.333 23.333 85.166 54 113.499s70.334 42.5 119.001 42.5c20.667 0 40.667 -2.83301 60 -8.5s34.666 -14.167 45.999 -25.5l-31 -54c-9.33301 8.66699 -20.333 15.334 -33 20.001s-26.334 7 -41.001 7c-60.667 0 -95.667 -33 -105 -99z" />
    <glyph glyph-name="Ohorn" unicode="&#x1a0;" horiz-adv-x="839" 
d="M745.5 521c27.667 -52 41.4971 -109 41.4971 -171c0 -67.333 -16 -128.166 -48 -182.499s-75.833 -96.833 -131.5 -127.5s-118.167 -46 -187.5 -46s-132.166 15.5 -188.499 46.5s-100.333 73.5 -132 127.5s-47.5 114.667 -47.5 182s16 128.166 48 182.499
s76.167 96.833 132.5 127.5s119.5 46 189.5 46c31.333 0 69.666 -2.66699 114.999 -8c38.667 -4 66.334 -6 83.001 -6c66 0 99 25.333 99 76c0 20.667 -6.66699 42 -20 64l47 18c17.333 -24.667 26 -52.667 26 -84c0 -37.333 -12.167 -66.5 -36.5 -87.5
s-59.166 -32.5 -104.499 -34.5c48.667 -30 86.834 -71 114.501 -123zM569.997 98c44.667 25.333 79.667 60.168 105 104.501s38 93.5 38 147.5s-12.667 103.167 -38 147.5s-60.333 79.166 -105 104.499s-94.667 38 -150 38s-105.5 -12.667 -150.5 -38s-80.333 -60 -106 -104
s-38.5 -93.333 -38.5 -148s12.833 -104 38.5 -148s61 -78.667 106 -104s95.167 -38 150.5 -38s105.333 12.667 150 38z" />
    <glyph glyph-name="ohorn" unicode="&#x1a1;" horiz-adv-x="627" 
d="M553.5 387.5c18.333 -37 27.502 -78.501 27.502 -124.501c0 -51.333 -11.5 -97.333 -34.5 -138s-54.833 -72.5 -95.5 -95.5s-86.334 -34.5 -137.001 -34.5s-96.334 11.5 -137.001 34.5s-72.667 54.833 -96 95.5s-35 86.667 -35 138s11.667 97.333 35 138
s55.333 72.334 96 95.001s86.334 34 137.001 34c13.333 0 26.333 -0.5 39 -1.5s21.667 -1.5 27 -1.5c18 -2 37.333 -3 58 -3c26.667 0 46.834 6.66699 60.501 20s20.5 30 20.5 50c0 20.667 -6.66699 42 -20 64l46 18c18 -27.333 27 -55.333 27 -84s-8.33301 -53 -25 -73
s-40.334 -33.333 -71.001 -40c33.333 -24 59.166 -54.5 77.499 -91.5zM413.502 83.499c29.667 17 53 41.167 70 72.5s25.5 67 25.5 107s-8.33301 75.667 -25 107s-39.834 55.5 -69.501 72.5s-63.167 25.5 -100.5 25.5s-70.833 -8.5 -100.5 -25.5s-53 -41.167 -70 -72.5
s-25.5 -67 -25.5 -107s8.5 -75.667 25.5 -107s40.333 -55.5 70 -72.5s63.167 -25.5 100.5 -25.5c36.667 0 69.834 8.5 99.501 25.5z" />
    <glyph glyph-name="Uhorn" unicode="&#x1af;" horiz-adv-x="797" 
d="M184 72c-50.667 52 -75.999 127.667 -75.999 227v401h74v-398c0 -81.333 18.333 -142 55 -182s89.667 -60 159 -60c70 0 123.333 20 160 60s55 100.667 55 182v398h72v-401c0 -99.333 -25.167 -175 -75.5 -227s-120.833 -78 -211.5 -78s-161.334 26 -212.001 78z
M649.001 701l15 0.000976562c22 0 38.5 6.16699 49.5 18.5s16.5 28.5 16.5 48.5c0 24 -6.66699 45.333 -20 64l47 18c17.333 -24 26 -52 26 -84c0 -36.667 -10.333 -65.834 -31 -87.501s-50 -32.5 -88 -32.5h-15v55z" />
    <glyph glyph-name="uhorn" unicode="&#x1b0;" horiz-adv-x="679" 
d="M573 526l0.00195312 -526h-68v96c-18.667 -32 -44.334 -56.833 -77.001 -74.5s-70 -26.5 -112 -26.5c-68.667 0 -122.834 19.167 -162.501 57.5s-59.5 94.5 -59.5 168.5v305h71v-298c0 -55.333 13.667 -97.333 41 -126s66.333 -43 117 -43c55.333 0 99 16.833 131 50.5
s48 80.5 48 140.5v276h71zM524.002 527l15 0.000976562c22 0 38.5 6.16699 49.5 18.5s16.5 28.5 16.5 48.5c0 24 -6.66699 45.333 -20 64l47 18c17.333 -24 26 -52 26 -84c0 -36.667 -10.333 -65.834 -31 -87.501s-50 -32.5 -88 -32.5h-15v55z" />
    <glyph glyph-name="uni01B7" unicode="&#x1b7;" horiz-adv-x="615" 
d="M497.5 342c41.667 -36 62.5 -83 62.5 -141c0 -40 -10 -75.667 -30 -107s-49.833 -55.833 -89.5 -73.5s-88.167 -26.5 -145.5 -26.5c-54.667 0 -105.667 8 -153 24s-84 37.333 -110 64l29 58c24 -24 56.667 -43.5 98 -58.5s86 -22.5 134 -22.5
c61.333 0 108.833 12.5 142.5 37.5s50.5 59.833 50.5 104.5c0 44 -16.833 78.333 -50.5 103s-84.167 37 -151.5 37h-52v52l210 244h-384v63h471v-51l-213 -249c79.333 -2.66699 139.833 -22 181.5 -58z" />
    <glyph glyph-name="uni01C4" unicode="&#x1c4;" horiz-adv-x="1456" 
d="M114 700h285c74 0 139.333 -14.833 196 -44.5s100.667 -71 132 -124s47 -113.5 47 -181.5s-15.667 -128.5 -47 -181.5s-75.333 -94.333 -132 -124s-122 -44.5 -196 -44.5h-285v700zM395 64c61.333 0 115 12.167 161 36.5s81.667 58 107 101s38 92.5 38 148.5
s-12.667 105.5 -38 148.5s-61 76.667 -107 101s-99.667 36.5 -161 36.5h-207v-572h207zM1417 64v-64h-574v51l464 585h-457v64h555v-51l-463 -585h475zM1295 881l-129 -124h-72l-129 124h66l99 -82l99 82h66z" />
    <glyph glyph-name="uni01C5" unicode="&#x1c5;" horiz-adv-x="1337" 
d="M114 700h285c74 0 139.333 -14.833 196 -44.5s100.667 -71 132 -124s47 -113.5 47 -181.5s-15.667 -128.5 -47 -181.5s-75.333 -94.333 -132 -124s-122 -44.5 -196 -44.5h-285v700zM395 64c61.333 0 115 12.167 161 36.5s81.667 58 107 101s38 92.5 38 148.5
s-12.667 105.5 -38 148.5s-61 76.667 -107 101s-99.667 36.5 -161 36.5h-207v-572h207zM1296 59v-59h-428v47l331 419h-325v60h416v-47l-331 -420h337zM1247 732l-129 -124h-72l-129 124h66l99 -82l99 82h66z" />
    <glyph glyph-name="uni01C6" unicode="&#x1c6;" horiz-adv-x="1202" 
d="M579 742v-742.001h-68v104c-21.333 -35.333 -49.5 -62.333 -84.5 -81s-74.5 -28 -118.5 -28c-49.333 0 -94 11.333 -134 34s-71.333 54.334 -94 95.001s-34 87 -34 139s11.333 98.333 34 139s54 72.167 94 94.5s84.667 33.5 134 33.5
c42.667 0 81.167 -8.83301 115.5 -26.5s62.5 -43.5 84.5 -77.5v316h71zM413.5 83.499c29.667 17 53 41.167 70 72.5s25.5 67 25.5 107s-8.5 75.667 -25.5 107s-40.333 55.5 -70 72.5s-62.834 25.5 -99.501 25.5c-37.333 0 -70.833 -8.5 -100.5 -25.5s-53 -41.167 -70 -72.5
s-25.5 -67 -25.5 -107s8.5 -75.667 25.5 -107s40.333 -55.5 70 -72.5s63.167 -25.5 100.5 -25.5c36.667 0 69.834 8.5 99.501 25.5zM1147 58.999v-59h-428v47l331 419h-325v60h416v-47l-331 -420h337zM1098 731.999l-129 -124h-72l-129 124h66l99 -82l99 82h66z" />
    <glyph glyph-name="uni01C7" unicode="&#x1c7;" horiz-adv-x="1090" 
d="M114 700h74v-636h392v-64h-466v700zM667 20c-34 17.333 -61.668 42 -83.001 74l44 50c38.667 -57.333 89 -86 151 -86c86.667 0 130 51.333 130 154v424h-256v64h329v-485c0 -73.333 -17.167 -128.5 -51.5 -165.5s-85.166 -55.5 -152.499 -55.5
c-40 0 -77 8.66699 -111 26z" />
    <glyph glyph-name="uni01C8" unicode="&#x1c8;" horiz-adv-x="863" 
d="M114 700h74v-636h392v-64h-466v700zM547.5 -190.5c-19.667 5.66699 -35.833 14.166 -48.5 25.499l25 54c20.667 -18 48 -27 82 -27c28 0 49.5 8.33301 64.5 25s22.5 41.334 22.5 74.001v565h71v-565c0 -49.333 -13.333 -88.333 -40 -117s-64.667 -43 -114 -43
c-22 0 -42.833 2.83301 -62.5 8.5zM692.001 656.999c-10 10 -15 22 -15 36c0 13.333 5 25 15 35s22.333 15 37 15s27 -4.83301 37 -14.5s15 -21.167 15 -34.5c0 -14.667 -5 -27 -15 -37s-22.333 -15 -37 -15s-27 5 -37 15z" />
    <glyph glyph-name="uni01C9" unicode="&#x1c9;" horiz-adv-x="543" 
d="M99 742h71v-742h-71v742zM227.5 -190.5c-19.667 5.66699 -35.833 14.166 -48.5 25.499l25 54c20.667 -18 48 -27 82 -27c28 0 49.5 8.33301 64.5 25s22.5 41.334 22.5 74.001v565h71v-565c0 -49.333 -13.333 -88.333 -40 -117s-64.667 -43 -114 -43
c-22 0 -42.833 2.83301 -62.5 8.5zM372.001 656.999c-10 10 -15 22 -15 36c0 13.333 5 25 15 35s22.333 15 37 15s27 -4.83301 37 -14.5s15 -21.167 15 -34.5c0 -14.667 -5 -27 -15 -37s-22.333 -15 -37 -15s-27 5 -37 15z" />
    <glyph glyph-name="uni01CA" unicode="&#x1ca;" horiz-adv-x="1314" 
d="M699 700v-700h-61l-450 568v-568h-74v700h61l451 -568v568h73zM891 20c-34 17.333 -61.668 42 -83.001 74l44 50c38.667 -57.333 89 -86 151 -86c86.667 0 130 51.333 130 154v424h-256v64h329v-485c0 -73.333 -17.167 -128.5 -51.5 -165.5s-85.166 -55.5 -152.499 -55.5
c-40 0 -77 8.66699 -111 26z" />
    <glyph glyph-name="uni01CB" unicode="&#x1cb;" horiz-adv-x="1087" 
d="M699 700v-700h-61l-450 568v-568h-74v700h61l451 -568v568h73zM771.5 -190.5c-19.667 5.66699 -35.833 14.166 -48.5 25.499l25 54c20.667 -18 48 -27 82 -27c28 0 49.5 8.33301 64.5 25s22.5 41.334 22.5 74.001v565h71v-565c0 -49.333 -13.333 -88.333 -40 -117
s-64.667 -43 -114 -43c-22 0 -42.833 2.83301 -62.5 8.5zM916.001 656.999c-10 10 -15 22 -15 36c0 13.333 5 25 15 35s22.333 15 37 15s27 -4.83301 37 -14.5s15 -21.167 15 -34.5c0 -14.667 -5 -27 -15 -37s-22.333 -15 -37 -15s-27 5 -37 15z" />
    <glyph glyph-name="uni01CC" unicode="&#x1cc;" horiz-adv-x="951" 
d="M524.5 472.5c39 -38.333 58.502 -94.168 58.502 -167.501v-305h-71v298c0 54.667 -13.667 96.334 -41 125.001s-66.333 43 -117 43c-56.667 0 -101.5 -16.833 -134.5 -50.5s-49.5 -80.167 -49.5 -139.5v-276h-71v526h68v-97c19.333 32 46.166 56.833 80.499 74.5
s74.166 26.5 119.499 26.5c66 0 118.5 -19.167 157.5 -57.5zM635.502 -190.502c-19.667 5.66699 -35.833 14.166 -48.5 25.499l25 54c20.667 -18 48 -27 82 -27c28 0 49.5 8.33301 64.5 25s22.5 41.334 22.5 74.001v565h71v-565c0 -49.333 -13.333 -88.333 -40 -117
s-64.667 -43 -114 -43c-22 0 -42.833 2.83301 -62.5 8.5zM780.003 656.997c-10 10 -15 22 -15 36c0 13.333 5 25 15 35s22.333 15 37 15s27 -4.83301 37 -14.5s15 -21.167 15 -34.5c0 -14.667 -5 -27 -15 -37s-22.333 -15 -37 -15s-27 5 -37 15z" />
    <glyph glyph-name="uni01CD" unicode="&#x1cd;" horiz-adv-x="717" 
d="M553 187h-390l-84 -187h-77l320 700h73l320 -700h-78zM526 247l-168 376l-168 -376h336zM524 881l-129 -124h-72l-129 124h66l99 -82l99 82h66z" />
    <glyph glyph-name="uni01CE" unicode="&#x1ce;" horiz-adv-x="590" 
d="M441 478.5c36.667 -34.333 55.001 -85.168 55.001 -152.501v-326h-68v82c-16 -27.333 -39.5 -48.666 -70.5 -63.999s-67.833 -23 -110.5 -23c-58.667 0 -105.334 14 -140.001 42s-52 65 -52 111c0 44.667 16.167 80.667 48.5 108s83.833 41 154.5 41h167v32
c0 45.333 -12.667 79.833 -38 103.5s-62.333 35.5 -111 35.5c-33.333 0 -65.333 -5.5 -96 -16.5s-57 -26.167 -79 -45.5l-32 53c26.667 22.667 58.667 40.167 96 52.5s76.666 18.5 117.999 18.5c68.667 0 121.334 -17.167 158.001 -51.5zM361.001 78.498
c28.667 18.333 50 44.834 64 79.501v86h-165c-90 0 -135 -31.333 -135 -94c0 -30.667 11.667 -54.834 35 -72.501s56 -26.5 98 -26.5c40 0 74.333 9.16699 103 27.5zM450.001 731.999l-129 -124h-72l-129 124h66l99 -82l99 82h66z" />
    <glyph glyph-name="uni01D3" unicode="&#x1d3;" horiz-adv-x="792" 
d="M184 72c-50.667 52 -75.999 127.667 -75.999 227v401h74v-398c0 -81.333 18.333 -142 55 -182s89.667 -60 159 -60c70 0 123.333 20 160 60s55 100.667 55 182v398h72v-401c0 -99.333 -25.167 -175 -75.5 -227s-120.833 -78 -211.5 -78s-161.334 26 -212.001 78z
M561.001 881l-129 -124h-72l-129 124h66l99 -82l99 82h66z" />
    <glyph glyph-name="uni01D4" unicode="&#x1d4;" horiz-adv-x="673" 
d="M573 526l0.00195312 -526h-68v96c-18.667 -32 -44.334 -56.833 -77.001 -74.5s-70 -26.5 -112 -26.5c-68.667 0 -122.834 19.167 -162.501 57.5s-59.5 94.5 -59.5 168.5v305h71v-298c0 -55.333 13.667 -97.333 41 -126s66.333 -43 117 -43c55.333 0 99 16.833 131 50.5
s48 80.5 48 140.5v276h71zM499.002 732l-129 -124h-72l-129 124h66l99 -82l99 82h66z" />
    <glyph glyph-name="uni01E4" unicode="&#x1e4;" horiz-adv-x="806" 
d="M607 350l71 0.00195312v-267c-32.667 -28.667 -71.334 -50.667 -116.001 -66s-91.667 -23 -141 -23c-70 0 -133 15.333 -189 46s-100 73.167 -132 127.5s-48 115.166 -48 182.499s16 128.166 48 182.499s76 96.833 132 127.5s119.333 46 190 46
c53.333 0 102.333 -8.5 147 -25.5s82.334 -42.167 113.001 -75.5l-46 -47c-55.333 54.667 -125.666 82 -210.999 82c-56.667 0 -107.834 -12.5 -153.501 -37.5s-81.5 -59.667 -107.5 -104s-39 -93.833 -39 -148.5s13 -104 39 -148s61.667 -78.667 107 -104
s96.333 -38 153 -38c72 0 133 18 183 54v236zM406.021 266.002h376.988v-59h-376.988v59z" />
    <glyph glyph-name="uni01E5" unicode="&#x1e5;" horiz-adv-x="691" 
d="M650 -62h-84c-17.333 -46.667 -46.166 -81.167 -86.499 -103.5s-92.5 -33.5 -156.5 -33.5c-48.667 0 -94.834 7.16699 -138.501 21.5s-79.167 34.166 -106.5 59.499l36 54c25.333 -22.667 56.166 -40.334 92.499 -53.001s74.5 -19 114.5 -19
c83.333 0 139.333 24.667 168 74h-201v51h220c4.66699 18.667 7 40.667 7 66v78c-22 -31.333 -50.833 -55.5 -86.5 -72.5s-75.167 -25.5 -118.5 -25.5c-49.333 0 -94.166 10.5 -134.499 31.5s-72 50.333 -95 88s-34.5 80.5 -34.5 128.5s11.5 90.833 34.5 128.5
s54.5 66.834 94.5 87.501s85 31 135 31c44.667 0 85 -8.66699 121 -26s65 -42.666 87 -75.999v98h68v-462c0 -26.667 -2 -51.667 -6 -75h70v-51zM420 119c30.667 16 54.5 38.167 71.5 66.5s25.5 60.833 25.5 97.5s-8.5 69.167 -25.5 97.5s-40.833 50.333 -71.5 66
s-65 23.5 -103 23.5s-72.167 -7.83301 -102.5 -23.5s-54 -37.667 -71 -66s-25.5 -60.833 -25.5 -97.5s8.5 -69.167 25.5 -97.5s40.667 -50.5 71 -66.5s64.5 -24 102.5 -24s72.333 8 103 24z" />
    <glyph glyph-name="Gcaron" unicode="&#x1e6;" horiz-adv-x="773" 
d="M607 350l71 0.00195312v-267c-32.667 -28.667 -71.334 -50.667 -116.001 -66s-91.667 -23 -141 -23c-70 0 -133 15.333 -189 46s-100 73.167 -132 127.5s-48 115.166 -48 182.499s16 128.166 48 182.499s76 96.833 132 127.5s119.333 46 190 46
c53.333 0 102.333 -8.5 147 -25.5s82.334 -42.167 113.001 -75.5l-46 -47c-55.333 54.667 -125.666 82 -210.999 82c-56.667 0 -107.834 -12.5 -153.501 -37.5s-81.5 -59.667 -107.5 -104s-39 -93.833 -39 -148.5s13 -104 39 -148s61.667 -78.667 107 -104
s96.333 -38 153 -38c72 0 133 18 183 54v236zM573 881.002l-129 -124h-72l-129 124h66l99 -82l99 82h66z" />
    <glyph glyph-name="gcaron" unicode="&#x1e7;" horiz-adv-x="686" 
d="M586 526l0.000976562 -461.999c0 -89.333 -21.833 -155.5 -65.5 -198.5s-109.5 -64.5 -197.5 -64.5c-48.667 0 -94.834 7.16699 -138.501 21.5s-79.167 34.166 -106.5 59.499l36 54c25.333 -22.667 56.166 -40.334 92.499 -53.001s74.5 -19 114.5 -19
c66.667 0 115.667 15.5 147 46.5s47 79.167 47 144.5v67c-22 -33.333 -50.833 -58.666 -86.5 -75.999s-75.167 -26 -118.5 -26c-49.333 0 -94.166 10.833 -134.499 32.5s-72 52 -95 91s-34.5 83.167 -34.5 132.5s11.5 93.333 34.5 132s54.5 68.667 94.5 90s85 32 135 32
c44.667 0 85 -9 121 -27s65 -44 87 -78v101h68zM420.001 107.501c30.667 16.333 54.5 39.165 71.5 68.498s25.5 62.666 25.5 99.999s-8.5 70.5 -25.5 99.5s-40.667 51.667 -71 68s-64.833 24.5 -103.5 24.5c-38 0 -72.167 -8 -102.5 -24s-54 -38.667 -71 -68
s-25.5 -62.666 -25.5 -99.999s8.5 -70.666 25.5 -99.999s40.667 -52.166 71 -68.499s64.5 -24.5 102.5 -24.5s72.333 8.16699 103 24.5zM490.001 732l-129 -124h-72l-129 124h66l99 -82l99 82h66z" />
    <glyph glyph-name="uni01E8" unicode="&#x1e8;" horiz-adv-x="711" 
d="M331 329l-143 -145v-184h-74v700h74v-423l411 423h85l-303 -317l324 -383h-88zM538 881l-129 -124h-72l-129 124h66l99 -82l99 82h66z" />
    <glyph glyph-name="uni01E9" unicode="&#x1e9;" horiz-adv-x="601" 
d="M294 264l-124 -114v-150h-71v742h71v-503l314 287h88l-225 -215l246 -311h-87zM300 948l-129 -124h-72l-129 124h66l99 -82l99 82h66z" />
    <glyph glyph-name="uni01EA" unicode="&#x1ea;" horiz-adv-x="839" 
d="M607.5 660c55.667 -30.667 99.499 -73.167 131.499 -127.5s48 -115.166 48 -182.499c0 -58.667 -12 -112 -36 -160s-56.5 -87.667 -97.5 -119s-86.833 -53 -137.5 -65c-44 -10.667 -80 -27.5 -108 -50.5s-42 -48.167 -42 -75.5c0 -18 6 -31.833 18 -41.5
s27.667 -14.5 47 -14.5c25.333 0 45.666 6.33301 60.999 19l17 -39c-24 -16 -52.333 -24 -85 -24c-34 0 -60.833 8.5 -80.5 25.5s-29.5 40.167 -29.5 69.5c0 46.667 26 86.667 78 120c-65.333 4 -123.666 21.833 -174.999 53.5s-91.666 73.667 -120.999 126
s-44 110.833 -44 175.5c0 67.333 16 128.166 48 182.499s76 96.833 132 127.5s118.667 46 188 46s131.833 -15.333 187.5 -46zM569.999 97.5c44.667 25 79.667 59.667 105 104s38 93.833 38 148.5s-12.667 104.167 -38 148.5s-60.333 79 -105 104s-94.667 37.5 -150 37.5
s-105.5 -12.5 -150.5 -37.5s-80.333 -59.667 -106 -104s-38.5 -93.833 -38.5 -148.5s12.833 -104.167 38.5 -148.5s61 -79 106 -104s95.167 -37.5 150.5 -37.5s105.333 12.5 150 37.5z" />
    <glyph glyph-name="uni01EB" unicode="&#x1eb;" horiz-adv-x="627" 
d="M314.5 -53c-19.667 -22 -29.499 -44.332 -29.499 -66.999c0 -18 6 -31.833 18 -41.5s27.667 -14.5 47 -14.5c25.333 0 45.666 6.33301 60.999 19l16 -39c-22.667 -16 -50.667 -24 -84 -24c-34 0 -61 8.5 -81 25.5s-30 39.5 -30 67.5c0 47.333 25.333 88 76 122
c-50 0.666992 -94.833 12.667 -134.5 36s-70.834 55.166 -93.501 95.499s-34 85.833 -34 136.5c0 51.333 11.667 97.333 35 138s55.333 72.334 96 95.001s86.334 34 137.001 34s96.334 -11.333 137.001 -34s72.5 -54.334 95.5 -95.001s34.5 -86.667 34.5 -138
c0 -56.667 -13.833 -106.5 -41.5 -149.5s-65.5 -75.167 -113.5 -96.5c-54.667 -24.667 -91.834 -48 -111.501 -70zM143.501 156.001c17 -31.333 40.333 -55.5 70 -72.5s63.167 -25.5 100.5 -25.5s70.833 8.5 100.5 25.5s52.834 41.167 69.501 72.5s25 67 25 107
s-8.33301 75.667 -25 107s-39.834 55.5 -69.501 72.5s-63.167 25.5 -100.5 25.5s-70.833 -8.5 -100.5 -25.5s-53 -41.167 -70 -72.5s-25.5 -67 -25.5 -107s8.5 -75.667 25.5 -107z" />
    <glyph glyph-name="uni01EE" unicode="&#x1ee;" horiz-adv-x="615" 
d="M497.5 342c41.667 -36 62.5 -83 62.5 -141c0 -40 -10 -75.667 -30 -107s-49.833 -55.833 -89.5 -73.5s-88.167 -26.5 -145.5 -26.5c-54.667 0 -105.667 8 -153 24s-84 37.333 -110 64l29 58c24 -24 56.667 -43.5 98 -58.5s86 -22.5 134 -22.5
c61.333 0 108.833 12.5 142.5 37.5s50.5 59.833 50.5 104.5c0 44 -16.833 78.333 -50.5 103s-84.167 37 -151.5 37h-52v52l210 244h-384v63h471v-51l-213 -249c79.333 -2.66699 139.833 -22 181.5 -58zM462 881l-129 -124h-72l-129 124h66l99 -82l99 82h66z" />
    <glyph glyph-name="uni01EF" unicode="&#x1ef;" horiz-adv-x="514" 
d="M419.5 157c39 -36.667 58.498 -85.001 58.498 -145.001c0 -40.667 -9.5 -77 -28.5 -109s-47.5 -57.167 -85.5 -75.5s-84 -27.5 -138 -27.5c-50.667 0 -98.334 8.33301 -143.001 25s-79.667 39 -105 67l29 58c22.667 -25.333 53.334 -45.666 92.001 -60.999
s80.334 -23 125.001 -23c58 0 102.667 13 134 39s47 61.667 47 107c0 46 -15.667 81.833 -47 107.5s-78.666 38.5 -141.999 38.5h-50v51l198 253h-362v64h447v-52l-200 -257c74.667 -3.33301 131.5 -23.333 170.5 -60zM386.998 731.999l-129 -124h-72l-129 124h66l99 -82
l99 82h66z" />
    <glyph glyph-name="Aringacute" unicode="&#x1fa;" horiz-adv-x="717" 
d="M553 187h-390l-84 -187h-77l320 700h73l320 -700h-78zM526 247l-168 376l-168 -376h336zM443 934c13.333 -18.667 20 -39.334 20 -62.001c0 -28 -10 -52 -30 -72s-45 -30 -75 -30s-54.833 10 -74.5 30s-29.5 44 -29.5 72c0 28.667 10 53.334 30 74.001s44.667 31 74 31
c18.667 0 37 -5 55 -15l82 81l40 -32zM407 824c12.667 12.667 19 28.667 19 48s-6.5 35.833 -19.5 49.5s-29.167 20.5 -48.5 20.5s-35.333 -6.66699 -48 -20s-19 -30 -19 -50c0 -19.333 6.16699 -35.333 18.5 -48s28.5 -19 48.5 -19s36.333 6.33301 49 19z" />
    <glyph glyph-name="aringacute" unicode="&#x1fb;" horiz-adv-x="590" 
d="M441 478.5c36.667 -34.333 55.001 -85.168 55.001 -152.501v-326h-68v82c-16 -27.333 -39.5 -48.666 -70.5 -63.999s-67.833 -23 -110.5 -23c-58.667 0 -105.334 14 -140.001 42s-52 65 -52 111c0 44.667 16.167 80.667 48.5 108s83.833 41 154.5 41h167v32
c0 45.333 -12.667 79.833 -38 103.5s-62.333 35.5 -111 35.5c-33.333 0 -65.333 -5.5 -96 -16.5s-57 -26.167 -79 -45.5l-32 53c26.667 22.667 58.667 40.167 96 52.5s76.666 18.5 117.999 18.5c68.667 0 121.334 -17.167 158.001 -51.5zM361.001 78.498
c28.667 18.333 50 44.834 64 79.501v86h-165c-90 0 -135 -31.333 -135 -94c0 -30.667 11.667 -54.834 35 -72.501s56 -26.5 98 -26.5c40 0 74.333 9.16699 103 27.5zM369.001 759.999c13.333 -18.667 20 -39.334 20 -62.001c0 -28 -10 -52 -30 -72s-45 -30 -75 -30
s-54.833 10 -74.5 30s-29.5 44 -29.5 72c0 28.667 10 53.334 30 74.001s44.667 31 74 31c18.667 0 37 -5 55 -15l82 81l40 -32zM333.001 649.999c12.667 12.667 19 28.667 19 48s-6.5 35.833 -19.5 49.5s-29.167 20.5 -48.5 20.5s-35.333 -6.66699 -48 -20s-19 -30 -19 -50
c0 -19.333 6.16699 -35.333 18.5 -48s28.5 -19 48.5 -19s36.333 6.33301 49 19z" />
    <glyph glyph-name="AEacute" unicode="&#x1fc;" horiz-adv-x="1033" 
d="M973 64v-64h-494v187h-287l-113 -187h-77l427 700h529v-64h-406v-249h363v-63h-363v-260h421zM479 247v389h-15l-236 -389h251zM587 881h95l-162 -124h-70z" />
    <glyph glyph-name="aeacute" unicode="&#x1fd;" horiz-adv-x="986" 
d="M938 243h-440.998c3.33301 -55.333 24 -100 62 -134s86.333 -51 145 -51c66.667 0 120.334 23 161.001 69l40 -46c-24 -28 -53.333 -49.333 -88 -64s-73 -22 -115 -22c-50.667 0 -96.334 10.167 -137.001 30.5s-73.334 50.5 -98.001 90.5
c-18.667 -41.333 -47 -71.833 -85 -91.5s-80.667 -29.5 -128 -29.5c-62 0 -110.667 14.167 -146 42.5s-53 65.833 -53 112.5c0 42.667 16.167 77.667 48.5 105s83.833 41 154.5 41h167v33c0 45.333 -12.667 79.833 -38 103.5s-62.333 35.5 -111 35.5
c-33.333 0 -65.333 -5.5 -96 -16.5s-57 -26.167 -79 -45.5l-32 53c26.667 22.667 58.667 40.167 96 52.5s76.333 18.5 117 18.5c101.333 0 165.666 -36 192.999 -108c22.667 34 52.167 60.5 88.5 79.5s76.5 28.5 120.5 28.5c48.667 0 92.5 -11.333 131.5 -34
s69.5 -54 91.5 -94s33 -85 33 -135c0 -5.33301 -0.666992 -13.333 -2 -24zM595.502 448c-27 -14 -49.335 -34 -67.002 -60s-28.167 -56.667 -31.5 -92h373c-3.33301 34.667 -13.666 65.167 -30.999 91.5s-39.666 46.5 -66.999 60.5s-57 21 -89 21
c-31.333 0 -60.5 -7 -87.5 -21zM380 91.5c30 27 44.999 63.5 44.999 109.5v42h-165c-47.333 0 -81.666 -8.16699 -102.999 -24.5s-32 -38.5 -32 -66.5c0 -31.333 11.833 -56 35.5 -74s56.5 -27 98.5 -27c50.667 0 91 13.5 121 40.5zM532.999 732h95l-162 -124h-70z" />
    <glyph glyph-name="Oslashacute" unicode="&#x1fe;" horiz-adv-x="839" 
d="M231.5 40.5c-56.333 31 -100.333 73.498 -132 127.498s-47.5 114.667 -47.5 182s15.833 128 47.5 182s75.667 96.5 132 127.5s119.166 46.5 188.499 46.5s131.833 -15.333 187.5 -46s99.5 -73.167 131.5 -127.5s48 -115.166 48 -182.499s-16 -128.166 -48 -182.499
s-75.833 -96.833 -131.5 -127.5s-118.167 -46 -187.5 -46s-132.166 15.5 -188.499 46.5zM570 97.498c44.667 25 79.667 59.667 105 104s38 93.833 38 148.5s-12.667 104.167 -38 148.5s-60.333 79 -105 104s-94.667 37.5 -150 37.5s-105.5 -12.5 -150.5 -37.5
s-80.333 -59.667 -106 -104s-38.5 -93.833 -38.5 -148.5s12.833 -104.167 38.5 -148.5s61 -79 106 -104s95.167 -37.5 150.5 -37.5s105.333 12.5 150 37.5zM694 769.998h59l-606 -840h-60zM492 880.998h95l-162 -124h-70z" />
    <glyph glyph-name="oslashacute" unicode="&#x1ff;" horiz-adv-x="627" 
d="M177 29.5c-40.667 23 -72.667 54.833 -96 95.5s-35 86.667 -35 138s11.667 97.333 35 138s55.333 72.334 96 95.001s86.334 34 137.001 34s96.334 -11.333 137.001 -34s72.5 -54.334 95.5 -95.001s34.5 -86.667 34.5 -138s-11.5 -97.333 -34.5 -138
s-54.833 -72.5 -95.5 -95.5s-86.334 -34.5 -137.001 -34.5s-96.334 11.5 -137.001 34.5zM414.5 83.5c29.667 17 52.834 41.167 69.501 72.5s25 67 25 107s-8.33301 75.667 -25 107s-39.834 55.5 -69.501 72.5s-63.167 25.5 -100.5 25.5s-70.833 -8.5 -100.5 -25.5
s-53 -41.167 -70 -72.5s-25.5 -67 -25.5 -107s8.5 -75.667 25.5 -107s40.333 -55.5 70 -72.5s63.167 -25.5 100.5 -25.5s70.833 8.5 100.5 25.5zM510 594h47l-442 -665h-48zM384 732h95l-162 -124h-70z" />
    <glyph glyph-name="uni0200" unicode="&#x200;" horiz-adv-x="717" 
d="M553 187h-390l-84 -187h-77l320 700h73l320 -700h-78zM526 247l-168 376l-168 -376h336zM134 881h79l96 -124h-63zM296 881h79l97 -124h-63z" />
    <glyph glyph-name="uni0201" unicode="&#x201;" horiz-adv-x="590" 
d="M441 478.5c36.667 -34.333 55.001 -85.168 55.001 -152.501v-326h-68v82c-16 -27.333 -39.5 -48.666 -70.5 -63.999s-67.833 -23 -110.5 -23c-58.667 0 -105.334 14 -140.001 42s-52 65 -52 111c0 44.667 16.167 80.667 48.5 108s83.833 41 154.5 41h167v32
c0 45.333 -12.667 79.833 -38 103.5s-62.333 35.5 -111 35.5c-33.333 0 -65.333 -5.5 -96 -16.5s-57 -26.167 -79 -45.5l-32 53c26.667 22.667 58.667 40.167 96 52.5s76.666 18.5 117.999 18.5c68.667 0 121.334 -17.167 158.001 -51.5zM361.001 78.498
c28.667 18.333 50 44.834 64 79.501v86h-165c-90 0 -135 -31.333 -135 -94c0 -30.667 11.667 -54.834 35 -72.501s56 -26.5 98 -26.5c40 0 74.333 9.16699 103 27.5zM60.001 731.999h79l96 -124h-63zM222.001 731.999h79l97 -124h-63z" />
    <glyph glyph-name="uni0202" unicode="&#x202;" horiz-adv-x="717" 
d="M553 187h-390l-84 -187h-77l320 700h73l320 -700h-78zM526 247l-168 376l-168 -376h336zM252 850.5c28.667 23 64.332 34.5 106.999 34.5s78.334 -11.5 107.001 -34.5s43.667 -54.167 45 -93.5h-50c-0.666992 25.333 -10.667 45.833 -30 61.5s-43.333 23.5 -72 23.5
s-52.667 -7.83301 -72 -23.5s-29.333 -36.167 -30 -61.5h-50c1.33301 39.333 16.333 70.5 45 93.5z" />
    <glyph glyph-name="uni0203" unicode="&#x203;" horiz-adv-x="590" 
d="M441 478.5c36.667 -34.333 55.001 -85.168 55.001 -152.501v-326h-68v82c-16 -27.333 -39.5 -48.666 -70.5 -63.999s-67.833 -23 -110.5 -23c-58.667 0 -105.334 14 -140.001 42s-52 65 -52 111c0 44.667 16.167 80.667 48.5 108s83.833 41 154.5 41h167v32
c0 45.333 -12.667 79.833 -38 103.5s-62.333 35.5 -111 35.5c-33.333 0 -65.333 -5.5 -96 -16.5s-57 -26.167 -79 -45.5l-32 53c26.667 22.667 58.667 40.167 96 52.5s76.666 18.5 117.999 18.5c68.667 0 121.334 -17.167 158.001 -51.5zM361.001 78.498
c28.667 18.333 50 44.834 64 79.501v86h-165c-90 0 -135 -31.333 -135 -94c0 -30.667 11.667 -54.834 35 -72.501s56 -26.5 98 -26.5c40 0 74.333 9.16699 103 27.5zM178.001 701.499c28.667 23 64.332 34.5 106.999 34.5s78.334 -11.5 107.001 -34.5
s43.667 -54.167 45 -93.5h-50c-0.666992 25.333 -10.667 45.833 -30 61.5s-43.333 23.5 -72 23.5s-52.667 -7.83301 -72 -23.5s-29.333 -36.167 -30 -61.5h-50c1.33301 39.333 16.333 70.5 45 93.5z" />
    <glyph glyph-name="uni0204" unicode="&#x204;" horiz-adv-x="669" 
d="M609 64v-64h-495v700h480v-64h-406v-249h362v-63h-362v-260h421zM130 881h79l96 -124h-63zM292 881h79l97 -124h-63z" />
    <glyph glyph-name="uni0205" unicode="&#x205;" horiz-adv-x="604" 
d="M557 241l-440.001 -0.000976562c4 -54.667 25 -98.834 63 -132.501s86 -50.5 144 -50.5c32.667 0 62.667 5.83301 90 17.5s51 28.834 71 51.501l40 -46c-23.333 -28 -52.5 -49.333 -87.5 -64s-73.5 -22 -115.5 -22c-54 0 -101.833 11.5 -143.5 34.5
s-74.167 54.833 -97.5 95.5s-35 86.667 -35 138s11.167 97.333 33.5 138s53 72.334 92 95.001s82.833 34 131.5 34s92.334 -11.333 131.001 -34s69 -54.167 91 -94.5s33 -86.5 33 -138.5zM175.499 420.499c-34.333 -32.333 -53.834 -74.5 -58.501 -126.5h373
c-4.66699 52 -24.167 94.167 -58.5 126.5s-77.166 48.5 -128.499 48.5c-50.667 0 -93.167 -16.167 -127.5 -48.5zM77.998 731.999h79l96 -124h-63zM239.998 731.999h79l97 -124h-63z" />
    <glyph glyph-name="uni0206" unicode="&#x206;" horiz-adv-x="669" 
d="M609 64v-64h-495v700h480v-64h-406v-249h362v-63h-362v-260h421zM248 850.5c28.667 23 64.332 34.5 106.999 34.5s78.334 -11.5 107.001 -34.5s43.667 -54.167 45 -93.5h-50c-0.666992 25.333 -10.667 45.833 -30 61.5s-43.333 23.5 -72 23.5s-52.667 -7.83301 -72 -23.5
s-29.333 -36.167 -30 -61.5h-50c1.33301 39.333 16.333 70.5 45 93.5z" />
    <glyph glyph-name="uni0207" unicode="&#x207;" horiz-adv-x="604" 
d="M557 241l-440.001 -0.000976562c4 -54.667 25 -98.834 63 -132.501s86 -50.5 144 -50.5c32.667 0 62.667 5.83301 90 17.5s51 28.834 71 51.501l40 -46c-23.333 -28 -52.5 -49.333 -87.5 -64s-73.5 -22 -115.5 -22c-54 0 -101.833 11.5 -143.5 34.5
s-74.167 54.833 -97.5 95.5s-35 86.667 -35 138s11.167 97.333 33.5 138s53 72.334 92 95.001s82.833 34 131.5 34s92.334 -11.333 131.001 -34s69 -54.167 91 -94.5s33 -86.5 33 -138.5zM175.499 420.499c-34.333 -32.333 -53.834 -74.5 -58.501 -126.5h373
c-4.66699 52 -24.167 94.167 -58.5 126.5s-77.166 48.5 -128.499 48.5c-50.667 0 -93.167 -16.167 -127.5 -48.5zM195.998 701.499c28.667 23 64.332 34.5 106.999 34.5s78.334 -11.5 107.001 -34.5s43.667 -54.167 45 -93.5h-50c-0.666992 25.333 -10.667 45.833 -30 61.5
s-43.333 23.5 -72 23.5s-52.667 -7.83301 -72 -23.5s-29.333 -36.167 -30 -61.5h-50c1.33301 39.333 16.333 70.5 45 93.5z" />
    <glyph glyph-name="uni0208" unicode="&#x208;" horiz-adv-x="302" 
d="M114 700h74v-700h-74v700zM-74 881h79l96 -124h-63zM88 881h79l97 -124h-63z" />
    <glyph glyph-name="uni0209" unicode="&#x209;" horiz-adv-x="269" 
d="M99 526h71v-526h-71v526zM-90 732h79l96 -124h-63zM72 732h79l97 -124h-63z" />
    <glyph glyph-name="uni020A" unicode="&#x20a;" horiz-adv-x="302" 
d="M114 700h74v-700h-74v700zM44 850.5c28.667 23 64.332 34.5 106.999 34.5s78.334 -11.5 107.001 -34.5s43.667 -54.167 45 -93.5h-50c-0.666992 25.333 -10.667 45.833 -30 61.5s-43.333 23.5 -72 23.5s-52.667 -7.83301 -72 -23.5s-29.333 -36.167 -30 -61.5h-50
c1.33301 39.333 16.333 70.5 45 93.5z" />
    <glyph glyph-name="uni020B" unicode="&#x20b;" horiz-adv-x="269" 
d="M99 526h71v-526h-71v526zM43.5 701.5c23.667 23 54.167 34.5 91.5 34.5s67.833 -11.5 91.5 -34.5s35.5 -54.167 35.5 -93.5h-47c0 26 -7.33301 46.667 -22 62s-34 23 -58 23s-43.167 -7.66699 -57.5 -23s-21.5 -36 -21.5 -62h-48c0 39.333 11.833 70.5 35.5 93.5z" />
    <glyph glyph-name="uni020C" unicode="&#x20c;" horiz-adv-x="839" 
d="M231.5 40.5c-56.333 31 -100.333 73.498 -132 127.498s-47.5 114.667 -47.5 182s15.833 128 47.5 182s75.667 96.5 132 127.5s119.166 46.5 188.499 46.5s131.833 -15.333 187.5 -46s99.5 -73.167 131.5 -127.5s48 -115.166 48 -182.499s-16 -128.166 -48 -182.499
s-75.833 -96.833 -131.5 -127.5s-118.167 -46 -187.5 -46s-132.166 15.5 -188.499 46.5zM570 97.498c44.667 25 79.667 59.667 105 104s38 93.833 38 148.5s-12.667 104.167 -38 148.5s-60.333 79 -105 104s-94.667 37.5 -150 37.5s-105.5 -12.5 -150.5 -37.5
s-80.333 -59.667 -106 -104s-38.5 -93.833 -38.5 -148.5s12.833 -104.167 38.5 -148.5s61 -79 106 -104s95.167 -37.5 150.5 -37.5s105.333 12.5 150 37.5zM195 880.998h79l96 -124h-63zM357 880.998h79l97 -124h-63z" />
    <glyph glyph-name="uni020D" unicode="&#x20d;" horiz-adv-x="627" 
d="M177 29.5c-40.667 23 -72.667 54.833 -96 95.5s-35 86.667 -35 138s11.667 97.333 35 138s55.333 72.334 96 95.001s86.334 34 137.001 34s96.334 -11.333 137.001 -34s72.5 -54.334 95.5 -95.001s34.5 -86.667 34.5 -138s-11.5 -97.333 -34.5 -138
s-54.833 -72.5 -95.5 -95.5s-86.334 -34.5 -137.001 -34.5s-96.334 11.5 -137.001 34.5zM414.5 83.5c29.667 17 52.834 41.167 69.501 72.5s25 67 25 107s-8.33301 75.667 -25 107s-39.834 55.5 -69.501 72.5s-63.167 25.5 -100.5 25.5s-70.833 -8.5 -100.5 -25.5
s-53 -41.167 -70 -72.5s-25.5 -67 -25.5 -107s8.5 -75.667 25.5 -107s40.333 -55.5 70 -72.5s63.167 -25.5 100.5 -25.5s70.833 8.5 100.5 25.5zM88 732h79l96 -124h-63zM250 732h79l97 -124h-63z" />
    <glyph glyph-name="uni020E" unicode="&#x20e;" horiz-adv-x="839" 
d="M231.5 40.5c-56.333 31 -100.333 73.498 -132 127.498s-47.5 114.667 -47.5 182s15.833 128 47.5 182s75.667 96.5 132 127.5s119.166 46.5 188.499 46.5s131.833 -15.333 187.5 -46s99.5 -73.167 131.5 -127.5s48 -115.166 48 -182.499s-16 -128.166 -48 -182.499
s-75.833 -96.833 -131.5 -127.5s-118.167 -46 -187.5 -46s-132.166 15.5 -188.499 46.5zM570 97.498c44.667 25 79.667 59.667 105 104s38 93.833 38 148.5s-12.667 104.167 -38 148.5s-60.333 79 -105 104s-94.667 37.5 -150 37.5s-105.5 -12.5 -150.5 -37.5
s-80.333 -59.667 -106 -104s-38.5 -93.833 -38.5 -148.5s12.833 -104.167 38.5 -148.5s61 -79 106 -104s95.167 -37.5 150.5 -37.5s105.333 12.5 150 37.5zM313 850.498c28.667 23 64.332 34.5 106.999 34.5s78.334 -11.5 107.001 -34.5s43.667 -54.167 45 -93.5h-50
c-0.666992 25.333 -10.667 45.833 -30 61.5s-43.333 23.5 -72 23.5s-52.667 -7.83301 -72 -23.5s-29.333 -36.167 -30 -61.5h-50c1.33301 39.333 16.333 70.5 45 93.5z" />
    <glyph glyph-name="uni020F" unicode="&#x20f;" horiz-adv-x="627" 
d="M177 29.5c-40.667 23 -72.667 54.833 -96 95.5s-35 86.667 -35 138s11.667 97.333 35 138s55.333 72.334 96 95.001s86.334 34 137.001 34s96.334 -11.333 137.001 -34s72.5 -54.334 95.5 -95.001s34.5 -86.667 34.5 -138s-11.5 -97.333 -34.5 -138
s-54.833 -72.5 -95.5 -95.5s-86.334 -34.5 -137.001 -34.5s-96.334 11.5 -137.001 34.5zM414.5 83.5c29.667 17 52.834 41.167 69.501 72.5s25 67 25 107s-8.33301 75.667 -25 107s-39.834 55.5 -69.501 72.5s-63.167 25.5 -100.5 25.5s-70.833 -8.5 -100.5 -25.5
s-53 -41.167 -70 -72.5s-25.5 -67 -25.5 -107s8.5 -75.667 25.5 -107s40.333 -55.5 70 -72.5s63.167 -25.5 100.5 -25.5s70.833 8.5 100.5 25.5zM206 701.5c28.667 23 64.332 34.5 106.999 34.5s78.334 -11.5 107.001 -34.5s43.667 -54.167 45 -93.5h-50
c-0.666992 25.333 -10.667 45.833 -30 61.5s-43.333 23.5 -72 23.5s-52.667 -7.83301 -72 -23.5s-29.333 -36.167 -30 -61.5h-50c1.33301 39.333 16.333 70.5 45 93.5z" />
    <glyph glyph-name="uni0210" unicode="&#x210;" horiz-adv-x="723" 
d="M592 0l-160 225.003c-18 -2 -36.667 -3 -56 -3h-188v-222h-74v700h262c89.333 0 159.333 -21.333 210 -64s76 -101.334 76 -176.001c0 -54.667 -13.833 -100.834 -41.5 -138.501s-67.167 -64.834 -118.5 -81.501l171 -240h-81zM533 331.003
c36.667 30.667 55 73.667 55 129c0 56.667 -18.333 100.167 -55 130.5s-89.667 45.5 -159 45.5h-186v-351h186c69.333 0 122.333 15.333 159 46zM144 881.003h79l96 -124h-63zM306 881.003h79l97 -124h-63z" />
    <glyph glyph-name="uni0211" unicode="&#x211;" horiz-adv-x="401" 
d="M241.5 503c33 18 73.832 27 122.499 27v-69l-17 1c-55.333 0 -98.666 -17 -129.999 -51s-47 -81.667 -47 -143v-268h-71v526h68v-103c16.667 35.333 41.5 62 74.5 80zM6.99902 732h79l96 -124h-63zM168.999 732h79l97 -124h-63z" />
    <glyph glyph-name="uni0212" unicode="&#x212;" horiz-adv-x="723" 
d="M592 0l-160 225.003c-18 -2 -36.667 -3 -56 -3h-188v-222h-74v700h262c89.333 0 159.333 -21.333 210 -64s76 -101.334 76 -176.001c0 -54.667 -13.833 -100.834 -41.5 -138.501s-67.167 -64.834 -118.5 -81.501l171 -240h-81zM533 331.003
c36.667 30.667 55 73.667 55 129c0 56.667 -18.333 100.167 -55 130.5s-89.667 45.5 -159 45.5h-186v-351h186c69.333 0 122.333 15.333 159 46zM262 850.503c28.667 23 64.332 34.5 106.999 34.5s78.334 -11.5 107.001 -34.5s43.667 -54.167 45 -93.5h-50
c-0.666992 25.333 -10.667 45.833 -30 61.5s-43.333 23.5 -72 23.5s-52.667 -7.83301 -72 -23.5s-29.333 -36.167 -30 -61.5h-50c1.33301 39.333 16.333 70.5 45 93.5z" />
    <glyph glyph-name="uni0213" unicode="&#x213;" horiz-adv-x="401" 
d="M241.5 503c33 18 73.832 27 122.499 27v-69l-17 1c-55.333 0 -98.666 -17 -129.999 -51s-47 -81.667 -47 -143v-268h-71v526h68v-103c16.667 35.333 41.5 62 74.5 80zM124.999 701.5c28.667 23 64.332 34.5 106.999 34.5s78.334 -11.5 107.001 -34.5
s43.667 -54.167 45 -93.5h-50c-0.666992 25.333 -10.667 45.833 -30 61.5s-43.333 23.5 -72 23.5s-52.667 -7.83301 -72 -23.5s-29.333 -36.167 -30 -61.5h-50c1.33301 39.333 16.333 70.5 45 93.5z" />
    <glyph glyph-name="uni0214" unicode="&#x214;" horiz-adv-x="792" 
d="M184 72c-50.667 52 -75.999 127.667 -75.999 227v401h74v-398c0 -81.333 18.333 -142 55 -182s89.667 -60 159 -60c70 0 123.333 20 160 60s55 100.667 55 182v398h72v-401c0 -99.333 -25.167 -175 -75.5 -227s-120.833 -78 -211.5 -78s-161.334 26 -212.001 78z
M171.001 881h79l96 -124h-63zM333.001 881h79l97 -124h-63z" />
    <glyph glyph-name="uni0215" unicode="&#x215;" horiz-adv-x="673" 
d="M573 526l0.00195312 -526h-68v96c-18.667 -32 -44.334 -56.833 -77.001 -74.5s-70 -26.5 -112 -26.5c-68.667 0 -122.834 19.167 -162.501 57.5s-59.5 94.5 -59.5 168.5v305h71v-298c0 -55.333 13.667 -97.333 41 -126s66.333 -43 117 -43c55.333 0 99 16.833 131 50.5
s48 80.5 48 140.5v276h71zM109.002 732h79l96 -124h-63zM271.002 732h79l97 -124h-63z" />
    <glyph glyph-name="uni0216" unicode="&#x216;" horiz-adv-x="792" 
d="M184 72c-50.667 52 -75.999 127.667 -75.999 227v401h74v-398c0 -81.333 18.333 -142 55 -182s89.667 -60 159 -60c70 0 123.333 20 160 60s55 100.667 55 182v398h72v-401c0 -99.333 -25.167 -175 -75.5 -227s-120.833 -78 -211.5 -78s-161.334 26 -212.001 78z
M289.001 850.5c28.667 23 64.332 34.5 106.999 34.5s78.334 -11.5 107.001 -34.5s43.667 -54.167 45 -93.5h-50c-0.666992 25.333 -10.667 45.833 -30 61.5s-43.333 23.5 -72 23.5s-52.667 -7.83301 -72 -23.5s-29.333 -36.167 -30 -61.5h-50
c1.33301 39.333 16.333 70.5 45 93.5z" />
    <glyph glyph-name="uni0217" unicode="&#x217;" horiz-adv-x="673" 
d="M573 526l0.00195312 -526h-68v96c-18.667 -32 -44.334 -56.833 -77.001 -74.5s-70 -26.5 -112 -26.5c-68.667 0 -122.834 19.167 -162.501 57.5s-59.5 94.5 -59.5 168.5v305h71v-298c0 -55.333 13.667 -97.333 41 -126s66.333 -43 117 -43c55.333 0 99 16.833 131 50.5
s48 80.5 48 140.5v276h71zM227.002 701.5c28.667 23 64.332 34.5 106.999 34.5s78.334 -11.5 107.001 -34.5s43.667 -54.167 45 -93.5h-50c-0.666992 25.333 -10.667 45.833 -30 61.5s-43.333 23.5 -72 23.5s-52.667 -7.83301 -72 -23.5s-29.333 -36.167 -30 -61.5h-50
c1.33301 39.333 16.333 70.5 45 93.5z" />
    <glyph glyph-name="Scommaaccent" unicode="&#x218;" horiz-adv-x="615" 
d="M157.5 19c-47.667 16.667 -84.5039 38.6699 -110.504 66.0029l29 57c25.333 -25.333 59 -45.833 101 -61.5s85.333 -23.5 130 -23.5c62.667 0 109.667 11.5 141 34.5s47 52.833 47 89.5c0 28 -8.5 50.333 -25.5 67s-37.833 29.5 -62.5 38.5s-59 18.833 -103 29.5
c-52.667 13.333 -94.667 26.166 -126 38.499s-58.166 31.166 -80.499 56.499s-33.5 59.666 -33.5 102.999c0 35.333 9.33301 67.5 28 96.5s47.334 52.167 86.001 69.5s86.667 26 144 26c40 0 79.167 -5.5 117.5 -16.5s71.5 -26.167 99.5 -45.5l-25 -59
c-29.333 19.333 -60.666 33.833 -93.999 43.5s-66 14.5 -98 14.5c-61.333 0 -107.5 -11.833 -138.5 -35.5s-46.5 -54.167 -46.5 -91.5c0 -28 8.5 -50.5 25.5 -67.5s38.333 -30 64 -39s60.167 -18.833 103.5 -29.5c51.333 -12.667 92.833 -25.167 124.5 -37.5
s58.5 -31 80.5 -56s33 -58.833 33 -101.5c0 -35.333 -9.5 -67.5 -28.5 -96.5s-48.167 -52 -87.5 -69s-87.666 -25.5 -144.999 -25.5c-52 0 -101.833 8.33301 -149.5 25zM351.996 -115.497c8 -7.66699 12 -16.832 12 -27.499c0 -13.333 -3.66699 -28.333 -11 -45l-28 -74h-39
l21 82c-9.33301 2 -16.5 6.33301 -21.5 13s-7.5 14.667 -7.5 24c0 11.333 4 20.666 12 27.999s18.333 11 31 11s23 -3.83301 31 -11.5z" />
    <glyph glyph-name="scommaaccent" unicode="&#x219;" horiz-adv-x="489" 
d="M117.5 13.5c-39 12.333 -69.5 27.833 -91.5 46.5l32 56c22 -17.333 49.667 -31.5 83 -42.5s68 -16.5 104 -16.5c48 0 83.5 7.5 106.5 22.5s34.5 36.167 34.5 63.5c0 19.333 -6.33301 34.5 -19 45.5s-28.667 19.333 -48 25s-45 11.167 -77 16.5
c-42.667 8 -77 16.167 -103 24.5s-48.167 22.5 -66.5 42.5s-27.5 47.667 -27.5 83c0 44 18.333 80 55 108s87.667 42 153 42c34 0 68 -4.5 102 -13.5s62 -20.833 84 -35.5l-31 -57c-43.333 30 -95 45 -155 45c-45.333 0 -79.5 -8 -102.5 -24s-34.5 -37 -34.5 -63
c0 -20 6.5 -36 19.5 -48s29.167 -20.833 48.5 -26.5s46 -11.5 80 -17.5c42 -8 75.667 -16 101 -24s47 -21.667 65 -41s27 -46 27 -80c0 -46 -19.167 -82.5 -57.5 -109.5s-91.5 -40.5 -159.5 -40.5c-42.667 0 -83.5 6.16699 -122.5 18.5zM274 -115.5
c8 -7.66699 12 -16.832 12 -27.499c0 -13.333 -3.66699 -28.333 -11 -45l-28 -74h-39l21 82c-9.33301 2 -16.5 6.33301 -21.5 13s-7.5 14.667 -7.5 24c0 11.333 4 20.666 12 27.999s18.333 11 31 11s23 -3.83301 31 -11.5z" />
    <glyph glyph-name="uni021A" unicode="&#x21a;" horiz-adv-x="574" 
d="M250 636h-246v64h566v-64h-246v-636h-74v636zM318 -115.5c8 -7.66699 12 -16.832 12 -27.499c0 -13.333 -3.66699 -28.333 -11 -45l-28 -74h-39l21 82c-9.33301 2 -16.5 6.33301 -21.5 13s-7.5 14.667 -7.5 24c0 11.333 4 20.666 12 27.999s18.333 11 31 11
s23 -3.83301 31 -11.5z" />
    <glyph glyph-name="uni021B" unicode="&#x21b;" horiz-adv-x="406" 
d="M376 32c-13.333 -12 -29.834 -21.1699 -49.501 -27.5029s-40.167 -9.5 -61.5 -9.5c-49.333 0 -87.333 13.333 -114 40s-40 64.334 -40 113.001v318h-94v60h94v115h71v-115h160v-60h-160v-314c0 -31.333 7.83301 -55.166 23.5 -71.499s38.167 -24.5 67.5 -24.5
c14.667 0 28.834 2.33301 42.501 7s25.5 11.334 35.5 20.001zM279.999 -115.503c8 -7.66699 12 -16.832 12 -27.499c0 -13.333 -3.66699 -28.333 -11 -45l-28 -74h-39l21 82c-9.33301 2 -16.5 6.33301 -21.5 13s-7.5 14.667 -7.5 24c0 11.333 4 20.666 12 27.999
s18.333 11 31 11s23 -3.83301 31 -11.5z" />
    <glyph glyph-name="uni021E" unicode="&#x21e;" horiz-adv-x="813" 
d="M699 700v-700h-73v323h-438v-323h-74v700h74v-312h438v312h73zM571 881l-129 -124h-72l-129 124h66l99 -82l99 82h66z" />
    <glyph glyph-name="uni021F" unicode="&#x21f;" horiz-adv-x="677" 
d="M524.5 472.5c39 -38.333 58.5 -94.1689 58.5 -167.502v-305h-71v298c0 54.667 -13.667 96.334 -41 125.001s-66.333 43 -117 43c-56.667 0 -101.5 -16.833 -134.5 -50.5s-49.5 -80.167 -49.5 -139.5v-276h-71v742h71v-308c19.333 30.667 46 54.334 80 71.001
s73 25 117 25c66 0 118.5 -19.167 157.5 -57.5zM300 947.997l-129 -124h-72l-129 124h66l99 -82l99 82h66z" />
    <glyph glyph-name="uni022A" unicode="&#x22a;" horiz-adv-x="839" 
d="M231.5 40.5c-56.333 31 -100.333 73.498 -132 127.498s-47.5 114.667 -47.5 182s15.833 128 47.5 182s75.667 96.5 132 127.5s119.166 46.5 188.499 46.5s131.833 -15.333 187.5 -46s99.5 -73.167 131.5 -127.5s48 -115.166 48 -182.499s-16 -128.166 -48 -182.499
s-75.833 -96.833 -131.5 -127.5s-118.167 -46 -187.5 -46s-132.166 15.5 -188.499 46.5zM570 97.498c44.667 25 79.667 59.667 105 104s38 93.833 38 148.5s-12.667 104.167 -38 148.5s-60.333 79 -105 104s-94.667 37.5 -150 37.5s-105.5 -12.5 -150.5 -37.5
s-80.333 -59.667 -106 -104s-38.5 -93.833 -38.5 -148.5s12.833 -104.167 38.5 -148.5s61 -79 106 -104s95.167 -37.5 150.5 -37.5s105.333 12.5 150 37.5zM302.5 791.998c-8.33301 8 -12.5 18 -12.5 30c0 11.333 4.16699 21 12.5 29s18.166 12 29.499 12
s21.166 -4 29.499 -12s12.5 -17.667 12.5 -29c0 -12 -4.16699 -22 -12.5 -30s-18.166 -12 -29.499 -12s-21.166 4 -29.499 12zM478.5 791.998c-8.33301 8 -12.5 18 -12.5 30c0 11.333 4.16699 21 12.5 29s18.166 12 29.499 12s21.166 -4 29.499 -12s12.5 -17.667 12.5 -29
c0 -12 -4.16699 -22 -12.5 -30s-18.166 -12 -29.499 -12s-21.166 4 -29.499 12zM266 957.998h308v-45h-308v45z" />
    <glyph glyph-name="uni022B" unicode="&#x22b;" horiz-adv-x="627" 
d="M177 29.5c-40.667 23 -72.667 54.833 -96 95.5s-35 86.667 -35 138s11.667 97.333 35 138s55.333 72.334 96 95.001s86.334 34 137.001 34s96.334 -11.333 137.001 -34s72.5 -54.334 95.5 -95.001s34.5 -86.667 34.5 -138s-11.5 -97.333 -34.5 -138
s-54.833 -72.5 -95.5 -95.5s-86.334 -34.5 -137.001 -34.5s-96.334 11.5 -137.001 34.5zM414.5 83.5c29.667 17 52.834 41.167 69.501 72.5s25 67 25 107s-8.33301 75.667 -25 107s-39.834 55.5 -69.501 72.5s-63.167 25.5 -100.5 25.5s-70.833 -8.5 -100.5 -25.5
s-53 -41.167 -70 -72.5s-25.5 -67 -25.5 -107s8.5 -75.667 25.5 -107s40.333 -55.5 70 -72.5s63.167 -25.5 100.5 -25.5s70.833 8.5 100.5 25.5zM195.5 643c-8.33301 8 -12.5 18 -12.5 30c0 11.333 4.16699 21 12.5 29s18.166 12 29.499 12s21.166 -4 29.499 -12
s12.5 -17.667 12.5 -29c0 -12 -4.16699 -22 -12.5 -30s-18.166 -12 -29.499 -12s-21.166 4 -29.499 12zM371.5 643c-8.33301 8 -12.5 18 -12.5 30c0 11.333 4.16699 21 12.5 29s18.166 12 29.499 12s21.166 -4 29.499 -12s12.5 -17.667 12.5 -29
c0 -12 -4.16699 -22 -12.5 -30s-18.166 -12 -29.499 -12s-21.166 4 -29.499 12zM159 809h308v-45h-308v45z" />
    </font>
</defs>
</svg>
